<mxfile host="app.diagrams.net" modified="2022-08-22T09:00:58.146Z" agent="5.0 (Macintosh; Intel Mac OS X 10_15_7) AppleWebKit/537.36 (KHTML, like Gecko) Chrome/103.0.0.0 Safari/537.36" etag="2J3I7BWIkxeGCFaT7vnH" version="20.2.5" type="github">
  <diagram id="C5RBs43oDa-KdzZeNtuy" name="Page-1">
    <mxGraphModel dx="3934" dy="1136" grid="1" gridSize="10" guides="1" tooltips="1" connect="1" arrows="1" fold="1" page="1" pageScale="1" pageWidth="827" pageHeight="1169" math="0" shadow="0">
      <root>
        <mxCell id="WIyWlLk6GJQsqaUBKTNV-0" />
        <mxCell id="WIyWlLk6GJQsqaUBKTNV-1" parent="WIyWlLk6GJQsqaUBKTNV-0" />
        <mxCell id="WIyWlLk6GJQsqaUBKTNV-2" value="" style="rounded=0;html=1;jettySize=auto;orthogonalLoop=1;fontSize=11;endArrow=block;endFill=0;endSize=8;strokeWidth=1;shadow=0;labelBackgroundColor=none;edgeStyle=orthogonalEdgeStyle;" parent="WIyWlLk6GJQsqaUBKTNV-1" source="WIyWlLk6GJQsqaUBKTNV-3" target="WIyWlLk6GJQsqaUBKTNV-6" edge="1">
          <mxGeometry relative="1" as="geometry" />
        </mxCell>
        <mxCell id="WIyWlLk6GJQsqaUBKTNV-3" value="Lamp doesn&#39;t work" style="rounded=1;whiteSpace=wrap;html=1;fontSize=12;glass=0;strokeWidth=1;shadow=0;" parent="WIyWlLk6GJQsqaUBKTNV-1" vertex="1">
          <mxGeometry x="160" y="80" width="120" height="40" as="geometry" />
        </mxCell>
        <mxCell id="WIyWlLk6GJQsqaUBKTNV-4" value="Yes" style="rounded=0;html=1;jettySize=auto;orthogonalLoop=1;fontSize=11;endArrow=block;endFill=0;endSize=8;strokeWidth=1;shadow=0;labelBackgroundColor=none;edgeStyle=orthogonalEdgeStyle;" parent="WIyWlLk6GJQsqaUBKTNV-1" source="WIyWlLk6GJQsqaUBKTNV-6" target="WIyWlLk6GJQsqaUBKTNV-10" edge="1">
          <mxGeometry y="20" relative="1" as="geometry">
            <mxPoint as="offset" />
          </mxGeometry>
        </mxCell>
        <mxCell id="WIyWlLk6GJQsqaUBKTNV-5" value="No" style="edgeStyle=orthogonalEdgeStyle;rounded=0;html=1;jettySize=auto;orthogonalLoop=1;fontSize=11;endArrow=block;endFill=0;endSize=8;strokeWidth=1;shadow=0;labelBackgroundColor=none;" parent="WIyWlLk6GJQsqaUBKTNV-1" source="WIyWlLk6GJQsqaUBKTNV-6" target="WIyWlLk6GJQsqaUBKTNV-7" edge="1">
          <mxGeometry y="10" relative="1" as="geometry">
            <mxPoint as="offset" />
          </mxGeometry>
        </mxCell>
        <mxCell id="WIyWlLk6GJQsqaUBKTNV-6" value="Lamp&lt;br&gt;plugged in?" style="rhombus;whiteSpace=wrap;html=1;shadow=0;fontFamily=Helvetica;fontSize=12;align=center;strokeWidth=1;spacing=6;spacingTop=-4;" parent="WIyWlLk6GJQsqaUBKTNV-1" vertex="1">
          <mxGeometry x="170" y="170" width="100" height="80" as="geometry" />
        </mxCell>
        <mxCell id="WIyWlLk6GJQsqaUBKTNV-7" value="Plug in lamp" style="rounded=1;whiteSpace=wrap;html=1;fontSize=12;glass=0;strokeWidth=1;shadow=0;" parent="WIyWlLk6GJQsqaUBKTNV-1" vertex="1">
          <mxGeometry x="320" y="190" width="120" height="40" as="geometry" />
        </mxCell>
        <mxCell id="WIyWlLk6GJQsqaUBKTNV-8" value="No" style="rounded=0;html=1;jettySize=auto;orthogonalLoop=1;fontSize=11;endArrow=block;endFill=0;endSize=8;strokeWidth=1;shadow=0;labelBackgroundColor=none;edgeStyle=orthogonalEdgeStyle;" parent="WIyWlLk6GJQsqaUBKTNV-1" source="WIyWlLk6GJQsqaUBKTNV-10" target="WIyWlLk6GJQsqaUBKTNV-11" edge="1">
          <mxGeometry x="0.3333" y="20" relative="1" as="geometry">
            <mxPoint as="offset" />
          </mxGeometry>
        </mxCell>
        <mxCell id="WIyWlLk6GJQsqaUBKTNV-9" value="Yes" style="edgeStyle=orthogonalEdgeStyle;rounded=0;html=1;jettySize=auto;orthogonalLoop=1;fontSize=11;endArrow=block;endFill=0;endSize=8;strokeWidth=1;shadow=0;labelBackgroundColor=none;" parent="WIyWlLk6GJQsqaUBKTNV-1" source="WIyWlLk6GJQsqaUBKTNV-10" target="WIyWlLk6GJQsqaUBKTNV-12" edge="1">
          <mxGeometry y="10" relative="1" as="geometry">
            <mxPoint as="offset" />
          </mxGeometry>
        </mxCell>
        <mxCell id="WIyWlLk6GJQsqaUBKTNV-10" value="Bulb&lt;br&gt;burned out?" style="rhombus;whiteSpace=wrap;html=1;shadow=0;fontFamily=Helvetica;fontSize=12;align=center;strokeWidth=1;spacing=6;spacingTop=-4;" parent="WIyWlLk6GJQsqaUBKTNV-1" vertex="1">
          <mxGeometry x="170" y="290" width="100" height="80" as="geometry" />
        </mxCell>
        <mxCell id="WIyWlLk6GJQsqaUBKTNV-11" value="Repair Lamp" style="rounded=1;whiteSpace=wrap;html=1;fontSize=12;glass=0;strokeWidth=1;shadow=0;" parent="WIyWlLk6GJQsqaUBKTNV-1" vertex="1">
          <mxGeometry x="160" y="430" width="120" height="40" as="geometry" />
        </mxCell>
        <mxCell id="WIyWlLk6GJQsqaUBKTNV-12" value="Replace Bulb" style="rounded=1;whiteSpace=wrap;html=1;fontSize=12;glass=0;strokeWidth=1;shadow=0;" parent="WIyWlLk6GJQsqaUBKTNV-1" vertex="1">
          <mxGeometry x="320" y="310" width="120" height="40" as="geometry" />
        </mxCell>
        <mxCell id="K0f9ftnu1qqYcTJu6DYC-1" value="" style="shape=image;verticalLabelPosition=bottom;labelBackgroundColor=default;verticalAlign=top;aspect=fixed;imageAspect=0;image=data:image/png,iVBORw0KGgoAAAANSUhEUgAABGQAAAQsCAYAAADXf0rEAAAMbGlDQ1BJQ0MgUHJvZmlsZQAASImVVwdYU8kWnluSkJDQAghICb0jUgNICaEFkF4EGyEJJJQYE4KKHV1UcO0iihVdFVFsKyAWELuyKPa+WFBR1kVdbKi8CQnouq987+Sbe/+cOfOfkpncewDQ/MCVSPJQLQDyxQXShPBgxpi0dAbpKUDgRwc4ASKXJ5Ow4uKiAZTB+9/l3Q1oC+Wqs4Lrn/P/VXT4AhkPAGQcxJl8GS8f4mYA8PU8ibQAAKJCbzmlQKLAcyDWlcIAIV6lwNlKvFOBM5X46IBNUgIb4ssAqFG5XGk2ABr3oJ5RyMuGPBqfIXYV80ViADSdIA7gCbl8iBWxO+XnT1LgCojtoL0EYhgPYGZ+x5n9N/7MIX4uN3sIK/MaELUQkUySx532f5bmf0t+nnzQhw0cVKE0IkGRP6zhrdxJUQpMhbhbnBkTq6g1xB9EfGXdAUApQnlEstIeNebJ2LB+QB9iVz43JApiY4jDxHkx0Sp9ZpYojAMx3C3oVFEBJwliA4gXCmShiSqbzdJJCSpfaF2WlM1S6c9xpQN+Fb4eyHOTWSr+N0IBR8WPaRQJk1IhpkBsVShKiYFYA2IXWW5ilMpmVJGQHTNoI5UnKOK3gjhBIA4PVvJjhVnSsASVfWm+bDBfbLNQxIlR4QMFwqQIZX2wUzzuQPwwF+yyQMxKHuQRyMZED+bCF4SEKnPHngvEyYkqng+SguAE5VqcIsmLU9njFoK8cIXeAmIPWWGiai2eUgA3p5Ifz5IUxCUp48SLcriRccp48GUgGrBBCGAAORyZYBLIAaK27vpu+E05Ewa4QAqygQA4qzSDK1IHZsTwmgiKwB8QCYBsaF3wwKwAFEL9lyGt8uoMsgZmCwdW5IKnEOeDKJAHv8sHVomHvKWAJ1Aj+od3Lhw8GG8eHIr5f68f1H7TsKAmWqWRD3pkaA5aEkOJIcQIYhjRHjfCA3A/PBpeg+Bww5m4z2Ae3+wJTwnthEeE64QOwu2JomLpD1GOBh2QP0xVi8zva4HbQE5PPBj3h+yQGdfHjYAz7gH9sPBA6NkTatmquBVVYfzA/bcMvvs1VHZkVzJKHkYOItv9uFLDQcNziEVR6+/ro4w1c6je7KGZH/2zv6s+H96jfrTEFmIHsbPYCew8dhSrBwysCWvAWrFjCjy0u54M7K5BbwkD8eRCHtE//HFVPhWVlLnWuHa5flbOFQimFigOHnuSZJpUlC0sYLDg00HA4Ih5Lk4MN1c3NwAUzxrl39fb+IFnCKLf+k0373cA/Jv6+/uPfNNFNgGw3xse/8PfdHZMALTVATh3mCeXFip1uOJCgP8SmvCkGQJTYAnsYD5uwAv4gSAQCiJBLEgCaWACrLIQ7nMpmAJmgLmgBJSBZWA1WAc2ga1gJ9gDDoB6cBScAGfARXAZXAd34e7pBC9BD3gH+hAEISE0hI4YImaINeKIuCFMJAAJRaKRBCQNyUCyETEiR2Yg85AyZAWyDtmCVCP7kcPICeQ80o7cRh4iXcgb5BOKoVRUFzVBbdARKBNloVFoEjoezUYno0XofHQJWoFWobvROvQEehG9jnagL9FeDGDqmD5mjjljTIyNxWLpWBYmxWZhpVg5VoXVYo3wd76KdWDd2EeciNNxBu4Md3AEnozz8Mn4LHwxvg7fidfhp/Cr+EO8B/9KoBGMCY4EXwKHMIaQTZhCKCGUE7YTDhFOw7PUSXhHJBL1ibZEb3gW04g5xOnExcQNxL3EZmI78TGxl0QiGZIcSf6kWBKXVEAqIa0l7SY1ka6QOkkf1NTVzNTc1MLU0tXEasVq5Wq71I6rXVF7ptZH1iJbk33JsWQ+eRp5KXkbuZF8idxJ7qNoU2wp/pQkSg5lLqWCUks5TblHeauurm6h7qMery5Sn6Neob5P/Zz6Q/WPVB2qA5VNHUeVU5dQd1Cbqbepb2k0mg0tiJZOK6AtoVXTTtIe0D5o0DVcNDgafI3ZGpUadRpXNF5pkjWtNVmaEzSLNMs1D2pe0uzWImvZaLG1uFqztCq1Dmvd1OrVpmuP1I7VztderL1L+7z2cx2Sjo1OqA5fZ77OVp2TOo/pGN2Szqbz6PPo2+in6Z26RF1bXY5ujm6Z7h7dNt0ePR09D70Uval6lXrH9Dr0MX0bfY5+nv5S/QP6N/Q/DTMZxhomGLZoWO2wK8PeGww3CDIQGJQa7DW4bvDJkGEYaphruNyw3vC+EW7kYBRvNMVoo9Fpo+7husP9hvOGlw4/MPyOMWrsYJxgPN14q3Grca+JqUm4icRkrclJk25TfdMg0xzTVabHTbvM6GYBZiKzVWZNZi8YegwWI49RwTjF6DE3No8wl5tvMW8z77OwtUi2KLbYa3HfkmLJtMyyXGXZYtljZWY12mqGVY3VHWuyNdNaaL3G+qz1extbm1SbBTb1Ns9tDWw5tkW2Nbb37Gh2gXaT7arsrtkT7Zn2ufYb7C87oA6eDkKHSodLjqijl6PIcYNjuxPBycdJ7FTldNOZ6sxyLnSucX7oou8S7VLsUu/yaoTViPQRy0ecHfHV1dM1z3Wb692ROiMjRxaPbBz5xs3BjedW6XbNneYe5j7bvcH9tYejh8Bjo8ctT7rnaM8Fni2eX7y8vaRetV5d3lbeGd7rvW8ydZlxzMXMcz4En2Cf2T5HfT76evkW+B7w/dPP2S/Xb5ff81G2owSjto167G/hz/Xf4t8RwAjICNgc0BFoHsgNrAp8FGQZxA/aHvSMZc/KYe1mvQp2DZYGHwp+z/Zlz2Q3h2Ah4SGlIW2hOqHJoetCH4RZhGWH1YT1hHuGTw9vjiBEREUsj7jJMeHwONWcnkjvyJmRp6KoUYlR66IeRTtES6MbR6OjI0evHH0vxjpGHFMfC2I5sStj78fZxk2OOxJPjI+Lr4x/mjAyYUbC2UR64sTEXYnvkoKTlibdTbZLlie3pGimjEupTnmfGpK6IrVjzIgxM8dcTDNKE6U1pJPSU9K3p/eODR27emznOM9xJeNujLcdP3X8+QlGE/ImHJuoOZE78WAGISM1Y1fGZ24st4rbm8nJXJ/Zw2Pz1vBe8oP4q/hdAn/BCsGzLP+sFVnPs/2zV2Z3CQOF5cJuEVu0TvQ6JyJnU8773NjcHbn9eal5e/PV8jPyD4t1xLniU5NMJ02d1C5xlJRIOib7Tl49uUcaJd0uQ2TjZQ0FuvClvlVuJ/9J/rAwoLCy8MOUlCkHp2pPFU9tneYwbdG0Z0VhRb9Mx6fzprfMMJ8xd8bDmayZW2YhszJntcy2nD1/duec8Dk751Lm5s79rdi1eEXxX/NS5zXON5k/Z/7jn8J/qinRKJGW3Fzgt2DTQnyhaGHbIvdFaxd9LeWXXihzLSsv+7yYt/jCzyN/rvi5f0nWkralXks3LiMuEy+7sTxw+c4V2iuKVjxeOXpl3SrGqtJVf62euPp8uUf5pjWUNfI1HRXRFQ1rrdYuW/t5nXDd9crgyr3rjdcvWv9+A3/DlY1BG2s3mWwq2/Rps2jzrS3hW+qqbKrKtxK3Fm59ui1l29lfmL9UbzfaXrb9yw7xjo6dCTtPVXtXV+8y3rW0Bq2R13TtHrf78p6QPQ21zrVb9urvLdsH9sn3vdifsf/GgagDLQeZB2t/tf51/SH6odI6pG5aXU+9sL6jIa2h/XDk4ZZGv8ZDR1yO7DhqfrTymN6xpccpx+cf728qauptljR3n8g+8bhlYsvdk2NOXjsVf6rtdNTpc2fCzpw8yzrbdM7/3NHzvucPX2BeqL/odbGu1bP10G+evx1q82qru+R9qeGyz+XG9lHtx68EXjlxNeTqmWucaxevx1xvv5F849bNcTc7bvFvPb+dd/v1ncI7fXfn3CPcK72vdb/8gfGDqt/tf9/b4dVx7GHIw9ZHiY/uPuY9fvlE9uRz5/yntKflz8yeVT93e360K6zr8ouxLzpfSl72dZf8of3H+ld2r379M+jP1p4xPZ2vpa/73yx+a/h2x18ef7X0xvU+eJf/ru996QfDDzs/Mj+e/ZT66VnflM+kzxVf7L80fo36eq8/v79fwpVyB14FMDjQrCwA3uwAgJYGAB32bZSxyl5wQBBl/zqAwH/Cyn5xQLwAqIXv7/Hd8O3mJgD7tsH2C/Jrwl41jgZAkg9A3d2HhkpkWe5uSi4q7FMID/r738KejbQSgC/L+vv7qvr7v2yFwcLesVms7EEVQoQ9w2bOl8z8TPBvRNmffpfjj3egiMAD/Hj/FysWkK8iPOCaAAAAbGVYSWZNTQAqAAAACAAEARoABQAAAAEAAAA+ARsABQAAAAEAAABGASgAAwAAAAEAAgAAh2kABAAAAAEAAABOAAAAAAAAAJAAAAABAAAAkAAAAAEAAqACAAQAAAABAAAEZKADAAQAAAABAAAELAAAAAC9K7HfAAAACXBIWXMAABYlAAAWJQFJUiTwAABAAElEQVR4AezdCWBU5bn/8WeWJBAgJGwh7FvYQVkFERT3pda9ttbui+2ttavdbvfae9t6b9vbff1b1KrVaquAu6IgIjuyh0X2Jew7gWRm/s/znjmTmZAAQUhmMt/jTWbmnDNn+ZwZbs8vz/u+gYPH98aECQEEEEAAAQQQQAABBBBAAAEEEECgwQSCDbYndoQAAggggAACCCCAAAIIIIAAAggg4AQIZPggIIAAAggggAACCCCAAAIIIIAAAg0sQCDTwODsDgEEEEAAAQQQQAABBBBAAAEEECCQ4TOAAAIIIIAAAggggAACCCCAAAIINLAAgUwDg7M7BBBAAAEEEEAAAQQQQAABBBBAgECGzwACCCCAAAIIIIAAAggggAACCCDQwAIEMg0Mzu4QQAABBBBAAAEEEEAAAQQQQAABAhk+AwgggAACCCCAAAIIIIAAAggggEADCxDINDA4u0MAAQQQQAABBBBAAAEEEEAAAQQIZPgMIIAAAggggAACCCCAAAIIIIAAAg0sQCDTwODsDgEEEEAAAQQQQAABBBBAAAEEECCQ4TOAAAIIIIAAAggggAACCCCAAAIINLAAgUwDg7M7BBBAAAEEEEAAAQQQQAABBBBAgECGzwACCCCAAAIIIIAAAggggAACCCDQwAIEMg0Mzu4QQAABBBBAAAEEEEAAAQQQQAABAhk+AwgggAACCCCAAAIIIIAAAggggEADCxDINDA4u0MAAQQQQAABBBBAAAEEEEAAAQQIZPgMIIAAAggggAACCCCAAAIIIIAAAg0sQCDTwODsDgEEEEAAAQQQQAABBBBAAAEEECCQ4TOAAAIIIIAAAggggAACCCCAAAIINLAAgUwDg7M7BBBAAAEEEEAAAQQQQAABBBBAgECGzwACCCCAAAIIIIAAAggggAACCCDQwAIEMg0Mzu4QQAABBBBAAAEEEEAAAQQQQAABAhk+AwgggAACCCCAAAIIIIAAAggggEADCxDINDA4u0MAAQQQQAABBBBAAAEEEEAAAQQIZPgMIIAAAggggAACCCCAAAIIIIAAAg0sQCDTwODsDgEEEEAAAQQQQAABBBBAAAEEECCQ4TOAAAIIIIAAAggggAACCCCAAAIINLAAgUwDg7M7BBBAAAEEEEAAAQQQQAABBBBAIAxB5grEYrHMPXiOHIGzJBAIBM7SltgMAggggAACCCCAAAIIINBwAgQyDWd91vaUHMQkPz9rO2BDCGSIgIUx/neAYCZDLhqHiQACCCCAAAIIIIAAAk6AQCYDPgjf+9PLtR4lBTK1sjCzCQr0KCmUD187POXMvADmxCoxgpkUJl4ggAACCCCAAAIIIIBAmgoQyKTphUk+rA1b90qbtq2SZ/EcgawR2LP7oHTvWChVVVF3ztZCyQ9jgkGvuVJQe8OyShmb7z9mDRAnigACCCCAAAIIIIAAAhkpQCCTIZetrQYyF47tlyFHy2EicPYEJk2aJtGoVsLEIpbEaODiBTIRzWJi+ssLZ+zRq5YhlDl79mwJAQQQQAABBBBAAAEEzp0Agcy5sz0rW/b7xzgrG2MjCGSoQFRTmOPHI5bHuAAmoCUxVhVjvyIWxETttVXLVIcyGXqqHDYCCCCAAAIIIIAAAghkiQCBTJZcaE4TgUwWiESjUnG8UlwQo7lLMBCUkAYwIf0XLKTBTCSsM7VFk4UyFtrYRNMlz4HfCCCAAAIIIIAAAgggkJ4CBDLpeV04KgQQSBKIRaJyvKLKVcUEtSomFApoCBOUsFbOxMIhCQeiEtF5VikT0LDGKmW8pkxJG+EpAggggAACCCCAAAIIIJBGAgQyaXQxah6K/YWfJks1VXidjQLWoe+xY8etNMaFMeFgWHK0IiaW45XDWPgStv5l7D/93lAlk42fEs4ZAQQQQAABBBBAAIHMEiCQyazrxdEikJUCVdGIHNVAJiRaFaOVMZGcmHb0G5U81bDOfUORiMSsMCYQcp3+0lwpKz8mnDQCCCCAAAIIIIAAAhklQCCTUZeLg0UgOwVck6WjVRLQvmLCmrzk2qhLmsaEqrSJkjVfsmZMOiugv7yqsmC8UibeoUx2snHWCCCAAAIIIIAAAgggkMYCBDJpfHE4NAQQ8AQiGsBURrQPmUhQK2M0eMmLSLAyIJXWj0wkpF3HRN3Q2Fo4owv9Dn3RQwABBBBAAAEEEEAAAQTSV4BAJn2vDUeGAAJxgZgFMpUR7T9GJKcqIFXWl4wOdx2KeE2XYtpUydoqedUx8VQGPQQQQAABBBBAAAEEEEAgjQUIZNL44tiheTeYaX6QHB4C51ggqmFLZaWWxuikrZMkoKMpaRTjqmLsO2ItmPiunOOLwOYRQAABBBBAAAEEEEDgrApYN5hMCCCAQFoLWNgSiOnQ1vGKmIAmMBbSuP/iYYy+ZEIAAQQQQAABBBBAAAEEMkaACpmMuVQcKAJZLGChi52+hTAxHd46/hh0YUySiwtpkl7zFAEEEEAAAQQQQAABBBBIUwEqZNL0wnBYCCBwooBVwXhNk7z+Yuw1EwIIIIAAAggggAACCCCQiQIEMpl41ThmBLJQ4KR9xJDMZOEnglNGAAEEEEAAAQQQQCCzBQhkMvv6cfQIZJ0ARTFZd8k5YQQQQAABBBBAAAEEmqQAgUyTvKycFAIIIIAAAggggAACCCCAAAIIpLMAgUw6Xx2ODQEEEEAAAQQQQAABBBBAAAEEmqQAgUyTvKycFAIIIIAAAggggAACCCCAAAIIpLMAgUw6Xx2ODQEEEEAAAQQQQAABBBBAAAEEmqQAgUyTvKycFAIIIIAAAggggAACCCCAAAIIpLMAgUw6X50sP7bDh440vABD+DS8OXtEAAEEEEAAAQQQQAABBLJQgEAmCy96Jpzyq8+8Lv/5mfvknbL1pzzcIxrcLHjzbXnqockSiURS1n/zldny8+/8VqRG0PLqlOluflVlVWL9je9sli9+6Fsyb+bCxDz/ydaN22XhW4vdy1VL18j37/mJ7CrfLdFoVGY8P1MO7Dvols15fZ7c/63/k3279/tvrfPx6b9Plb/+4uHE8uPHK2Xvrn2n/Nm/90DiPTxBAAEEEEAAAQQQQAABBBDITIFwZh42R90UBY4ePio7t+9yp1bSvaN7fEWDk3A4lDjdonZFsmHtJtm4eqPs2bNf9u7YI2v1uT8NHjZA+g7u47+U3bp847otidf+k3bFbd38Mg1XBg3r72aXLV7lHrv37uqvlnh8p2yd/HPSZOnas7NUanCyb88BiUaiMm/GAnny4anSq39PKShsJZt0X1s2lkt+y+aJ99b1ZJ8e/9YN2xKLZ0+bK08+NCXxuq4nbdXgO7+8t67FzEcAAQQQQAABBBBAAAEEEMgAAQKZDLhI2XKIVoHy+ANPp5zusoUrxX786X0fu0GWLSpz87r16Cxti4vkyusvlp79e0jvAb0kNzfHX7XWR6t0WbdqvVRVepU0r02dodUs+9y6c9/wKmOsAsZ+ho4cJK00ZLHpgotHyvNPvSpWWeMHOFaZ89RDU2XCFWOkc49Obj0LWArbFEhuXq57Xa9fMa+M5/ZP3CTNmufV+taXn5mmgVB1VU+tKzETAQQQQAABBBBAAAEEEEAg7QUIZNL+EmXPAQ4eMVDaaPXHkvnLZeioQZIXDzUO7D8kSxeskGFjhkjn7p1cINO5W7F8+b7P1RtnnTaBemLSM9KsWZ772bR+q6xeuc5tx583+bEXpKLimLQvaZ8IZHZs3SmXXDNO8ls0d02V7A17tHnR8LFDZdDwAbJXQ53CNq0T1TpfvPNbKcdm4ZF/vFs3bnNNnY4cPCLHjh2Xzeu3aADTLLH+EHVoWdAi8Tr5yeLZS2XLpuqqmuRlPEcAAQQQQAABBBBAAAEEEMgcAQKZzLlWTf5IrcmPBR8zX50jPft1l37jhrlzfv25mTJHmwZZIGLrnI3pm/d/SStlNsj5FwyRX//gD1I6pFQmXjtepj//hgtYfvatXyd2Y02p7v/2bxKv/ScP/u4f7umb2tRo5Ljz5dpbr3CvS7X5UrfeXdzzV7QCx8KYYRrc+FPytm3e/3z7tzJkhDa10gofmx76zaOSW0eFzLpVGxNBlVuZXwgggAACCCCAAAIIIIAAAhkpQCCTkZet6R50n4G9XIAx61ULObxA5q1pc6Sfzu/UreS0T/zlZ16TFW+vki3xPlp+fd+fpFlengwc1s9t45BW3fzt14/KjzQ88aflC1fI6y/M0vDkPH+We8zTapp777vbVbX88f5JcujgYTffgpZrbrtcClq3kuZaOWPNnGy6+NqLZLBWzViHvxbInK+VPROvG++W2a9Pf+XD7vkreozl23fLHZ++RQrbanXN8nfc/Gg0JlXxZkkH9h9wfdJ0075rWrTMl67aNKp1UYFbj18IIIAAAggggAACCCCAAAKZK0Agk7nXrskd+fNPvixzZyyU3bv2unP70Rfvl0g04jrQ3aud6Nrri64c45ZZx7k/18qSE6aAyBe+/xkJBgKuP5lm+Xmu+ZH1LRPMqe4c2Pp8KenUXt6esySxiXk6UtMFE4ZLMJg6+FgwFJSSrh3l349MdWHMTR+8Vv7192dlh3ZAbAHNe953pUy4epy89do8t63N2rGvBTKHtUmSTUUatiRPA+OdCM99Y4Hs23tQQyKvU+HVy7xA5iP33JFoslS2ZLX8/qcPyE0feo/07Ns9eTM8RwABBBBAAAEEEEAAAQQQyGABApkMvnhN7dCLO3eQISMHJk5r3sxFLgC5RMMOf+qg/bqsWeH1+dKqyGu+tH1TuQtxBgztJ8GQJjLaN+6l2tGv/Ux+9DlXpXLX1z4mootmvvSW25QNU321NjFqnt9MKrWD32NHj8l52m+Njb50cL83hLW/TxsN6SGtprHRnO787G3SPN7fyz3fvUuH214kUx5/UYo7dZD1OvqTTcu10+Grb7lct3PIvW6tfcucznT0aIVbbfsWHaVpnzdK0/bN5W6ejT6V16y6o+CitoWuKud0tss6CCCAAAIIIIAAAggggAAC6SdAIJN+1yRrj2jYmKHacW91XyvbNGg5sHe/3HjndSkmb2ofM9ap76fiTX+ssub5f70qH//iHZJzilGW/A199+7/9p+6x43asW5d05FDR7Uj3XL5zL0flf7n9dVA6B1p2aqFjqSUI+95/9Vy0RVjtTpmrnv7dRryTP3nS1odc1i2bdru5p0skDmsIzW9qMd+XDv3PXrEC2R+8+O/nHAoj/zpyZR5H/38B1z/NykzeYEAAggggAACCCCAAAIIIJAxAgQyGXOpmv6B7irfLct0NCV/Kt+2QyqOHJPXn3vDn+X17xLREpgznIZoFUyXnt4Q1afaRAeterGpU7eO8t1f3iv52odLhVbS/O1Xj8ql2k+MVdPYZP2/DDivn+zasUcmvme8vKJDY9sQ3uvXbHLBTc0mS8ePV8paDXWsssdGc3pWA6X33n6VbNuyw23vnu982j3arw26jae1yufWj1yf0oeOVQoxIYAAAggggAACCCCAAAIIZK4AgUzmXrsmd+Q2wpL1zVJzSp5XOqiPHDxwSPLz82uudlqvbZSmJXOXyZqVXn8tdb3Jmj9179PNLbYqlr/98u/u+ZEjR1wzqpmvzHGdBvvvv+HOa+XOz7zPNYsac8lImf7Cm3Jg3yGx58l90mzRYbaTR2yyoba/+uO7XbizSPvE6dG7q/Tq18PfrFRqeGOTDfdNHzIJFp4ggAACCCCAAAIIIIAAAhkvQCCT8Zew6ZyAdW778wfvk0MHDkur1i3lDz95QPbu3itf/tHdslurZzp1L5GAdtZrzYvGXTq63icejUQlEAzIO2XrZeHspTL6Im8Up5obmvPGwpSRjMLhsBS1L5JIZZWsXrlO2rYrkt79e7i3bXpns2zTIClSFXFhjM0cedH58trzM93yoVqRkzy1L2knw0YNlvN05KXZ2gnwjm27EpU2e3bvk6Ej+rvRmpYvWuneVr5lp3ucrkN/+x0QDxymQ2QP6p28WZ4jgAACCCCAAAIIIIAAAghkmACBTIZdsKZ+uOtWbZBf3/dn13munWtIRzx646VZruPcH//h2xLToaRt8psLuRen8evNV2fLK5Ony0fu+YBbu0PHtnLHZ26r9Z2L5y1PmW+d6d5x160yS/uuma9NkT6oHftaFUskEpH/+94fXH823bSyxZ+6dO8sVvlizZG6J8235bl5ufKRL9zhVvUDFntx9PBRV3nTXptJbdTOgV97/k2xY7TJHrds2uZ+dugw2YVtCglknAy/EEAAAQQQQAABBBBAAIHMFSCQydxr1ySP/I0XZrnzGjJioMydvtA9Hz72PBfILNBhqbv16uzmtStuc9Lzt4DDRmNavdxrmvT4A0/LgCGlicoXCza+8ckf1LoNC1JqTscqjsvTjzznZu/S91ofLk9OetpV6/zHNz7uKnf898x5fZ4LY+z161opc+l7JviL6nxcGu87p1i3u3XjNrfet/7nKynrWwD0lY98J2UeLxBAAAEEEEAAAQQQQAABBDJTgEAmM69bkzzqvbv2ycK5S2XCVWN1iOe8xDm20eZC/bTvmBkvvukebUHHLsWJ5bU9sVGJlsxf7jrVvfrmy2TU+OHSVrfjT1bB8v5P3ey/THn8mw5xXXPKyQnLh/7jffLmy3PkkT9Xj3hkx9p3cJ/E6ju27ZRH/vKUdOvZWVppfzXPPPa8lGrzoq76+mTTvDcWucW9+vdMBDInW59lCCCAAAIIIIAAAggggAACmS1AIJPZ169JHf2sV2a78xk78cT+YS6++kJZrJ3xztB1BmmHu+07tjvpuY+/YoxceOko6Te4VIKh4AnrhjVgadvh5FU2Nd8UCoXcUNfJ86drRc/BfQflihsulWg0In/46d9cc6WP3HOHNG+eJ/917y/ktzqM9We/8bFEJ8H++48f9Trs3b/3gJQtWyOjNTRqpu/xpxnxfmj811Xx5lr+ax4RQAABBBBAAAEEEEAAAQQyV4BAJnOvXZM78pVL1khv7ZvFqlGm/OMFF1L0Lu3mztM6/LWOfW269PpTNwFKrlpxb6rx69DBw/K/3/ltjbm1v1y+cKVYxY29xyprrrphoozVToVzcsMy7dk35OXJr4uFK8sWl7nln773I4lqnM9+/WOuT5xffP8Pcu99d0vnHp3kqUnPyM7yvbJC1x+k57VUK3lsGlWjk+EnH55a+wExFwEEEEAAAQQQQAABBBBAIOMFCGQy/hI2nRO4+zufkn2790uVjmZkIUdhmwKZcM1FiRM8X/uS2bBui/Qe0DMxzz3RkZfqM+U1y5FuPTrLx790Z61v++UPfi/N8psnlpV066gd95boENYjZMjIQWLVNf70ntuvkkuuGec66330D0/I1bdeIcWdO/iLXQDzlfs+J089OFXad2rv5hcWtZad2g/NmAkjZMLV46RlQQtxYVT8vPK041879+//6huJ7dgT60Pme3f/5IQqnZSVeIEAAggggAACCCCAAAIIIJARAoGDx/fGMuJIs/AgY7GYNoOJyid+9JSU9u0kF47tl4UKnHK2C0yaNE1KSwplbJ8OOmx5SCuTQtJcq5NydPSrfP1ppj+5zcLSLDdHcnWZBEISDgdFB+hynS3bUOlMCCCAAAIIIIAAAggggEC6CZzYuUa6HSHHgwACCCCAAAIIIIAAAggggAACCDQxAQKZJnZBOR0EEEAAAQQQQAABBBBAAAEEEEh/AQKZ9L9GHCECCCCAAAIIIIAAAggggAACCDQxAQKZJnZBOR0EEEAAAQQQQAABBBBAAAEEEEh/AQKZ9L9GHCECCCCAAAIIIIAAAggggAACCDQxAQKZJnZBOR0EEEAAAQQQQAABBBBAAAEEEEh/AQKZ9L9GHCECCCCAAAIIIIAAAggggAACCDQxAQKZJnZBOR0EEEAAAQQQQAABBBBAAAEEEEh/AQKZ9L9GHCECCCCAAAIIIIAAAggggAACCDQxAQKZJnZBOR0EEEAAAQQQQAABBBBAAAEEEEh/AQKZ9L9GHCECCCCAAAIIIIAAAggggAACCDQxAQKZJnZBOR0EEEAAAQQQQAABBBBAAAEEEEh/AQKZ9L9GHCECCCCAAAIIIIAAAggggAACCDQxAQKZJnZBOR0EEEAAAQQQQAABBBBAAAEEEEh/AQKZ9L9GHCECCCCAAAIIIIAAAggggAACCDQxAQKZJnZBOR0EEEAAAQQQQAABBBBAAAEEEEh/AQKZ9L9GHCECCCCAAAIIIIAAAggggAACCDQxAQKZJnZBOR0EEEAAAQQQQAABBBBAAAEEEEh/AQKZ9L9GHCECCCCAAAIIIIAAAggggAACCDQxAQKZJnZBOR0EEEAAAQQQQAABBBBAAAEEEEh/AQKZ9L9GHCECCCQJBJKe8xQBBBBAAAEEEEAAAQQQyFQBAplMvXIcNwJZJhAInCSKOdmyLHPidBFAAAEEEEAAAQQQQCAzBMKZcZgc5e7dB2XylHlAIJDVApa7eMFMwD2Sw2T1x4GTRwABBBBAAAEEEEAgowUIZDLg8nUrKZKY/iexmESj+qD/RWP6xP5P58Wi9lofdRXvl7dOBpxaRhzi3oPHJDcUkhb5fF0a44K1adVMUxj3f/EQJpZ4jLqAJumoNKEhpEny4CkCCCCAAAIIIIAAAgikrUDg4PG9dhvPlIYCMRfARDWECUiVRESqonLsWJUcP1YpFRWVcqziuBw9XiWV+nisMiJVuryqKiIBy240reHCnp2L+tCMVVLaqVDG9O7gNmjXpbbppE1qansD804pYI2UzNUeY4Gg5OTYT0jCOTnSvFlYcvNyJb9ZjuQ0y5VmOj8nN6zrByUUCkpQG2S695LQnNKZFRBAAAEEEEAAAQQQQKDhBfiTf8Ob12uP/k1+IBJwAYu7NQ0G9GZTbzj1pjMUCkilVm+EtErGCwqCGuBYIhPSHwsOag8P6nUQrOxu7EN6Y+9I3Q2+lWaYs0UFNlnVhvfMfmvxEtO7FoiDKmxAP/Nh/ayH7LMe0B99rd8C/R7ooy7XB/f4rnfJBhBAAAEEEEAAAQQQQACBBhIgkGkg6HezG/9G325P7XnAwhi7A9UfuznNCUclEA25ZVYV4DVr0pXrqOR4N8eSre+1ACykFRhGWhurF5xVhzIahxEQnI0Pi4UxcUsLH/WTL4FwUCtk9Mde249eG8vG7AtARczZQGcbCCCAAAIIIIAAAggg0BACBDINoXwW9mFBjN7uuyDGbvajWh0T1oBAO4/RPmT0MVeXV1lAYwNneX3NnIXdZvUmYu4u3yOwioxcbQ7jN1fyq5G8pRqIxcMATQXcLLte/hRIVNH4c3isj4Bna2GXhTFaKaOBTE4wJEFroqSPARfMeCGl9SlTHYZRHVYfZ9ZFAAEEEEAAAQQQQACBhhUgkGlY7zPam3+zH9W7fGumZD8BLdPIiWjFRm5MNCaQYKXdqEYlouUxMQsAdLkfHpzRTnmTE/CrYeymPyc315maa9BVyng3/IFAWLzOZa1Cw4IDq+o4MZiB9MwEzFNRNYy0sEWDSA1kXBijzZfCYW2+ZE33NDCzojG7EHat9IkLcM5sj7wLAQQQQAABBBBAAAEEEDj3AgQy5974LOwhXoGh/cjYvWlYb0BtZKWANtvQV3pzGpBIOCZVkYjk2ihMliL4ScJZ2Hs2bsLn80OtkFZiNM/Lsdqj+IhWFsaYv2UFfghj9TEaltlr+88uVnxKeurP4rE+Ai6QUU9rpqeBSzgYdp37WjAT0qQmqOGMNeWzyayT7euzG9ZFAAEEEEAAAQQQQAABBBpKgECmoaTPYD/JN5V2k2n9xkT0ht+aZHhBgdbGBKNaJaDzI9ZMSYMarY6JWicy8Snm3aP6L3msp4AfyFhVRq6O6mPDi1t1jNdxcrxCRoMAa95kTWr8TmZdyzHdV/I1rOeus371QPXH2DmapWUurj8fDWVcXzI6w6uS0c+9Lgvp598zj18b++IwIYAAAggggAACCCCAAAJpKEAgk4YXpbZD8qswgq5Jhl8JoDeoER1VSW9Kgzk2PLa+UwMDa85kk1/l4V7w6wwFPEurwmiuQyxbEGOBV1QDGH9yQYEGARYWpIQybh0CAd/pTB79PCUWf+I6tLZwUhMva6YUsiZL6h6zZkvuGlgg41Usncn+eA8CCCCAAAIIIIAAAggg0FACBDINJf0u9uNXWbiRlbRCxlXA6A1o2CoGQhbEaCenmr5YWOBVdNgQ2dWBwbvYdda/1ZqG2WT99uQ0yxEtRVLnkLsGfuBl18XCGPuVCAysDxm9Pn6g4DbCrzMWUElnaZ72ffBGGvOqZfzKGK86ya6XF4L535sz3ilvRAABBBBAAAEEEEAAAQTOoQCBzDnEPRubtptKC1m8m0ttLqM3/3ob6qpgtPteN+pMjt6DuiBG1yOGORvq3jbM1HWQrC8tCMjVfkqsY2WNZHSYcSvLiGvrPNeprAYBdn2sk9nq/kz8a3f2jitbt+RiFrsQOpmzdqnkOvGtWRlDEOOI+IUAAggggAACCCCAAAJpLkAgk+YXyA7vxFDGCwr8+V5BgBfGeLerGXBSaX6IsZAGKfpfOB66WBMZG2Y8GtHroc3GojGNw1w45uIxDQi0yYz1a2KP1nRJH23kJZfkWHDm0oM0P+kMOTwvk9HgS/OwoBtRyQIaO3irovG+Af5jhpwSh4kAAggggAACCCCAAAJZKEAgkyEX3Q9f/BtNu+/0midZR75WqVEdxfiFGxlyaml7mF6FjHd4Aat8cTf91qWypjJapeQ7Wy5jYYwbklxfWH8mtkrIXSTLZPS1vY3pXQnEs5bENuy7YP3F+FP1d6P6u+Av4xEBBBBAAAEEEEAAAQQQSDcBApl0uyInOR7/htNfxV5baFDzRtVfzuOZC6SGXV7c5fot0eZKMR26KmgVMvEGYq7vEi3RsGDGqmZ04CsXzth18a6ZN2z5mR8N76xdILU5WM3vR+3vYS4CCCCAAAIIIIAAAgggkB4CBDLpcR3qdRT+jacXxlANUC+8eq2cWnlkTZBM2/wthPFHF7fXLhRzCYyt4732RvuxHdprrlO96OuxMrb1wGJVBBBAAAEEEEAAAQQQSBsBApm0uRT1PxBuROtvVv93eE1ivMBF361PLGhxUY2fsbh5XlBjPc0GrC+Z5Hnubf7K9T8C3oEAAggggAACCCCAAAIIIND0BFyvGE3vtDgjBN6dQG1hV3XHvNX9ltS9F223FJ9q25a/jEcEEEAAAQQQQAABBBBAAIHsFCCQyc7rzlkjgAACCCCAAAIIIIAAAggggEAjChDINCI+u0YAAQQQQAABBBBAAAEEEEAAgewUIJDJzuvOWSOAAAIIIIAAAggggAACCCCAQCMKEMg0Ij67RgABBBBAAAEEEEAAAQQQQACB7BQgkMnO685ZI4AAAggggAACCCCAAAIIIIBAIwoQyDQiPrtGAAEEEEAAAQQQQAABBBBAAIHsFCCQyc7rzlkjgAACCCCAAAIIIIAAAggggEAjChDINCI+u0YAAQQQQAABBBBAAAEEEEAAgewUIJDJzuvOWSOAAAIIIIAAAggggAACCCCAQCMKEMg0Ij67RgABBBBAAAEEEEAAAQQQQACB7BQgkMnO685ZI4AAAggggAACCCCAAAIIIIBAIwoQyDQiPrtGAAEEEEAAAQQQQAABBBBAAIHsFCCQyc7rzlkjgAACCCCAAAIIIIAAAggggEAjChDINCI+u0YAAQQQQAABBBBAAAEEEEAAgewUIJDJzuvOWSOAAAIIIIAAAggggAACCCCAQCMKEMg0Ij67RgABBBBAAAEEEEAAAQQQQACB7BQgkMnO685ZI4AAAggggAACCCCAAAIIIIBAIwoQyDQiPrtGAAEEEEAAAQQQQAABBBBAAIHsFCCQyc7rzlkjgAACCCCAAAIIIIAAAggggEAjChDINCI+u0YAAQQQQAABBBBAAAEEEEAAgewUIJDJzuvOWSOAAAIIIIAAAggggAACCCCAQCMKEMg0Ij67RgABBBBAAAEEEEAAAQQQQACB7BQgkMnO685ZI4AAAggggAACCCCAAAIIIIBAIwoQyDQiPrtGAAEEEEAAAQQQQAABBBBAAIHsFCCQyc7rzlkjgAACCCCAAAIIIIAAAggggEAjChDINCI+u0YAAQQQQAABBBBAAAEEEEAAgewUIJDJzuvOWSOAAAIIIIAAAggggAACCCCAQCMKEMg0Ij67ziyBWCgWP+DAaRw4X63TQGIVBBBAAAEEEEAAAQQQQCBrBbhrzNpLz4mfTCAW88IX/9Fb1wti4ovEHt1z/WXr+esmP7f3+fNPtj+WIYAAAggggAACCCCAAAIIZJcAgUx2XW/Oth4CXpDifUX84MVLYE4MWWKxeFgTqt5BzWCmegnPEEAAAQQQQAABBBBAAAEEsl0gcPD4Xr8dRrZbcP5ZKvDszDL556tL6zz7WDQqMQlIMFh3U6UfffpyaVPQTEKhoESjAfcY0NWD8cgzYC908h/r3BkLEEAAAQQQQAABBBBAAAEEskIgnBVnyUkicBKBq8b0ledmlUmbVvnStWOhXwTj3qENkVyTI1cBY82S3Ovqpkpzl2+SiSN6S+v8XA1iLHDRNUIBfR7VMMbCGW+ebczCGKuaIZQ5ycVgEQIIIIAAAggggAACCCCQJQIEMllyoTnNugVCGqBcM7avPP7SErl6TKmMHtxFgxMLVWLuJxbUECUSFf0/sWqZKn0S02V/fGaehisiF4/oIRGdZ62VojrDimKiWiljaYyFMhrFuPUIY+q+BixBAAEEEEAAAQQQQAABBLJNIN6gIttOm/NFIFXgygv6SquWeVopszoljAkmhTHRSCQRxpRt3i0r1++U8cN6SqtmOaL5jAtlohELcaIuwIlqtYw994Idb3/0K5PqzisEEEAAAQQQQAABBBBAIFsFCGSy9cpz3gkBC0n8KpmN2/fK7CUbXYhiYYxVvlhljIUxEU1drDLGepSZtuAd1/RowvndXRgTjXnBS8QCGRfKaFWNrWtNmKypkxuRqe4+aBIHwxMEEEAAAQQQQAABBBBAAIGsECCQyYrLzEmeSsBCk8tHlboqmRdmrxFrphTVJEYLXBJhjL2OaBxTtnG3lK3fJRPO6yattTrGmjFZhYwFNVYRY02avPfGQxndVs3KGHvNhAACCCCAAAIIIIAAAgggkL0CBDLZe+058xoCNkLSVdp0yapk5i/dpCGLVcRYhUw8nNECFwtoXlu0Ll4d08NtIRBfzw9lrIrGKmusqZILXlx1jF8lE59XY9+8RAABBBBAAAEEEEAAAQQQyC4BApnsut6c7UkELDy5bGQfadWimbwwe62GKV7HvlbMok9ds6PVm3bLKq2OuUirYwp0ZCWbYvEhrZMrZaz+xV7bNrVAxr3XrcwvBBBAAAEEEEAAAQQQQAABBFSAQIaPAQJJAtaXzBVj+sim8n0yf8UWb4lVwOh/Nk1/e71XHTOshzZrCibCGLcwHszYcwtxvIl+Y3wJHhFAAAEEEEAAAQQQQAABBKoFCGSqLXiGgBO4fLhXJfPS3LUJER24Wqw6xvqOGa8d+Ra2bO6CmYCGMomfpEAm8cZ4kFP9mmcIIIAAAggggAACCCCAAAIIUCHDZwCBhEBAAxX7CWqVzJUX9HZVMgtWbdXARedrxcvr8b5jLhneU3RWyk9AV7A8xs3X8Mae+9uLuuf2unpeYqc8QQABBBBAAAEEEEAAAQQQyEoBKmSy8rJz0jUFvPDEC1UsOJloIy5pXzKvzFunIYtWx2zd41XHDOsurVvkuYDGQhr7sckqaPRt3mtd397jKmdsY/Egxq0Y/2X7Y0IAAQQQQAABBBBAAAEEEMheAQKZ7L32nHlcoGY4Yq/D+pNcJTNtgTey0qXDeyVCGB/QD2bcozZhclUy+kufelUyEauY8X789/CIAAIIIIAAAggggAACCCCQ3QIEMtl9/Tn7GgJe0yMLT1KrZFau2ykXD+sprfPzUt5hoy/5kxe6aLMlDWP86pioC2a87fnb9tfnEQEEEEAAAQQQQAABBBBAIHsFCGSy99pz5kkCfgWLH6rYYygsiSoZW/XSkb0S73DDYMfDmEQoY1Uwuoa9t7o6Jl4lYwlPfLLlTAgggAACCCCAAAIIIIAAAtktQCCT3defs69FwK9kCWpvvFfE+5K5dGRvrY7JdWtbABPVvmP8H+tGxg9lXKBjIy/pvJrVMbXsilkIIIAAAggggAACCCCAAAJZKqA1AEwIIOAL+NUrVsRiz3cfPiL5eWEJWzMkV9kS04Gs9T+XwsR79LUAJl704r1P32slMhF91BGb/PfZo/fc3xuPCCCAAAIIIIAAAggggAAC2SoQOHh8b/yuMlsJOG8EqgVimrR4PwGZs3yTPPTsQjly9LhbYXDvYrl14iBp0TxXYtGodu7rfXViGrSEQtaZb1BywkFt6qQ/+jqmZTP26FfcEMhUO/MMAQQQQAABBBBAAAEEEMh2ASpksv0TwPnXKvD4y4vlhVmrpFWr5nLFFedJ+Y79svjt9bJ++3659eL+MrB7e62TsUmHyna/3YvELy2OkVC8bIYgJsHCEwQQQAABBBBAAAEEEEAAgbgAFTJ8FBBIEtiiwcuDUxdK2Yad0qNnsVw4tq/k5Hi55ebNu+Wtt1bJ4cMVcsnwnnL1qN7undY6SUthJEefhLU6JpwT0tdaMROvkLHlflMl/zFplzxFAAEEEEAAAQQQQAABBBDIQgECmSy86Jxy7QLTF66Xv02ZL9FIVEZpZ74DB3Y5YcWKikqZ9VaZbNTApk+XIrnhov7SriDfBTHBcEj7mrFARvuc0WDGb7LkhsEOaCUNfcic4MkMBBBAAAEEEEAAAQQQQCBbBQhksvXKc94pApOmLJBp89ZKYVFLGTumr3To0Dplec0XS5ZulAXz12r1TEhuHDdARvTrKEENYXKsUkbnWT8yViUTEq2UcR0CVwcyVMnU1OQ1AggggAACCCCAAAIIIJB9AgQy2XfNOeMkgbVb9riqmE3b9klpaYmMHdsv0bwoabVan27fvs81Ydq//7CMGdxVg5l+EtQwxg9lwjrCUkyrZkLadKlmKGMbJJiplZWZCCCAAAIIIIAAAggggEBWCBDIZMVl5iRrE3hp9mr5+3OLRItYZOwF/aRv3061rXbSeVVVEW3CtEreWbtduha3lpsvGSid2xd4oYz1J2NNl+L9yQS1OVNyMGMbJpQ5KS8LEUAAAQQQQAABBBBAAIEmK0Ag02QvLSdWl8Cx4xGZNHWBvKmjJrXX8GTMmH7Spk3LulY/rfkrV26R2bNXWcIiN48fIGOGdElUyvjDYEej/jDYmgFZR8A6+YGM/+jN5TcCCCCAAAIIIIAAAggggEBTFyCQaepXmPNLEVi5foc8MHmBlO8+KAMGdJHRo0tTlr+bF7t2HXDVMnt02yP7d5ZbJw6Q3LB18Kud/WpTJquOsXIce0yulPHDGP/x3RwD70UAAQQQQAABBBBAAAEEEMgMAQKZzLhOHOVZEJgyY6X885UlbhjrMdpxb69exWdhqyduwpowrSrbIh206uZ9lw6SHp2KvNGXLJixfmVqacJkW7FAhlDmRE/mIIAAAggggAACCCCAAAJNUYBApileVc4pReDA4Qp5UJsozVu+RYpLiuRCbaJUUNA8ZZ2z/WLNmm2uWsaG0L5OO/u9eFgPydF2Sv4ITCENZawJk18tQxOms30F2B4CCCCAAAIIIIAAAgggkN4CBDLpfX04uncpsLBsmzz47ALZu/+IDBnSXYYP7/Uut3j6b9+377ALZXaU75Pz+hRrE6ZBkt881/UtE7LRl1y1jPYrE0vt7NevkvEfT3+PrIkAAggggAACCCCAAAIIIJApAgQymXKlOM56Czz16lJ5ZvoKaZ6fK2N0FKVu3drVextn4w1z562R5cs2SWFBvtyiHf7279VeQxkbgYkmTGfDl20ggAACCCCAAAIIIIAAApkoQCCTiVeNYz6pwC6thnlg8jxZtqZcunZtJ2PG9nOVKSd90zleuF47E35L+5Y5dqxSrhzdSy4f1cdVytiw2F6Hvzo8dqy6CVMgEEvpU4ZqmXN8gdg8AggggAACCCCAAAIIINDAAgQyDQzO7s6twOxlm2XSlPly5OhxGTaslwwd2v3c7rAeWz90qEKbMJXJ1i17ZECPdnLLJQOkqKDFSZowWSe/XjBjuyGUqQc2qyKAAAIIIIAAAggggAACaS5AIJPmF4jDO32Bx15YLM/PKpNWrZqLjaLUqVOb039zA665cNE6Wfz2esnPz5Nbx/eXIX1LvCZMrhmTVsokjcKkAy9px7/ewVkgQyjTgBeKXSGAAAIIIIAAAggggAAC51CAQOYc4rLphhHYuvOAVsUskLINO6VHz2IZO7av5OaEG2bnZ7iXzZt3u2qZI4ePuRGYrruwb6IJU0ibMYVCIZownaEtb0MAAQQQQAABBBBAAAEEMkGAQCYTrhLHWKfA9IXr5W/aRMmGlx41qlQGDuxS57rptqCiotKFMhs1SOrTpUhuvWSQtG/TUsJaEhPWQMkbhUnDmXjfMl6FDE2Y0u06cjwIIIAAAggggAACCCCAwJkIEMiciRrvSQsBq4qZNm+tFBa1lLHaRKlDh9ZpcVz1PYglSzfKgvlrJScnJLdMGCQjBnZyoUyOVcroj9CEqb6krI8AAggggAACCCCAAAIIpL0AgUzaXyIOsKbAWu0U16piNm3bJ6WlJdpEqV/G962yffs+HYWpTPbrCFEXDukmN07o71XK2NDYOTRhqvkZ4DUCCCCAAAIIIIAAAgggkOkCBDKZfgWz7Phfmr1a/v7cIu3pVmTsBf2kb99OTUagqiqiTZhWyTtrt0vX4tZy68SB0rlDgeQEw25obL8JUzBqHf0G9YdRmJrMxedEEEAAAQQQQAABBBBAIOsECGSy7pJn5gkfOx6RSVMXyJs6OlH79gU6ilI/aaP9rTTFacXKzTJHgyct+5Gbxw+QMUO7ug5//SZMIW3CFI0GtI+ZoK2SMgqTeTASU1P8VHBOCCCAAAIIIIAAAggg0NQECGSa2hVtguezcv0OeWDyAinffVAGDOgio0eXNsGzTD2lXbsOyKxZq2TPnoMyakBnueWSAZIb1koZ14Qp5KpjrEzIqmSSK2X8MMZ/TN0qrxBAAAEEEEAAAQQQQAABBNJFgEAmXa4Ex1GrwJQZK+WfryzRDm/DWhXTV3r1Kq51vaY605owrSrbIh20Guh9lw6SHp2KqvuWCQUkltThrx/MmIU3IpOWzzAhgAACCCCAAAIIIIAAAgikpQCBTFpeFg7qwOEKeVCbKM1bvkWKS4rkQm2iVFDQPCth1qzZ5vqWsaG9rxvXTy4e1kP7lQm6UZlsFCa/CZNfLaOL3ORXyfiPWYnHSSOAAAIIIIAAAggggAACaSpAIJOmFyabD2th2TZ58NkFsldHHBoypLsMH94rmzncue/bd9iFMjvK98l5fYq1w99Bkt881/UtE9JmTF6Hv9qvTCy1s18/jPEfsx4SAAQQQAABBBBAAAEEEEAgTQQIZNLkQnAYnsBTry6VZ6avkOb5uTJGR1Hq1q0dNEkCc+etkeXLNklhQb7coh3+9u/VXkOZoNe3DE2YkqR4igACCCCAAAIIIIAAAgiktwCBTHpfn6w5ul1aDfPA5HmybE25dO3azvUXk5+flzXnX58TXa+dHL+lfcscO1YpV47uJZeP6uMqZcLafCmcYx3+BiUW8zr79fuVsQoZv0rGf6zPPlkXAQQQQAABBBBAAAEEEEDg7AoQyJxdT7Z2BgKzl22WSVPmy5Gjx2XYsF4ydGj3M9hKdr3l0KEKbcJUJlu37JEBPdq5UZiKClqcpAmTBTIxQpns+phwtggggAACCCCAAAIIIJDGAgQyaXxxsuHQHnthsTw/q0xatWquVTH9pJOOIsR0+gILF62TxW+vF6smunV8fxnSt8RrwuSaMWmlTNIoTFoko9Uz3raTK2ZOf2+siQACCCCAAAIIIIAAAgggcLYECGTOliTbqZfA1p0HtCpmgZRt2Cm9ehbLBWP7Sq4Obc1Uf4HNm3e7apkjh4+5EZiuu7BvogmTNwpTiCZM9WflHQgggAACCCCAAAIIIIDAORUgkDmnvGy8NoHpC9fL37SJkg3jPEr7Pxk4sGttqzGvHgIVFZUulNmoAVefLkVy6yWDpH2blhLWkpiwBl3eKEw6RHa8bxmvQoYmTPUgZlUEEEAAAQQQQAABBBBA4KwKEMicVU42VptALBZLzH5w6kKZNm+tFBa1lLFj+kqHDq0Ty3jy7gWWLN0oC+avlRzt3PeWCYNkxMBOLpTJ0Q5/rVpGTtKEyd87nf76EjwigAACCCCAAAIIIIAAAudOgEDm3NlmxZaTw5aTnfAa7Xz2wakLZNO2fVJaWiJjx/ZLdDB7svc1tWVVlVWuYuVcntf27ft0FKYy2a8jV104pJvcOKG/VykTDum+NZgJhaSqMio5uWHtU8Ybfck6/LXpdMKY01nnXJ4f226aAqf7b0nTPPuGOyu+vw1nzZ4QQAABBBBAAIFTCRDInEqI5U5gzeotcrjiqHueVPCifZNUV78kUw3o11Nyc70eZF+Zu1b+/twi7VFWZOwF/aRv307Jq76r5/t275d9u/ed9jbadWwnLXU0otqmx//ypOQ1byY3fPC6xOK1K9fJy0+/Jrd9/EZp077Ine+BfQcTy+2JDTPdqnXLlHm1vZjy2PPy8pTp8vX/vkdKunasbZXa5ynxoYOHZef2XbJhzSbZsHqD7jQg7/vEzVJxpKLW91RVRWS+dvhbXn5Quha3llsnDpTOHQokWhmTu+75Xynt21l+8J2PS1CbMNkNmh/MLC97R+791h/l6/d+UC4eOyRl27XdyNU2L+VNvEDgFALJ/4YkPz/F21h8BgLJ39fk52ewKd6CAAIIIIAAAgggcBYE6EX1LCBmwyb++1ePyrwFq077VF988icaUrSSh59fKG++vUHaty+QdQsWyO9eeOm0t1FzxZ9Puk+C2uQmeZo7Y75M/efLybNO+vwjd79fho0ZesI6lccr5c3X5suQEQNSlh06cFhWLFktx48dd/M3rt0kv/j+H1LWaduuSL7zy3tT5tX2YtSE4S6QmfXqHLn5I++tbZWUeW+8NEtmvvSWbNu6M2V+Saf2Ujqot7z+/Ex5/qlXUpbVfHHXt/9D5sxeLb/4x1ty8/gBMmZoV+nVu6O88Op8+cJdN0u79oUS0eqYWMQLZubMWyXbdu6Ttq0LXEfAItGam6z1NTd3tbIwsxaB7/2p9u9rHdluLVtg1qkEepQUyoevHZ6ymvcdPTFA57ubwsQLBBBAAAEEEECgQQUIZBqUO7N3Vtq9RH7xk//Qk9AbeHf35IUj9ty/mXpGA4S/TnpWyjbukqlvzZbyPYdkwIAuMnp0qczJj0n30m61IpRv3SFL5q8QCzeGjT0xMAlrcxurRKlruve+u7W6Ja+uxbJ9c7n85RcP17n8nbL1btnIccPc45oV78jbby2Rrfo+m1741yvSsmULKR3cx72++ubLpFiDkacfeVbaFbd18+zXQa2e+fFXf554XduT6Wo0Z8bC2hZJ995d5bPf/Lhb1qJlvnTqViJDRw2WvXv263sWyN3/+UnppNU1R7UyJhKJSPmmclk4d6nc8ambpUUrr/KnUptF/e3Xj0rnbsUyoH8Xad+uQGbNWiVPTV8uG3fsl1uvnyAvv75Inpo8Qz525zUacgUkprZR/Xlj9hK37156raNRu3nTsbLjkw2b7U/eTdyJYQ03d74Qj3UJbNi6V9q0bVXXYua/S4E9uw9K946FUlXlfT/te+uHMVYJZ5P9U2r/btt8//Fd7pa3I4AAAggggAACCJyBAIHMGaBl61u2lu+V6bOWaBzj/Y96F8rEw5hYMCb2YbKmTTb94V9zpIUGGOPHD5RevYrdvNGXjHSPNX/tKt8tv4xXnXz6ax/RoKNDzVVO+XrF22WSl5db53p7tGnTyaal85e7xQPO7yeHtXnQnh17xUKZgwePuPmrl6+TVq3ypXtfL1Dqp8FMt95dZNJvHpPLrh2f2HRUPSoqjsmAIaXSvU/9Ro966/V5GrR4zcJsg63btJbtW8vlxg+9Rza+s9kFMrm5OTL9xVmuMuZn/+8Hct37r3KBzFYNZm6802tqNeUfL7jjueqmy91jOw1kco7vk4Uvvao/In92c0X+8vDz7sde3vie8fKFT98gCxatcUvHXX1PfK3qh3vuukXuvP0ydxPn3+RZEJfc/ww3d9VePKtboK0GMhdqP1JMZ19g0qRpXpgai9iX04XlFrxoEVyiEs6CVr63Z9+eLSKAAAIIIIAAAvUVIJCpr1gWr3+4okIeevRFJ6A1MSdIRPUPsgfiAYaNnjTx0vOloKD5Ceslz1ikFRmP/fkpF2K01AqPNlohM+n//i6F7Qrl6lsul7xmdVe9JG/njVdmJ7884XlVpd6c1DFZc6QZL8+WCVeNlbB2ePvDr/1SLHD5+s++JG/PWSoP/OoRV5nSsUuxrF+1IbGVTWs3u+d9h5Ym5vlPBg8fIOOuGOO/PK3Hdas2pgQybTu0kS0by2WuVsYUd64Oqd5+a7EMGzVI++jJcdU5V904UV749zTXWW9A/wL+8uTXXdOrISMHJvbbq18PufqmS+Xt2cu0CVS5lPTsJf26tpFu2r9MRP9cPrh/d5k5d5lb/7Lx50tJx/YueHlr/jJZvXaLfOC2y3SdLu4mLmKRnGvi5P3l3furu4V0/MU9Ac6TWgVciFvrEmaeTQELho8fj1ge477HAf2OW1WM/bImiloOp0+976ztl8q2s6nPthBAAAEEEEAAgdMXIJA5fausXdO/iRqoN+0P/fGb7q+vkUBUb8q9pksRfVyytlwee3mxrF62SraUlcklFw86aRize8ceefbxF2W+hgu9tRlTxbFjsn/vIVc+n6/BzLTnZsrcNxbJ7Z+4SZKDhbouwjd++iVpdpImS1vWb5X7v/2bWt9uoYtNF181TpYtXOk60B00rH+t6ybPXLF4lRS2KaizomfHtp06mlHdQVDytmrrFLh1UYEMu2CwVsS8KbfG+5zZsW2X61PmSg1X/OmaW67QCpqt8srU6W5Wh45t5cOfe3/KTVZfDZjsJ6qd/e7ds0eGjhsuO8q1aqhtB7lV+5ZplhPWzn7/x73/y/fcLq3ym7sbuCOHDsuWzbvk7k/e4LZnzSDsJs9+RfVHPwZucjd7rnKKUMYT4TcCjScQ0XS8QvvFckGMfl+DAR1dTQOYkP5/fOuGKxLWmfrd9Trz9o6T6rbGu17sGQEEEEAAAQSyV4BAJnuvfb3PfPnKDXLXl7z+UWI6Oo8LavSPrbv2aRMfrYwJ6//Sr9IqmpNNFsTM0IDhteffdKvdcMc1Lgh56DePukAmV5sd2YhG518wRP7+xyfkr798WEaOO1/ep/NsWV3Tn3/2wEmHkz565Fitbz1y6Ii89PQ0aaaVOK8885os1n5sLGSxpkuP/+UpsaZANk194iUpatdahl9Q3b/NPA2MhmqlSvLUPL+ZhifXS89+3eV3//1X2bfnQPLiOp+Pv+wCueaWy/Sv2pUp61xyzUXStv1y7Q/CC3ZC2peOrdv/vH5y9PBRsQqjWdPmysZ1XlMxO48d23fLr3/4Jxl76Sg5XzswtmPyJ7tR09swuebq4TJ33hpZsmyTbNpxUNrGjshGHcXJTZGoHKuqcoHMOj3/7j1KpFKDJffXdnu33tgFtZIoqH+Ftxu+6r+427u9yin+4u4k+YVAowjE9Dt8vML7DlvfWyHtJyoSDkpYv7Mx/TckrElqROdZpUxAwxq/uq1RDpadIoAAAggggAACWSxAIJPFF/90Tt2vIdDbmgAAQABJREFUjrni4uHSq3NHF8LobbjE9Mb+kHYeu2bTTjmszVfatW8rHYoLJUf/R79N1pwmedqwZqO8qMNHWwWKTaPHD5fL33uxdChpn7xa4rmNIvSt+78s/3zgaZnzxkLZooHDR7/4wROqUbppJ7jjLh2deN/JnnTt1VnDjaKUVSzosADDgowF2omv9f/yvo/doFVAUdm8fpscOOANcb11wzap0ABE4oHM7p17ZPeuvdKtV5eU7VlodNEVY928D951m9joTcnTg7/9hxalFMp1t12VPFsK2xZqB74dU+bNeX2+vKEdANu0UI/Npuf++ZIeazP5y/1/k0o9dgtirCPkW7SfmR59u0uOVrps1KGxpz07Q/7x//4t87S50+e/9xn3XvtVcfSYO8eff/u3bl5FxXHZWVAgM9aud6/t16x5ZTJu9AANXoKyactOGXVeqe6ryoUv1u9EyG7itMNfC+BioZgGM9ohcDyI4S/uCUae1BCwf0v8f09qLOLlWRawSrZjNjKcVcVo8BIOhiVHs9hYjpW3eU2UwpqwWtNTuyYWttrkPY+/8GbxGwEEEEAAAQQQQOAcChDInEPcTN/0Xq16ObD7gP6PdM0htE+U0cMG6sg+1mQlJm+v3SaT31gluW2L5ZKLukq/fp1STvfggUNiP/ktmkvLgpbufRbGWD8tl1x9kbSpEYykvDn+wsKNOz5zm3TV0OPJByfLpne2uEDGQo69u/e5tYq0r5mLrxlX29vrnGdNicLhsDuGgsJW8v1ffV0Ki1rLH7XKZtP6rTJSwyILlL583+cSfch86qsfluQ+ZNq2b+OaWs3V0MQfmanmDjvoKEwH9x+UEh0VKaQVJTYVFLaUAh1SeuBpNInKyQ1rgFTo3rcjXr3SurBAWmrnwkE9/onXXSQVWvnTe0BPvSYB+eNPHxALir71P1+R0RePlNXL157QjMsCGQufOnT2grB5MxfJmP495Lg2TWpV0kn2r18v0zQAG3F+qezZf0B26uhOHTq0kyrtjyIYjLqqmah24Kz1Me64wvroQhoNZqz4xo7Dv+mmSsYR8QuBBheoikbkqAYy9j0Na0geybHvZ1SsRy7r3DekI7Rpjqpf2JD7950gpsEvETtEAAEEEEAAAQScAIEMH4Q6BZ5+eob84vdP1rncX7Bipv/sxMchIwbKJ750p1insvfrqEA5NSpnkt8RzvFCi+R59nz8lWNd0yDrU8WmrRu3yS/iozK5GWf465cP/5d7Z6GOZmSd9a5Yslru+PQtKdU9lZVehUtYK09qTte9/2r51Y/+5EZj6jOgV83FMm3qDG2aNVO+939fkyKtgKnvNGzseToE+HmuGdMPv/AzLW85JhdMHJkIgCp06OsNazfJqqXeyEiHLUDbd0jK9Dz8yc4teTpyuEJ69u0hd372fW72Um2i1Vz73vnmTz8vi95eL6+/UCkztRpnnPYxs33jVrfOoP7d5HhEmz9U6V/a9ebO+osJWErnk2gIY6FMTC+f3dhZczb/L+7J++Y5Agg0jIBrsnRUq9q0r5iwJi+5NoS9pjGhKg1QrfmSNWPSWQH95QWoWu3mKmWojmmYK8ReEEAAAQQQQAABT8C/pcIDgRMELr94mPTuU+LmW/XD3IWrZW35YSnfc1g6diyUin17ZP6st12IUVuntPZGGznJnyyM2bNzr6xduc6flXjs3LOzdO7RyY0olJgZf2KVKV11uT9ZM6e77v2I/1J2aUe3LbQKp3kLr6+UbdrvyTOPPS+XXTdB+gzsmVgv+Yk1x/GniP61+Im//Vu69egsJbov62y4oKiVrFi4Svbs2uNWe+Kv/9IwIkf6DK4OXixkKu3fU5sHvSE1Axm7ubHqE+tgt2YYYx3zvvTvV/3dJx6t093ufbolXvtP5uhw2Id0KG6bHv79E67CZbAGXTt1uPDfa1VMzSl53ie0mdeQkdX93GzbvE07Ch6S8hazsGqWYef3lDaFLeTXZavkb0+8Ksf27pVe3TtKz+4lEtEKmYg2f4hq8BLWz4L1QxPTfij0na75moUwOiNlu7xAAIHGEYhoAFNpIWpEmxPq9zWQpxVulQGptH5kIiHtOiaq82OihTO60G+q1DjHyl4RQAABBBBAAIFsFiCQyearf4pz79ylvXTq3M795fThf8+Shx55QTr37iPX3X6lDBzYRV6dMt0FMn0H9dE+UFIrMera9JYNW7Wz3n/WtbjW+ZddNz4lkGmuzaAGaKe2NlknuJN+/Zj01JGa7vr6x9w8ayZlUxftjNZfz82o49eTD/zbDS9ti//3u79zgcf177/KBiFxIxrZ/KCGMS6HsBdJk3X++6IOOW3NAZJDnk3at4uFKNYhcc3J+p6Z+s+Xa87W5kXNTghk9u89IFP+8aILizau3yIl2gzqL794WD52zx06tPVA+ebPvpjYzuM6fPi+vQfl01+rDqtaa1MsfzIr62S4Q6fqIbStzxwbfcWfuvfoIJdeO07P6VU3q8/gAbJz/1EpatnMVcdYYYxo90B6P6c/GtC4v7B7N3T2j4n31/bq7fFXd1+WRwQaTiBmgYx2xG0tJXO0sq3K+pKx/p90RDz7tyqmTZX0yxr/vsZTmYY7PPaEAAIIIIAAAgggEBcgkOGjcEqBh55dJA8+8pJb77pbLnZhTPKb/v77x7WZT27yLFdJMvHa8Snzkl/c+dnbpEct1SDJ6xw/Vik/+9avkmed8HzRrMWuk9qaox3Zii9Pfk07tV2U8p7mrZonmuv4C8q141oLOs7TypH+Q0rFOgoOaoe14y4bI9//wk+kpHOx3BUPOaxpU/JklTsWaljlT7vitolFyxascM9rduprMwfoPu76mhceJd5gT6pzDDfb3vvXnz8kHTt3kMuun6AjTv1dbtNhwKdq9c+jf3pSBv9xQEonx7naN0wofDhlXvL2y7fscC/ba9VO8hSs0Rxr5IXnJQKZ481byf97cbFcNbKXDO7Wzo3SYn1QVGk1jKus0Xu5qLuxs75jkrfK80wTOK6ddOfW+Cx4AVvdZ1LffoJOtb2698SS+gjYd7Ky0ouQXRND7YhboxhXFWPXwFowcS3qI8q6CCCAAAIIIIDAuREgkDk3rhm/Vfsf62u37pVJU+bL2vXlsnv7NndOsSoduaPGZP2rBHOqmwDZ4nBSk6Aaq7uXRW0KUwKM2tapLcyoud7rL7zhZllHvTWnkI4scsJxxTvXTV73M9/8RErfNlEb9tlGH9q+01WUXPHeS5JXd88rjlZoB7p7Xf8xNsPv38ae21DaM1+ZY09l5qtzxJoinTd6sHud+FUjfEnMT3ryrwefcaMofev+L+mx7HZLwjpk7Ye1Omb75nL5+Xd+I7t37Eu8w4Ihm77xyR8k5lmY88UffNa9Xvl2mXts37Gde4zEh9LO1Q6C/alKb8qf0NGZ/Cnv2D7JL+oiU99aLVv3HJIrz+8hOdqpbzRkN3daFeT+2u515Ovd4HnBjH+zV98bdn+/PDa8wE8nvS6ttcPoUQM7yTDtpDsvHs7417LmEdm1TV7Gta4WMhf7flloaeFuQ0+2/0BMh7bW9DSk31UbFc0Fp25UJS+M0VWYEEAAAQQQQAABBBpZoPpOrJEPhN2nl8DLc9bI35+z6pKYHN620R1cD60ceeh3j8vnv/0p19+Lf8S3f/Lm026y5L/nbDxak6ktG8vdaEfTnpvpRjMaPWFEYtM2CpF1inuqye9o2EKdRdqh7fQXZ8k1t1ymIcgu99b+8eZRydtZu2Kd/PH+SW7WhCvGpAQ6Tz00xTVXuuNTt8jC2UvlgV89Ird99L0yduLpDc/t7+dYRaXc9MHr3NDgfiBjyyz8sZ9h7wxN9C1j8+fNfFssUBlzSbVBs3yv+ZYtXzRniXTuVpwIj47FA5zc5l51kwVgj2i102rt48dGw9q9Y69uc4Hc8IFiade7oyxctU37DzooV4/qLZ3aFbgmEGG70bNmSxbMWB8y+i+K3QzSsa+JZ960qGyrLFixWau1AjJcQ5mRAzvLsL4lWjmTOoy91kWlnNzJwhkXDmRZL89li1fLH3Ro+qtvvsz9pGA1xAurgLH9xL+L/ndSs1SbVT3Z8upXPEMAAQQQQAABBBBoYAECmQYGT/fdHdPOWydNXSBv6og77dsXyO4Na2X96vXy3tuvkvFXXSi//uGf5P5v/0Yuv/5irR7Zf8an8/Lk6bJAOwQ+2RTToVvrmubNXOg67h00tJ984qsfkn9rCPKINuNZoUNrW+fApzsdPXxUJj/6rCyevzIRbgwbNdhVubz2/Juun5a2tQzRbVUvg3Uo8FYajCQvXzp/uevM14KPkeOHyZBRg+SRPz6hnQY/I29o0GOjIOW3yHdhjw25nafNjGpO/g3ste+7UmxY77qmy2+YmLLIml7ZsNc33vmelPn2wkZisvDKmor5k43QZFOLlvlifd489NvHZIdW4ozRUOsm3YYFNL/50Z/l6UefcwHN8BFDZMH8dfLX596W6y/o427Wq6r0xlwrAKwTUetXxgU0eofn3aBrQJN0u0cFheNO61+d27eSay/qL/NXbtFgRsMZfbRwxipmRvT3Kme8iqrqkbRshK3kqWY4Y8u8QMDWa/hqkeRja6jn6RJzWPhi9vY99K5BQwmwHwQQQAABBBBAAIHTESCQOR2lLFln5fod8sDkBVK++6AMGNBFR+U4JC/qSEEjxgyVS99zsevj5HPf/qQ888hz2j/L6wmVn3z9l2LNlvJ1lKNmzbyRjiLRKr2hr5KLrxon47SCpOa0YnGZ6zy35vzTeb1LRxey0YbatiuSO+++3TULuOnD10t7HX3pyQcny8K5y9xmJv32H/p6iuTl5Uqz/FzNDcIaHHjHZf3E+EM/v/nafBmmwclQ7UNmoHbSa33X/Pgr/yuFbQrkA5+6udZDsqqaHn27pyyzpk6P/eVfbt4HP+MdV/P8Zjrs94fk7TlLZY7uZ9vWnbJeg5Aff/XnKe9tpsGM3+ToSm0iZWFM2w5tUtZ5Ny+mPPaCG/HqfD1Ha5K06Z0tYp0E234tFPrf7/zWbd7+on+lBj12U52rbtZB8EO/eUymvzBL1q54R73vlHkaykyZvUY262hbN17UV5tEaCCjnYYGXRMN3Yy+tuZMdvMddB0Ga/MJ3Z4fNL2b8+C9517ggkFdZJR+/yveG5G3V2ooo1UzC/VxYTycOV8rZpLDGbu2+n9uqiucsXWYGlbA+77Vsc+UMpk61mE2AggggAACCCCAwDkXIJA558SZsYMpM1bKP19ZIjkarIwfP1B69SqWiqPH3ChB79OOZP0OZ+3m/baP3+gCg22btssebdZiIwFZUxkbxSdSVaXNV7T/BLsh1z4MeujoR8mTvd860P3Q3e+XTt28IbWTlyc/t23+73/+WoOR6pGCbLl1nmtNai7STnct8LDJbvjGXzlWm+uMlK0bt7lOdvfu2ueOyYKhyqpKiWk1h+tHQStvSnVkKJtsxKaf/uX7GkpUd0psQcQl14zTEZr6Sr5WjyRP1nGuDY+dq4FMzcn6irjqxok6ZHaBnlvHlMXWh4z9mNHuHXtkr/Y/YxVGx44dlyqdZ8fohRjiQqGUN+sL6zvGhhDP0WOra2pR0EKiOoR3bdMVely2v7D2F2PVPXazNmTkABk0fKB07NJBRmjTrvEanNUMmVrqcOJ3fePj8sozr7thtks6tZXr9WfWW6tkUdkW2bJrv9w8YYD07tRG+6xwxRTWakmbMWklRI1QJvm4uEFP1mj85/Z58Cf31dWXOfqlH9Gvswwf0Em/11FZqNd7Ydl2eXvVdr32W93FPt1wxrbv/fh7aZxHC01tpLdt2geThao9S7uf0NzSAt+D+w+5SjurEtuweqPYvyUduxRL195dTvzuq9UO7W9q68bt7t+jmv/mNc6ZVu+1+spWz+MZAggggAACCCCAQHoIBA4e38v/XkuPa9EoR3HgcIU8qE2U5i3fIsUlRXLhmH5SUFDd70ijHBQ7zQiBNWu2yaxZq1yQdM3YUpmoHf5acJSTE9KKqZCrXLK+ZKxKxn6sesKrpqiuliCYafxL7Ycx9/31VTmmIej3PnmFu6Y6MI82Q9M+gjSh8cIU77pV6uvFq7fJIg1mLJyJWNNCDURPFs74Z2m5z6d+/KSU9u0kF471hq73l53rx32792u116OyVgOW5OlC7XPplo/eqCOU6VDQOj35wNMy45XZcsMd18gLT72aqFyzZd10VLX/0E7Am8WD4CoNoB/945Myv0bzSws4bV5j9CEzadI0KS0plLF9OkggqN/H3JA0zw1LjobO+frTTH9ym4WlmQZSubpMdAjscNiq2ewy2ve0+vtp58yEAAIIIIAAAgggcO4EqJA5d7Zpv+WFZdvkwWcXyN79R2TIkO4yfHivtD9mDjB9BPr0KZF22rnvrLfK5LlZq2XLjv1y68TB0iKQqzfw2nJJ/3UJhQISsRs8vbv3mi/ZzZ6XAduNnx8GpM9ZZeeRuMAlfur2PKq9vwYi3sg8EX30Om32VtBLKsNLS2S4hipVum5yOFNX5Uxjq9qIR7/777+4PpIsLBk9YbgcPnhEXpnymliTxSo9xzvuujXlMJ/WppkWwFyhTfiOayXbvx6e6kY9s/6rLrpirFv3mb8/64IXq16zfrbyNKixvqJqBjQpG+YFAggggAACCCCAAAJxAQKZLP0oPPXqUnlm+gotsc+ViROHSLdu3lDIWcrBaZ+hQGFhC7nm6uEyd94aWbxsk2zc+ZbcMn6A9O/VXnL0Zj0W07++a5VMRP8QH9MheG0YYMtnvL/CU5x3huxn/W3JwVjUOmi2DE2vn4Ux1szHNfWLXy53/TRUs2sY1hUtmLGmTZXaP9Pi1eWJypma4cz5pR0lnNc4/y/nrWlzXRhjI8V96HO3J/z6Dy2VH37xfpkzY4G89wPXSEtt9udPtu49370rMWy1ne+Dv/uHbNtU7laxpprTX3rLPf/qj+9ONK0cPGKA/M83f+X6i/K3xSMCCCCAAAIIIIAAArUJNM7/Oq7tSJjXIAK79h2RB6bMk2VryqVr13YyZoz2k5J/4kg/DXIw7KTJCIwa2Ufaa7XMW1ot89ep86WgRZ601B9tABEPYPRU7U7eHvQ/pvQTKN99QNq1biExGxvZQhjtBioRxmhIkwht9DrG9Ed/6wp2WfVRX4e1E+dEOBPRcEb/jfGbNfnhzHlaWWOT9TPVkNPKpavd7kZdNMz14+TvO6zNdkoH9ZIl81fIO2XrZah27u1PF2mfStYvlD+VdC12T3dox9w2rV2xzj1ak6fkfq5CoZAbke5xbfrEhAACCCCAAAIIIIDAyQQIZE6mwzIETlfA7i/JGeKNkfSG25q9WKWF3c9qhYxN7rf+0lv7+GvAHEQa/dLLJgG9bpaXWAfRXifY+tqumX+5dCWvwsmus3fwdr1d3uY2END3ep+B+OLEGfrrJ2Y00JOtG7a7PT0x6Rmxn9qmw4eOpMy2ZkjJk3UCbJOZ2LR7x2732K5je/eY/OtsjpCWvF2eI4AAAggggAACCDQtAQKZpnU9T3k27Qrz5asfHC9PTVsqk6evlF36V/ExF/Rr0k2Wli5YIc/980X56D0flPYdvaZZdgNpTQ+sb4zaplaFraRAf+qa/q39SRyvOCY23LbdqM19Y4FYnxMfu+cO6T2gZ11va7LzrcnScm2y1KplntyoHfyWagfRIe1INFdHdbKOQ4M5QW3eos2XtOIgpB2I2g299Snj+pfRm/2ANmdiahyBWEgDBv2/n016XY5XaghjgUy8QsYqWSyMSQ7R/DDGr37yj/q46+xXR2DSZktL1mx3nQFbSjOkd0etnCnWx2L3ebjnF1u1s9mGvd6u42E90DETRuhw8kX+Iac8du3ZKeW138lvysykFxE1sunwwcNJc72nVdpnDRMCCCCAAAIIIIAAAqcSIJA5lVATXX7TJYOkR0lbeei5BTJt2pIm3anv0cNHZcvGcjc0t385K3U0mZ9961f+yxMer73lcrnypktPmG8z7AbstednuuGvc3K8v5rPeGGWHNL5NYe7rnUDTWjmvn2HXae+O8r3S69OhXLp4K7SXEdxqaislDy7z9fgy35yY2GJ5Vgnvt68oDbrcFUVZuGVVjgV/2a/CRGl9am4a2DZgbtO7sGFMRY2uGAmHsXYaFlulCy9ftbBTFCvmV02HeRe+42xEGa7e3RDt8dDmGGlxTK4V7HkxEcvsn34IUZDo5R0KdFh3w9IV+2kd5w2RUqeNqzZKHt0WOvkZkfJy+t63q5jW7do5ZJVcr32P5M8leuw2kwIIIAAAggggAACCJxKgEDmVEJNbLl/g2yndZ52stmj40R56PmFsmjJBtmx60DWDXt90wevleEXnp9ylb/zuf9KeV3zxSztINSmS6+f4Jpx2A3dxvVb3Igs+/bs1xu//TXf4l5bJU27Yu8mrtYVMmxm8rDXI/t2lKFd2mgvItqkQ6ssjrtz0VBGH+25BS0WXVXZL725d0UZemMf8No0eZmM3tzbRCjjGBrkl/17YB9i9xDfowtjdLZXGeOFNLbIq4gJuBBmmVbAWAizRKth/GGvh/bpKMkhjNum/nIjNGl4Y3tK3k98dw3yUDqwp6xYXCaL5y6VcZdrIBMv0Dmw76D8/icPuKGt7/vdf9brWHr06ebWt7B3V/nuxHe74kiFvPrsG/XaFisjgAACCCCAAAIIZKcAgUx2Xne9MbLKhYDkt8yVz9w4yg1b/LSOujRFO/y1jn576V+2M32ym60D+w7I7p173als179aR7RfjA6dOiRObdP6rdIiaWSVxII6nlRpZc1rz83Uv6YXyNCRXgegM+IjrWxct0V+qqOr1DX1Lu0mn//eZ+panFHzZ721SlaVbZFCbaI0tl+xdGjRXKqqoi5YceFLld64azoTDEYkYM9DEdGnbnmVVUxoBUYspk2XtLMRa7rkRTFKYGUX1a8yyiQjD9ZLTZIO3es/JhGi6IWxfyuq9HH5Wq2CWbtDlq4tTzRHGqpDn4/oXyxDe5d4lTC6rqusse3qj703qp3+2r81rnmgdU7TCNNFV46V6S++KWXL35E///xBOU+/u0e0cu7lya+7MOby6y9OGWHpdA7RwtUJV+l2tTrul9//g1x6zUU67HWeG/baquWYEEAAAQQQQAABBBA4lQCBzKmEmuzyoN4kaR8IegNst0iXDu8pndq1kideXSYzZiyXXVotM3p0aUaf/RsvzpIXn3ktcQ6TfvsP9/ze++6W4s4dxDrtXKqjq9hP8tSsWZ7k5HlNkZLn2/PXnnvDNU267aPvdSOw2F/G581c5Jov9R/SR17UG7xLrh7nmkbUfG/ykLo1l2XKa/tczJq1SvbsOSi9OxbK6N7ttSrGbuJjEtIsxYZJDgSjLmTRDmK8YZMDUddUJRII6nzt6Ff7Gona6DX6Ho1k3A28y2EMQecxNbyAsXvVMt410PxEjmloZpUwS97ZKUv10S3XC2WVMCP6l8h5+pin/QTZZMtc6FLj+tl2/DAmYOu4tRv+V65Wp33hu5+Rh3//uCxbuNL9+Edx2XXj5ZpbL/dfJqpnavZz41duWXMtf7KhsmMaRM54ZbY88/gLbrb9u/IRHVrb/r1JXtd/D48IIIAAAggggAACCPgCBDK+BI/Sq3Mb+fzNo+UprZR5e8VmF8qMGdNP2rRpmZE6Iy46X3poVcqqZWu0z5c35YY7rpHikvZaFZQv+7V65ks//I/EeRW1ae2CFutbxp/2aGVNm/bVHYCuW7VBpjz+olvcZ2AvdxP6jz8/5V7f/smb5Kg2VbBAxpYNHj7A30yTeVyxcrPMmb3a3VRf0KdY+rTXTo/tDrv6/rTJnGs2n8iC1dvkba2GseZIfggzSDvkHda7g4YxJdI8Twe41j6A3HDXGQRV1K5QPv/tT2vF3B4p37JD8jR4tT6fmmt1V/J0y0dvEPupOdnISb98OLU5Y1g7rb7lYzfI5TdOlK0bt0lh20Ip7qQhpTbFGzb2vJqb4DUCCCCAAAIIIIAAAikCBDIpHNn0wpqX2J20PupvazZiw93m5YTkpgn9pGNRvrww9x2ZPHWujNVRmPr2TR2BJBOkirVpkv34w9n2H1IqJV07ypMPPO3+op18Dnf/5yflGR0lyZodJU/f+7+vSZHeZNk2/vqLh5MXyZsvz5bVK9fJ5e+ZIJ17dJI12hzCTTWqBFLelIEvbMQYa6L0jt6kty1oJqM1jCmKVxDZTbndfFolQEwrYMJaJhPS1yF9HrLn+hO0kZXcjzeykvUbY5Uxfsew9tlLTEnVB4l5PDl3AvHPqrHbvwfbdx/Wjr4Xuco5C2HO1xBmYM8OkpujIYyuE9Tram9xzY/0OnqJXLwKppbPvX48vOBG13XvqWWdc3dytWxZz8GClbM9LHXrogKxHyYEEEAAAQQQQAABBOojQCBTH60mtK7dfLmbMO3fw57YTbIOTiyxUFTCVSEZPaCzdChqKc/PWaNNVMoS1TIpN88Z7NFPq1g++sU7xUZg+uGX7vfvK8WaL1x+g/61e8M2+fWP/5yY/9ifn3QVNNZ3jI3Wsrt8jzwx6RnXl0zN0ZimaYeei+YsTdHJy8uV2z5+Y8q8THixffs+vf4r5cCBo9K3c6GM6NrOfW7s2PXevDqM0YDFhTFaORHWz1JAh7YO60+ODnUdtOf6GLKqCu0/JqyfNwtoXAjoburdR1C36DVo8ZuGZIJPph+jl49omObRy2ALYfp0cKMj2TWy2f4yd676wrqBsaBF25ppCKf/fngL3IrWf0yi6ZP9u6LLtJWa9eOs/7bo9izDYUIAAQQQQAABBBBAAAEnQCCTZR8E/2bXv2mym2LtdtVVMli/HlGNZXK0axkbvrZbcYF8/Mrz5Ll5a3VI220ayhx0Hf526NA6I9VWLl4tT02aLEXaDOnQocOuoqXiaEXKuezZscfN37ltZ8r8I4eOurDGmiQ8+eBkydWhnS2cuf0TN0muhi3J09qy9VK4M/Wv5c21eUSmTUuWbpQF89dq0BKSC/uVSPeiFl4YYzfafmWMhng2MydsnyH97OhPUKuscnODkhfOkVCuPtdmHTk6z+ZbWGPBjTV5sSzG3c4nbuptu/4NfqZpZebx+v8OWOry5Q9cqNVNOhy5fveTh722i2ShjPUA48IZTVd0FfcZSG625JbFGVwU45XHuDTGXVVbgcubmR8UjhoBBBBAAAEEEEDgnAgQyJwT1szYqN1M2Q1wMKp3SXp3HNJPg7vx0nzBjw/sxuraUb2kpE0reXHBO/Lccwtk1KhSGTiwS0acpHW6u04DEpuefvQ5aduuSLr36SprjxyXfz881c23eTnaOWlr7Udm47qt7scW2HxrbmPTzR96j3TqXiJvxEdUatW6pXxVOwduWXBi/zqf/PKHMroPmYqKyv/P3nkA2FXV+f/32kx6Jr2SShICSSAJCQlBpIqCYkGBFdva1rWua/+rq7vq2tbusiq4ioW1IiAIUgSkJ4QECIQ00nvvM/Pa//s99503973MZF6SmcnMu9+T3Hd7OZ/z3p17vvdX4KK0zNat3Q4rqW42a+xQ64u4Ia4EXxXnuuIClkLQoyWMs4YpijFJq8F0AkwpxtRAlImnaCVDMYbfM1jQ8HtHMdAJMPgeIgAwS7hT7xboo50JwDrG5SCPWS3ahwJNjqZPrkBAgfLC9NeBSYzTVjCJbbCebmfNFS+qOVGGGxQ3K040t5uWiYAIiIAIiIAIiIAIiEDkCEiQiVyT8812U8cocEGKuzfijPdhsJCxNEY1iCdjKXSa49aAxTMRN2TYwB5271NrbMGCFbYd2XbmIj12TSHLSmfEeAtciv5eEFB4fVdBVJl3yRwnsrz62lcWLzmTydgXP/R1u+z1F9m7PvqW4vLwBGPElJfmxJjybbra/IYNO50Yc+hgg00+pZ+dNWIAvi9BLcpdlGIQVwIxJrCMSUB0CaxhkpaEhQynk3BRSsAyhpYzCU7jO5ZnMBKIgBRf4MSEg2NwhjaFE3U1aF34ep2FDCxeOGZ70KUokGMozmQhxVCwRXOF6shteQ+hxQx9kYrfj0LzFe8vWFGcZitjPc+hIgIiIAIiIAIiIAIiIAIiEBCQIBPhb0LQWWLnCh1jdK6zWUMHOpiPQZRJ18CZCeugyVgj1o9M9LXrLjrd7lsMV5blm5GtZK/NmTvJhg/v3ykpjhp/il0Cd6LGdNr+/tfHXfYjumLd8K1fomfY1MXMoeIH9h+0BxH75QWkxA2X6XOn2ezzZ4YXtTpNNyjGpikv3Xsgm0uh01q+rjPML1q82p59Zg1csJL2MqQ1HllXuYtSkm5KsHyhVQytjZyFTEGIcaINpinuMQUyRZgYhBl+t3wJd9z9Mo3bn0CTQBKkH6crkhNlsCIPEY2iTI4iDZcXNg63FdswGAqNiRmu99Z3bik3UBEBERABERABERABERABETiCgASZI5BEYwE7Tf5NdxxRN9kRC0QZRJGB+MI+FEWZjLNeKHSyYNnAztorpo+14QN7OWuZe+99xqZPH2fTpo3udODOPm+6u6YFDz9dvLYcOpVJWHJ4O4DnFi61boX4Ljt37DYOI0YNQbrrQGRiXJRjLb/6n983u8vXb/yCS7Xb7MqTuPDAgXpnFbNp4y4bOaCnzRgzyHoVLJ9oFcPvArPrVOqi5OPFpJwFDeLG0CoG07SmKH63cNBw/BGsPIkEontqti0L7wWBtZzzUnJBvhlRyrVbFm5L/Mmg/VjcvcGNA7czLigRYdxBCy5pbgfs413S6B6lIgIiIAIiIAIiIAIiIAIi4AhIkInwF6FclKH1AoUKWpEguiccltCRglVDDJmY0hjH00EmpgYoNdNGDbIR/XvZXQtW2aJFLxWyME20Hj189JnOCbamJgW3pLe6i7vv9geNgsy7P/ZW++FXbrRXvuFiW/H8KjsEa5lr33OV9ezV47gqcfa8s2z0uNIYO7QOSaVItHOVNWu2OTGmsSFjZ40ZYJOH9nMd7qCTHUppTdeVgssR3ZCcC1IzLkpOjPHrvYsSBJkElLy4s4rxQkzg9tK5aET9appEmSzjSzkBjUxwD8A9oWAg474fvHdwgiKOm+RmFO0KcYFisLYLbiPYjhoMBR2WgqgTzOhTBERABERABERABERABKJNQIJMtNsfnakmSxn2nGgtE0PHKob0tVl8O5I+8C96WOmgD4ZtAhemQRBt/uH80+2BJWtt/tLNhbgyk2zUqIGdmmo2k7W/3fGQ3fmH++xKxJIZc+ood70UGt76gWvsa5/8rl3/nzfYW99/rQ0dOeSY63LWOVO7RFDfBU+ttBeeX2+9utfYeaePsCF9urvONY2iaL1CEYn/uJBZlMiHgXmZLSlwSwpclGoowGAZ3ZW43k3TfQnfjxxixSTQCQ867gV3OPbgC8V17P2MxieFgLeUC04eCCwM9J2DgBZnjmtayqBdA8HWfR3c98S1ItqSbci44DHu47RczLivTXCscKW8qBNepmkREAEREAEREAEREAERiCoB/94yqvVXvUHAd4o55oC+l+tA06qBPSuXQQeZcmpTTF/MgK1JN82AvsluSbsI7kqvnTfJ0H+zBx54zp5GNqbOVA7uP+Quh53B9as32n/9v+87MebiK15mF1x+Xsml1iHT0gc/927bu/uAfe3T37N7b33AcnDZqKayZ89Bu+vup50YMxquZ6+cNtKG9g3EGLooUTxJ4EuQ4HcBwkqKqavR1owRk6xNwMUrad0oynRLWTdYHHXDmNNOmOF3AtvRwsrFi8GYwgy/U/77RZbh6Wpi2xXrwrZgCdokEM2cGIevvRNhXBsGAZkZlNl9P9i+GHh/cO2MsV/OcTBQ1OP3KRiCuDLuVPoQAREQAREQAREQAREQAREAAVnI6GvgCPhOGWeCeBLsoDGWDOPLuNfewZeFog1cmDKuk81OWNwaMUwZNcBOGdjT7n5qtT333FrbhixM586ZZH1gdXGyynK4H91/+0O27PmV7hL69uttLz67wnbv2mfv+pe32NSzT3fLywWXkWNG2Ke++mH7+fd+bS8tW2MXX/nyk1WFNj/vypWb4aK03IlM08cNttMG90Eb4zRsV28Vg2l0y49wUUpCmEkV0lgnKNIgT3oKbkuMs5Pk4AL38mBYxv2di1KpVUz4e9bmldMBj5sA24W/exYKKPzJ87fNZVwcrAqEG27DeQp2aGp8b5osYQLRxW8XCLzlFjjcX6XjCPjW6Lgz6kwiIAIiIAIiIAIiIAKVEpAgUympiGxX2mEudWHKoeOVTObQUUNnO521DEKisPPGoRGd7zpMXHXuJHvsxY328HPr7c93POVSY48bd+xuP22Bu65/H3etU2dOtmlnn2E9e/e0meee5bIt9e3Xp+kU6LEMHjrA+vTtXVzWu663/fNn323ZDOuLChYK3XYYBLiUU7AyDpGK6xinpjMWCjHLl220up61NmvCYBvo6oErZb/adawhsDl/JVjFOBcltHc8GWROSsWcAOOyKIFBDSyl6LpEISZF9yQOqL9zUcLY9dUdtqBTTh7NMeuMnKJ6Tb59vCBLy5dAjAm69KXCitPwHKrmRJgwQ3/c8DJNtz+Bo3LnD1RFBERABERABERABETgpBOI7W/cHbwWPemXogvoTATY+WLxY74x56Is3HcYZ4ZjihVpDkgbnYNA09iYsUbEZ8livGrbHrsH1jJ79tfb5MkjbfbsCZ2pepG6lh2wVnr88eW2a9d+GzekzmaNG+AsWAiBLkrsuNFFiS1OaxeKKxRZknFMQ3SpKVjG0FUtiBcD4YYuSxBraBVDNxa6rzA1snN1gWAX7qQftWMYqZboGpX1v/nScZMoGdQiVyKwlbdxeJ7H4TzHtLZ715dusf4DmsTPrkGl61zlrp37bcKwOjt3whAXlJ3uhnQ3rUGsqB5wLaytrcE0XA25DL9t5KB3boaBKNskoHadGutKRUAEREAEREAERKDrEpCFTNdtu3a98vIOFR/WXTwJ2FA4FyYGeOUVoKPFdMhIwITOOKYb45ZG53wCsvWMeEVvuDC9ZEuXbihkYZpk/ZGZSaXjCCyFtdL8J5c7seWcU4fY+IG9aQPj2i3sokRlhumpXeBeiDFxWr5QdIGLUrKGcWTQeYOLEt2WGLg3cFEKrGJcDBEG7pWLUsc1bDueyYsn4XsAfv1lZzyy4166fdPm5ctHDeuHo+F4TqDhkSHU5KHm8T+W5RFI2I15SsyzuO3dlD5aI9C/dzf8vt1/J4R5cZRjF3w5bByDezf+q4iACIiACIiACIiACJwkArKQOUngu9Jpw2/KOc0OeI6dpkIGFo4zdGGidQysZdLpnDVmM7CUodVM1has2GR/W7QWio3Z3HMm2cSJw7tS9bvktbIt6KL00qotNqBPN5sNMaYOrlSu84UOmBPP2BnjPwhoDMTrBli9xOmeVBBgXKwYFzem4KIEMca7KDFwb9xlUAq7KFHrYSdPvbwu+cUpu2j/2y9bXJw9lnb2FjJ0a8PdwQzWdQ1It97YkLb6+rQ11DfaYVjXpTFucPeTnLunQEegZINBpTUC/NW53x/GeYisjPFEYTWZSll3BOOugXUMrWRS3WqCwNz4nTNWWHOBt1s7l9aLgAiIgAiIgAiIgAicOAFZyJw4w6o/QnmnK+hrB51u6C8WS+YNfXjXyU9noLok4NbUGLNGxqDAxudAgBkyoJfdBxemxx9f5qxl5s6dpE57O31ztmzZA84v2r59h23iiDqbecpAsA5OVu6iREuYsIuSC9xbtIxBB47uS3BtoOuSs4zhdMFFyaWzdlYx/C4Ebik8S/n3pZ2qqcN2AIG2bkt/vFgW9wZ+V2jK4bIy0SqLwgCs7fidhMgbiEG0yKMiA9caZy0jWablZvc/clAFU1q8ORdEuCQl6EYIRZxCLNsAI/1OWwapNSIgAiIgAiIgAiLQYQRkIdNhqKvjRP6NOcfeUobTWXbIGVcmW7CWycFaBm+504wtA2uNDN98ZzIuC9OzL22zun69XMDfwYP7VgeYTlKL55ass6cXrnIuRbNPHWyj+/VExwsXh48jXJQQuJcdthSGGISXILU1g/gWptkxpjiDMa1ngsC9CdfuzsLGde4CIabY0fbKTyfhocvoPASCewYt62AcA+sYywcWdA24P6RhIXO4odHSDViWTuN+gXsG7yGMT8VNWQ0nyHSe+nTKK+HvHBfG36NLUU4RBr/hWqSrr4WlWwqxY7rX1DirmZpaWMpgHS1kgt9zsJ//LXfK+umiREAEREAEREAERKDKCEiQqbIG7YjqlIoyTcIM32Sz089OFAP+stPFgL/sXNGFKQ1RJtOYs8UQZO55+iUXK2LWrAl2+ukjO+Kyq/ocdPl4/Illtm7tdhvcr5vNGjvU+tYWDODQQ/MuSoz3g5mQixKEFrgtsGPGGDHlLkopujMVXJpc4F65KFX196g9KxcWZBgUPI+4MXR1ZDBwCrf1FGKcCxPmcd9gwHDDdpRjKMqoVEaAgkpgsQZXQpctDQIr4z/hftANbospjJkljQIshdgERBu6LHkrNwkylXHWViIgAiIgAiIgAiLQFgTkstQWFCN2jPIHdvbx8W4VD/SMLYPsKwz46zoFWEYrCggACUT95YN/YzxjMxHPZNjAHnbvU2tswYIVth1ZgObOmeg6CBFD2SbV3bBhpxNjDh1ssMmn9LOzRgxAWwSHpouSy3yEBZDLQvFiAsuXBGJM1PDNOTpndFdiFiUG9vWWMQlOOxclvHHP060kaGffeeNZyr8PbVIpHaRqCfD74u4VGNNNiUMM1i+pLKyvavIIFp63eJoBpmFxh/uJCybuLPLkrlTJl8L9HsmW3qO459K6zWVFc5Zu/D3jXoz7Mt2WGOU3ht80IyrTUkZFBERABERABERABESgYwnIQqZjeVfd2UqtZXxqW7ow4QEf7kuBCxMsY9CxClyYmBobb8YLLkz3LYaLzfLN1rtXN5uDuDLDh/evOkbtWaFFi1fbs8+sQbDOpJ0zdpCNrGvGRQmdMva+kiEXJddBo1UM35BDjAmC+DYJMS7AL9ZTzGGHWC5K7dmK0Ti2t5DhmIF9aSVDtyVnSQcLmQxcGhkQ3AUHxzYZWMngNoLvH2PISIw5pm+JE2QgtOB3T0E1iWDdtIILhJkgLhR/4xTSwwF9eQ4JrMdEWhuLgAiIgAiIgAiIwAkRkCBzQvi0MwmUijJHujDRaibIwhS4MFGYaURni64KWbgwLVm/3VnLNDSmbfr0cTZt2miBbYXAgQP1zipm08ZdNnJAT5sxZpD1grDC4gP30j2p3EWJ8WDYKSsKMBRjaCET6qy51NfOKgZv1gsuShRkaBXjjo/jqtPmUOjjGAl4UQa3BIgyEGyZ6xrCTPH+wBW4N1DI5X0jiFOFZYUCIy2VFghQvPKFv08OtJKhqEpRhu5JyXhgAUcxJo9ltHqTu5KnprEIiIAIiIAIiIAIdDwBCTIdz7xqz+g7W6wg+1V8qc1OVa4Q8DfDgL8M4IkOWA6iDONGNCBuBNNj7zxw2O5asMrWbd1npyAr0Jw5k6xHj5qqZXUiFVuzZpsTYxoRb+OsMQNs8tB+6HzhiK4TBncPdMAoxNBFybkf8Q05XI8oxpS6KBXclSjG+PXlLkoFIcZ38HjdEmNOpPWiva+/R3BMKxnn4ujiTsGCDpZzXoihUMN7CG8idGdiKYzctD6aJ+DuA2RVmKC7KH7CGAI3JeeCCJEmz9950fKt6Tet33bzXLVUBERABERABERABNqLgASZ9iIb0eOyo8XS1PFip6vUhSnrRJkgCxMFmiALEwQaWMw8sGStzV+62bp1r0FcmUk2atTAiJJsvtoLnlppLzy/3nqBz2y4KA3p070gxjg9JhBjQi5KSVi/MF11k1VMwUWJAgyEGBfQF+vdNN2XEF+CHWXvooRVrviOmh83f3VaKgJHJ1B6fwjuDUXRFvcJN10QYnjfCLanuBjcV45+dK31BGAP4+4L1GX4m3XCTMFaJoexiwdVJrbqt+3paSwCIiACIiACIiACHUdAgkzHsY7MmcKdLlaab7rZueJAtxd2uvg2nBYyzKbi02M3IIZEFqLM0g277b5Fq+3goUabOnW0zZgxLjLsWqronj0HnVXMtq17bfTAXjZr/GCrKagl5S5KMVrCQFxJOReFsBgTCDB0UapBAF+KNBRr5KLUEnUtbw8C4ftD4JIUCC9OgInDwgvai9sG4q5kmONvARrNBWot3ZYQs4eWMgziC4HGuyA6scZb0xTGx39G7SkCIiACIiACIiACInCsBCTIHCsxbV8xAXaqmjpfZW/DGTei4MLkAv7CbYkCTWNBlNl7qN7ufmq1rdy424YM62fnwlqmD6xBolhWrtwMMWa55cBs+rjBdtrgPkE/i2++IXAdzUWJmZNSBQHGpbRG+tsUMislChlXknRXok8DrGq8VYzPoOTfmPtxFNmrzu1DoOm+ENwjKMzQuK50efucO2pHpc7if8PBb50CTUDBL/fjqLFRfUVABERABERABETgZBOQIHOyW6DKz1/awWLnywszfPfNOBGIKwMhxmVWgbWME2UwzjQELkyPvbjRHn5uvSVTSZcae9y4IVVOrLR6FGKWL9todT1rbdaEwTawW21BjAneerMjhaTBrofFLEouOxIyqjhXpFTMaiDAuCxKcFFiIN8gywpFGogyIRelILCnOmql9DXXngTC9waeJ5hnVq9Su5iy2fa8pKo6drnBC+8VPjA3K+pFGD+uqsqrMiIgAiIgAiIgAiLQRQhIkOkiDdWVL9N3sPyYLkzsZDHtbRz+CRw7Fya6MUGMYcBfZmBibBm6MK3atsfugbXMnv31NnnySJs9e0JXxlHRte/Ysc8ef3y57dq138YNqbNZ4wZYgsILindRSuA1N7uutHZpclHCNKxe6JJEy5iky6LEeDGB61IKYg2tYph1JY94MXG0hbOwCcWTcOco781xoYoItAMBf1/gocPT7XCqyB8yLL6EpyMPRgBEQAREQAREQARE4CQRkCBzksBH8bTsbPkOV5OlDKxkYD4fg/hCFyYnzOQyEGVyEGWCGDOZhrQdgjBz91Mv2dK1O2zQoD4uC1P//r2qEuOLsAp68snlTmw559QhNn5g74JVTKmLEpUZCisuBgysXeIQZmogtgRCDGLIUIyBhQzdloqxYgruSuQvF6Wq/Pp02Ur5e0OXrUAXuXAJMV2koXSZIiACIiACIiACkSAgQSYSzdx5Kuk7XV6caRJmWnJhgjCTZbBfWs1kbcGKTfa3RWth1mE295xJNnHi8M5TuRO8Erpt0UXppVVbbECfbjYbYkxdTarERYnprN0/WLc49yQXuJeuSHBPKggwLlaMixsTuChRjPEuSkarGCfGwNEp8HRyV81OmjpqJ9iA2l0EREAEREAEREAEREAEREAEjoGABJljgKVN246AF2R4xLALU54pVkIuTEHAX7gvhVyY1uzcZ/fBhWn7nkM2YcIwmzt3UpcXE7Zs2QMXpRdt377DNnFEnc08ZWAgxIBPay5KLnBv0TIGVjEQaVKIuUPXJWcZw+mCi1KiYBkTCDDMelVwgyqM266FdSQREAEREAEREAEREAEREAEREIGjEZAgczQ6WteuBEqtZYJgv1yWReagGEUZZmFiwN9cU2psxpXJQJxJIxsTszA9+9I2q+vXywX8HTy4b7teb3sd/Lkl6+zphassCZej2acOttH9egZijLNaacqiRGWGgXsZMyaFIQbhxVnFwBomUVOYxnIKMVxPC5ogcG8CrmJyUWqv9tNxRUAEREAEREAEREAEREAEROB4CEiQOR5q2qfNCJSKMqVZmJgRJIsgv4wrkykE/M3QdQkuTGmIMpnGnC2GIHPP0y9ZHtmaZs2aYKefPrLNrq29D1Rfn4aL0jJbt3a7De7XzWaNHWp9a5PBaZ07EUQUiDIcmKe2yUUJQgvck1IQXoIsShiHXJRSdGcquDS5wL1yUWrvptTxRUAEREAEREAEREAEREAEROCYCUiQOWZk2qE9CDTnwpSDL1MOoox3YcrAaiaNoSkLUxBbZtOe/XbvU2ts4w5kJBo7xM6ZOxHBbQvCRntcbBscc8OGnfb4k8vs0IEGm3xKPztrxIASFyWX+QhCDGyFYBHjxZjA8iWBwLwUYBi0l+5KNUhpzcC+3jImwWnnooR984gZ4zIoBQGB5aLUBo2nQ4iACIiACIiACIiACIiACIhAGxCQINMGEHWItiFQai0DMQLuSzlYvmRjObgw0VqGLkywjIFQk4UrUxrTjbSeKbgw3bcYrj/LN1vvXt1sztzTbPjwfm1zYW18lEWL4Wr1zBqrgTXMOWMH2ci6ZlyUGLUYQkrYRSlOVyRaxdAViQF8XRDfJiHGWdBgPcUcuSi1caPpcCIgAiIgAiIgAiIgAiIgAiLQxgQkyLQxUB3uxAiUijJHujDRasbFlSm4MFGYaYRbE4P+ZuHCtGT9dmct09CYtunTx9m0aaNP7ILacO8DB+qdi9Kmjbts5ICeNmPMIOsFUYXFB+5tzkWJ8WAoxhQFGAoxtJCh+ILBuSjRSqYQuNdnUQosY5i9Csd38WiCAL5ugT5EQAREQAREQAREQAREQAREQAROKgEJMicVv07eEoGjuTAx4G+G1jII8OtdmNIQZhrSaZcee+eBw3bXglW2bus+OwXZiubMmWg9etS2dKoOWb5mzTYnxjQ2ZOysMQNs8tB+zQbupYuScz+CuMIxxZhSF6WCuxLFGL++WRelIIOSXJQ6pHl1EhEQAREQAREQAREQAREQARE4ZgISZI4ZmXboKAItWcuEXZiyTpQJsjBRoAmyMEGogcXMA0vW2vylm61b9xpkYZpko0YN7KhLLznPgqdW2gvPr7deuI7ZcFEa0qd7QYyh5Qrj9SLOS8hFKQnrF6arbrKKKbgoUYCBEOMC+mK9m6b7EmLM5HJNWZSwyhWJMSXNoBkREAEREAEREAEREAEREAER6FQEJMh0qubQxZQTCIsyXAePJRdXhrFlmIWJLkzMwkQLmTQzMrnYMrCWQVrsLESZpRt2232LVtvBQ402depomzFjXPkp2m1+z56DsIpZbtu27rHRA3vZrPGDraaglpS7KMVoCQNxJYWhVIwJBJggi1LgosT1tJ6Ri1K7NZ0OLAIiIAIiIAIiIAIiIAIiIALtTkCCTLsj1gnagkDYhYkBaynI+CxMYRcmF/AXqbEp0DQWRJm9h+rt7qdW28qNu23IsH52Lqxl+sBKpT3LypWbnRiTg3vV9HGD7bTBfSp2UWLmpJRLY00xBrFjEowXQ0uYIJtSku5KCPgL2xo39rFiwnFivHVMe9ZRxxYBERABERABERABERABERABETh+AhJkjp+d9uxgAmFrmUCg8cIMA9ciHTZEmiDgLyxlYC3jRBmMMw2BC9NjL260h59bb0mkxJ6LuDLjxg1plxrQKmb5so1W17PWZk0YbAO71RZdlHwK6jhixUBNcVmUXHakeDJwRUrFnADjsijBCoaBfIPAvRRpIMqEXJToqhS4PAXV8CKMH7dL5XRQERABERABERABERABERABERCBNiEgQaZNMOogHUUgLMrwnHRhQnZsCDA56BtMjV1wYSpkYcrRUgauS4wtQxemVdv22D2wltmzv94mTx5ps2dPaLNL37Fjn7OK2bVzv40bUmezxg2wBIUXFO+ilIAIQ/mI1i5NLkqYhtVLTcEyJumyKDFeTBBHJgWxhlYxCZ9FCXV2cWdgJUO3LS/A+LE7oT5EQAREQAREQAREQAREQAREQAQ6NQEJMp26eXRxLRFo0YUJAW1jEF+YhcnFlsllLJfOQZQJYsxkGtJ2CMLM3U+9ZEvX7rBBg/ogC9Mk69+/V0unqmj5i/8BQhsAAEAASURBVLC+efLJ5U5sOefUITZ+YO+CVUwgmjgBheYsUGYorLgYMLB2iUOYqYHYQhelZA1iyFCMgYsS3ZaKsWIK7kp01aKFjVyUKmoSbSQCIiACIiACIiACIiACIiACnZqABJlO3Ty6uKMRCFvLVObCBGEmy2C/tJrJ2oIVm+xvi9YyFIvNPWeSTZw4/Gina3YdMzvRRemlVVtsQJ9uNhtiTF1NqiDG0JIFAgqEGPcPLkbOPckF7qUrEtyTCgKMixXj4sYELkoUY7yLkmG/uBNjjnRRklVMs82ihSIgAiIgAiIgAiIgAiIgAiLQ6QlIkOn0TaQLbI1A2Fom7MKUhwuThVyYgoC/cF8KuTCt2bnP7oML0/Y9h2zChGE2d+6kogtQa+fdsmWPPf74Mtu375BNHFFnM08ZGAgx2LE1FyUXuLdoGQOrGIg0KcS2oeuSs4zhdMFFKVGwjKH4Ihel1lpF60VABERABERABERABERABESgaxCQINM12klX2QqBUmuZINgvl2UZY4WiDFyYXMDfXFNqbMaVyUCcSSMbE7MwPfvSNqvr18sF/B08uO9Rz/jcknX29MJVSD2dgFXMYBvdr2fBKuZIF6VkMuZixqSwbQzCi7OKgTVMAi5KgYVMEEOG62lBEwTuTSA2jlyUjtoIWikCIiACIiACIiACIiACIiACXZiABJku3Hi69FICpaJM3gkaQXpsBr5lwF+IMQj2mykE/M3QdQkuTGmIMpnGnC2GIHPP0y9ZHtmaZs2aYKefPrL0BJirr0/DRWmZrVu73Qb362azxg61vrVJt523iqGLEgf4K4VclCC0wD0pBQsYxogpd1FK0Z2p4NKUl4vSEdy1QAREQAREQAREQAREQAREQASqjYAEmWprUdUHQgzFGOYyasrClIMvUw6ijHdhysBqJo2hKQtTEFtm0579du9Ta2zjjv02ZuwQO3fuROdKxGNt2LDTiTGHDjbY5FH9bfqI/lwM/6RSqxjIP7CI8WIMAvbC8iWBwLw1sIph0F66K9UgpTUD+9JFya3ntHNRwr55xIxxGZTkohQA1qcIiIAIiIAIiIAIiIAIiIAIVB8BCTLV16aqEQh4QSYQZ2JuntYy2VgOLky0lqELEyxjINRkkRo7jelGWs8UXJjuWwyXpOWbrXevbjYHcWW2bttrzz6zxmq7pWzO+EF2ClyU/DkY28UH7g2sYppclOIUXGgVQ1ckBvB1QXybhBgX5BfrmYVJLkr66oqACIiACIiACIiACIiACIhAdAhIkIlOW0eupl4wCUSZI12YaDXj4soUXJgozDTCrYlBf7NwYVqyfruzlmloTDt2o4b0tjnjhlgPCCi0v/HHpyDD+QQtYSC8JGHpQqsXijFFAYZCDC1kKL5gcC5KtJIpBO71WZR8SmueMAjiC9cnFREQAREQAREQAREQAREQAREQgaojIEGm6ppUFSon4AUZLvdZmLwLEwP+ZmgtgwC/3oUpDWGmIZ126bF3HjhsP75jkY0c0NtePWuM25ZxaGht4wUZiih0N3KCDFyVjnRRKrgrUYyBCNOyixJj3dBNKRBh/Li8PpoXAREQAREQAREQAREQAREQARHo+gSCaKRdvx6qgQi0SCAsbMSRCptCSgwReGN0YcIvIMlMTM7tCKIMtBDqIfAgskaIK4MwsIyAdUxNMoXlCAyMlVmv7GAd96Ugk4wnXRYlxompwX7ORYkCDIQYTjOdtZum+xLW53LYr5hJiWeRGEMKKiIgAiIgAiIgAiIgAiIgAiIQBQISZKLQyqqjE00CIcZbnxAKpnMQRuBwlEzmnQgTz8QszeU+qC7GLE5MQfwYrLQE4tBkIaQU4gYbpB0nsMQhtNQgYK+zgCm4KHGeLkrcn0F8vYsS48VQlJGLksOrDxEQAREQAREQAREQAREQARGIHAEJMpFr8uhWOGwpQ3GGVjDOUgYWMnRhMggk7gcBi5cYhRlsEE8HFjIUU7rR0gWzmUTO4tieu7DwOEnEh6HoQgHGpbRGDBlnDYNxkgPdlZy4A+sYCDhxWNQwFTetcfx1+XFwVH2KgAiIgAiIgAiIgAiIgAiIgAhUMwEJMtXcuqpbswRKhQ8KM00uTDkoJMkkMjFhHI8FLkw8CK1ZUt1hIdMIyxZnIUO7mqBAtnGWL0GwXgTyTSUDqxiKMnRPCrso4TgUYSjiyEWpAFAjERABERABERABERABERABEYggAQkyEWx0VTmwSmnOhYlCDBItwbqlYEETJFiC4BK3WljBMBuSt5CBLuNKHuIKhZdUoimLUomLEqxr8jTAwTG8i5IXhfxYbSICIiACIiACIiACIiACIiACIhAtAhJkotXeqm2IQFgM8S5MjO0C+5WiCxNsYlxJwKQlWcugvhhDsckw0xJcjljgjOTEliQtYeCaFM6ixGO5wL1yUXKs9CECIiACIiACIiACIiACIiACIhAQkCCjb0LkCYSFGYMjUtiFKZsMgvrSsiUFC5cMRJh4htYuiUC0AT2KNDGXZYmuS0G8GFrDUNzhfsFAzEEWpdLzRR6/AIiACIiACIiACIiACIiACIhAJAlIkIlks6vS5QSOFEkozECMKQbuZWwZhONFsN9sAj5NCcgrSFvNEqPVDFydKMIweG9zYow/vh+Xn1/zIiACIiACIiACIiACIiACIiAC0SIgQSZa7a3atkKgVDApiDLYB2F/XeBecy5NEGaYZQkCDL2WKMgkIN4kINhQxDnSMiY4aemxW7kQrRYBERABERABERABERABERABEahqAhJkqrp5VbnjIVAqnARWMNBjnPAST/jcSnA/4kKUODMyQZzBf8vTRQmbUJhhWmvs5TI2lR7T7aYPERABERABERABERABERABERCBCBOQIBPhxlfVj06AIkqe6ZFQMIkgvoH4EogueawL9g9ixFCx4eAkmMI+gRgTbKVPERABERABERABERABERABERABEWgigHf6KiIgAuUEvEWLH7v1EFsoujjdpTguW5Y90iKm5BjlJ9K8CIiACIiACIiACIiACIiACIhAJAnIQiaSza5KHw+BGMQWF03GCzNlB6FQ461mylZpVgREQAREQAREQAREQAREQAREQARKCMhCpgSHZkSgeQKwe2l+BZa2ZgGTl0rTIjutEAEREAEREAEREAEREAEREIGoEpAgE9WWV72Pi0Bz4osXXMK6S9OyINAM5/2y4zqxdhIBERABERABERABERABERABEagqAnJZqqrmVGXam0C5qMJ5ijRecMkngmmG9kVmbKwrRP7Fhfnt/DU2J+74dRqLgAiIgAiIgAiIgAiIgAiIgAhUNwEJMtXdvqpdGxB4+cxxNv204VZbm4DwknCBYpzM0qS1QGwJTuREFhdLJm+ZTN6lv6blTCDG5NyYW3pxRqJMGzSQDiECIiACIiACIiACIiACIiACXZCABJku2Gi65I4nMHZ4f3fSQHhpOZ6Mv7Ic0mXncnk3cB8KL8HA6ZCSgx0kynhqGouACIiACIiACIiACIiACIhAdAhIkIlOW6umHUggDzHG8lmqLThrzJigKZYNLGa8MBNHBCfvAiVRpgMbR6cSAREQAREQAREQAREQAREQgU5AQIJMJ2gEXUL1EaAg09iYdS5LMSgvFF8ozmQhzjB9djweCDUSZaqv7VUjERABERABERABERABERABEaiEgLIsVUJJ20SaQEN9o827+EN25rz32q9/d1+LLP7050fcNtxu2/Y91pDJWkM6Y40NaQxZy6Szlscyuix5dyYG/lURAREQAREQAREQAREQAREQARGIHgEJMtFrc9X4GAnUdquxT/7rtW6vb3zvd7Z9x54jjrBn7wH7r+/+1i3/5Eeutn51vSwNIaexPm3pdBriDISZxgxEmZxlswzuG4gyDPhbzNDEGRUREAEREAEREAEREAEREAEREIFIEJAgE4lmViVPlMBrLj/Xzp4+yR3m+9f/8YjDXf+T2+xAfYNNnnSKXXvVRZbJZu0QxJh6iDD19RBiGjDAOiaN5bSUycE0Jh/PF8QYui+piIAIiIAIiIAIiIAIiIAIiIAIRImABJkotbbqetwE4oj/8vlPXuf2v/2vT9rTz6woHuuFF9fab299yM1/8dNvt0QibjlYwaQhyDQehpUMRBm6LqUxZCHG0EImm4GVTCELU/FAmhABERABERABERABERABERABEYgMAQkykWlqVfRECYwZNdQ+9N7XusN8+Ru/csJKDm5GX/7mr92yd153mZ02cZSbpuhyuLExiCEDl6UMRJk0lmUgxGSwD2PIOFelBMdyWzrRttH+IiACIiACIiACIiACIiACItDVCCjLUldrMV1vhxLwaan9Sd/25svsz395zFat2Wy//9OD1r17rT3/4hobNrDO3vvOV/vNLJeH8OKC+FJ8SQTLIX8mYnFLwW0pi/RKSQgxCCVjkGSwntooxyoiIAIiIAIiIAIiIAIiIAIiIAJRICALmSi0surYZgRqUkn7j8+90x3vq9/5jX3j279x01/47Nute7fa4nloIZOGIJPJIV4MrWKykF0yeaS9zkGgwWYwi6FlTEGqKe6nCREQAREQAREQAREQAREQAREQgWgQkCATjXZWLduQwJlTx9s1r3+5OyID+b76snNs7uwzSs5AscW5J0GMcTFjaBXDmDEQZhjQFyF9A5elglFMuSVOycE0IwIiIAIiIAIiIAIiIAIiIAIiUHUEJMhUXZOqQh1B4IP/9PriaT743tcVp4sTUGQYJyYQXwKrGMwVRRjnpkTVBkViTJGaJkRABERABERABERABERABEQgMgQkyESmqVXRtiTQs0e34uF69epenA5PxBBHJp+PFUQYL774LYJU1xJjPA+NRUAEREAEREAEREAEREAERCBaBCTIRKu9VdsOIkALGBrAUHDhEOc0zu0sY9xUB12ITiMCIiACIiACIiACIiACIiACItApCUiQ6ZTNoouqDgKBFUyQQanUNangrVQd1VQtREAEREAEREAEREAEREAEREAEjpmABJljRqYdRKBCAshp7S1kKtxDm4mACIiACIiACIiACIiACIiACESEgASZiDS0qnnsBIL4Ls3/RGLe+AWHjeGfigiIgAiIgAiIgAiIgAiIgAiIgAgcC4HksWysbUUgCgQCIeboNY3H4/bMoz85+kZaKwIiIAIiIAIiIAIiIAIiIAIiIAItEGj+9X8LG2uxCESNQCXiTItMkGFJRQREQAREQAREQAREQAREQAREQASaIyALmeaoaFlkCCxesdmeXbGltL5Bhmq37IQEGRwhBt8mDix+7Gb0IQIiIAIiIAIiIAIiIAIiIAIiEGkCEmQi3fyq/FkThtkNf1pgBw81tAjj5TPHtbiupRWMKxNDUF8WP3bThXgz4Rg0biN9iIAIiIAIiIAIiIAIiIAIiIAIRIqABJlINbcq2xyBGacNt4efXm3f+dcrrHePWmRGClJUc5zL5yyZiFsux4VNqauRP8nyWLbvcKPtP9hgA/p2t1QSHoA+nzWMYnIQX1IFp8B8PAj9GwgxtJjBwVDCFjRugT5EQAREQAREQAREQAREQAREQAQiQUCCTCSaWZU8GgEvyCxattnOnz7WbUpXpVw8b7GsWSaTtYb6tKXTWUxnrLExa/WNaWs8nLab7n/WDjdk7epzJ2BdzrJZyDDYl8ILA//GOMQ4YJlxTMsZCDG0lAnUGXe+wJ0pEGmOdq1aJwIiIAIiIAIiIAIiIAIiIAIiUB0EFNS3OtpRtThOAhRe6LbUE5YxC5ZudAYuuVwOYgz0kixEGUxnIbRkILTkaBWD7fHflV2H6m3LrkM2flidJRKxwgDRBRY1UGPcfByiC1ZZAvMwksFiyDIUaQrHCGkyx1kD7SYCIiACIiACIiACIiACIiACItAVCUiQ6YqtpmtuUwIUWaafNsyWvrTV9h04XBBjIMBQmIEoQ6sXuidlMeRDmZNWbNrtrmPssH4QXRKWhMuSG1KY5pBMuvkYxgmsi0OogRQTWMg4y5mYwQBHRQREQAREQAREQAREQAREQAREIIIEJMhEsNFV5SMJzJg0wi18etkmizvhhdYx5sQYxo/Jwj6maBqDLRMQV5av32l9e9ba6EG9LQ4BJpXAwHGyMGA+zmUUauJJi2NMSxqYy8BahpYyOJDzXMIHj68iAiIgAiIgAiIgAiIgAiIgAiIQGQISZCLT1Kro0QhMGz/UuS0tXL7JuSVRjMnTQgauRYGrEkWToFBI2XWg3jbtOGCTRw+C4JK02lpYxNTAIsZZx3AMq5iauNVgGdcnUgjwC3GGVjMJuC1RmHHxZLIFixkINArw6wlrLAIiIAIiIAIiIAIiIAIiIALVT0BBfau/jVXDCglMnzTUHlm01vbuP2y9enQLDGJ8wJjCMRjzJQFh5cV1O92SM8YMtiTFmAzcjyDU5PLZQv4kxIuBexMtaWJIteQtZ2K0kqG7EgbGk3EmMhVenzYTAREQAREQAREQAREQAREQARGoHgKykKmetlRNTpDA9ILb0jMrtzormfDhKMRQRKG7UQzWLS+s3mb9+3S38SPqrFsqZalusISBMJOCRUwt5jkkuawbpmlB46xksJ5WMjgGLWRyOW8Vo+xKYdaaFgEREAEREAEREAEREAEREIEoEJAgE4VWVh0rIjB13FDr0b3Gnl6+xbkPuZ3oSgS9hLYsNGihu9EOWNBs2LbPpsDNiW5KtbVJq0kGIowTYijMQIxxQgxcmGprU3BfClyXXDwZWMnkcRxayDihh+fghIoIiIAIiIAIiIAIiIAIiIAIiEBkCMhlKTJNrYoejUAQv8Vs+qRh9ujitbb/YL31hHWL00komPidMf3C6u1ubvrEYc7iJZvIIWgvtkDAmRzyZTNrE0scrko0qqGbUjJesIyhGMOgvnBnirs4Mtw2OLpEGYdNHyIgAiIgAiIgAiIgAiIgAiIQCQKykIlEM6uSrRMIshx5t6VnV211VivMhhSjJUthoO7y7IotNrCuh00Y2d/FiKHYQlckZlrikCgMbhrLUxRjkHmJKbHp8uTEGMaRgemND+QrMab1FtIWIiACIiACIiACIiACIiACIlBNBCTIVFNrqi7HRaBJFDFjtiW6LS1cttnFjKGFDO1XaCPD8bZ9h2zdlj027dThbn2c8WCg0sQhsCSwRRI7MJBvEvNuoBCDjEtJWMMULWOwLnBXwjEp+PAkKiIgAiIgAiIgAiIgAiIgAiIgApEiIEEmUs2typYTaE4ModvSsjXb4LZ0uCiYOGEGH8+t2OoOQXclvyzImAQXJVq9UGyJYSgINQkIMphsRowJrGPKr0fzIiACIiACIiACIiACIiACIiAC0SAgQSYa7axaVkDAuxA1uS1tg2kMLViadl68YrNzVxo3ol/TwsIUt6OLU3GAEgN9xokzMWRUomATWMY0iTHNCUJHHFgLREAEREAEREAEREAEREAEREAEqo6ABJmqa1JV6HgIeNchiirebclnW/Kiyfa9BwvuSsNc4N5C7N6S03F/J8w4NyZOxyxLoYYxaNw6iTElwDQjAiIgAiIgAiIgAiIgAiIgAhElIEEmog2vajcR8IILl/hpui29uHqrHThUX7SSWYxgvixnnjoUPkh5y+dybnDTQWIlt94JL3RfwgSFmDisYzhNCxxf/Hn8vMYiIAIiIAIiIAIiIAIiIAIiIALRIiBBJlrtrdq2SiDnxBPvtvTMyiDbEnd7BoLMgL7dbeywOqS3hiADUYZjDuHixRaOs06I8dYxgTAT3lbTIiACIiACIiACIiACIiACIiAC0SQgQSaa7a5aN0MgsGIJxBPvtrR4eWAVs2Pv4WJ2pRytY6DBwEAmGFOYKSzzh2XsGHe8bGEMYcYXL9j4eY1FQAREQAREQAREQAREQAREQASiR0CCTPTaXDVuhkBYJPHTdFt6AW5LzLbEYL4s004dUiLClAsxTncpiC/wVIIoEwyQb5o5qxaJgAiIgAiIgAiIgAiIgAiIgAhElYAEmai2vOp9FAKlbkvPrtpmi5ZvLrorUZHx8WOaxliGfyzOMqagxHhxp7jsKGfVKhEQAREQAREQAREQAREQAREQgegQkCATnbZWTSsg4IUT6inebWnhss2h7Ep0U4L0gvW0gMkhUC+nw6VgIGMxuCuxeFGmfNqt1IcIiIAIiIAIiIAIiIAIiIAIiEAkCUiQiWSzq9LNEQgLJ3493ZaWrdnmZs+aMMyNnRjjYshAjMEM7WIo0rAEgk44zTXVGrkrOTj6EAEREAEREAEREAEREAEREAERKBKQIFNEoQkRaCLAFNUUV86aNNwtHFjXw8YNr3PTdE1yAox3XYIWU24lQ+MYL84E4zIzmqZTaUoEREAEREAEREAEREAEREAERCCCBJIRrLOqLAJHJUABhcW5LY0baj2619iZEwJhJtgR6/OIM1OwinHiTNFPCVmasJETaAKjmWAXdzyJMkUYmhABERABERABERABERABERCBiBOQhUzEvwCqfikBL8b4pfsPN1hNKm4N6bSzePHLOaYe4zSZgjBDKcbtD3Emlg2my48X3l/TIiACIiACIiACIiACIiACIiAC0SUgC5notr1q3gqB5eu22423PWV79tXbI4vXWmMmZ/9wyVQaxzjrGLouYaqVozB+TGvbtHIIrRYBERABERABERABERABERABEag6AhJkqq5JVaG2IPDgwtX2izuftlRN0i68cKpt2bLb5i9Zb1t2HLBrLp1ig3p1g3UMrWACcaYtzqljiIAIiIAIiIAIiIAIiIAIiIAIRIdAbH/j7rJIF9GpvGoqAs0R+PXdi+3eJ1bYoEF9bN68yda3bw+32bJlG+2JJ5ZbbW3Srr7wDDtj9CDnouREmWTCUom4JTFOJukJGLcE5uNxijZBgGC5LzVHW8tEQAREQAREQAREQAREQAREIJoEJMhEs91V62YI7Dlw2G64dYE9v3KrjR8/1M47b/IRW23ZsscefXSpHThQb5fOHm8XnjnGCS+xRAyCTCDGJFMJMwgzCVjQUJCJQ5/xYowfH3FgLRABERABERABERABERABERABEYgUAQkykWpuVbYlAi+u2ebEmJ17DtmMGeNs6tTRLW1qhw832iMQZTZt3GUzJg2zq14+2ZLxhMUhxNBKJpVKQqRh3JjASoYWNBJlWsSpFSIgAiIgAiIgAiIgAiIgAiIQSQISZCLZ7Kp0mMADC16ym+5c6OLFnDfvNBs1alB4dYvT8+evsKVLN9iIwX3sjS8/3UYM7GUJiDHOUgbiDF2WGGeGY4kyLWLUChEQAREQAREQAREQAREQARGIJAEJMpFsdlXaEyjGixmIeDFwUfLxYvz61sbFuDII/ktLmbNOHdKsKBO4LgXuSzwmXZfkvtQaXa0XAREQAREQAREQAREQAREQgeolIEGmettWNTsKgUrixRxl95JV5XFlLoHLU6IGrktwY0qG3Je8KFMe5FfCTAlOzYiACIiACIiACIiACIiACIhAJAhIkIlEM6uSYQLHEi8mvN/RpsNxZaZPHGZXX3SGE2OKmZcQUyYfCvQrUeZoNLVOBERABERABERABERABERABKqfgASZ6m9j1TBE4HjjxYQOcdTJcFyZqy+aYsMG9LJUEnFlkAo7wXTYTIXtsi+VpsTmQWUpc1S0WikCIiACIiACIiACIiACIiACVUVAgkxVNacqczQCxXgxgxAvZt6xx4s52rHD60riylww2aafOhSBfZGBiYF+KcxgmsF+vQsTMzCxKK5MwEGfIiACIiACIiACIiACIiACIhAFAhJkotDKEa9jW8aLqRRleVyZS2eOdcF+k1BfFFemUoraTgREQAREQAREQAREQAREQASql4AEmeptW9UMBNojXkylYMvjylxz8RRYyMBSBm5LSYyTiitTKUptJwIiIAIiIAIiIAIiIAIiIAJVR0CCTNU1qSrkCbR3vBh/ntbGiivTGiGtFwEREAEREAEREAEREAEREIHoEZAgE702j0SNOypeTKUwFVemUlLaTgREQAREQAREQAREQAREQASiQUCCTDTaOTK1PBnxYiqFq7gylZLSdiIgAiIgAiIgAiIgAiIgAiJQ/QQkyFR/G0emhiczXkylkBVXplJS2k4EREAEREAEREAEREAEREAEqpuABJnqbt/I1K6zxIupFLjiylRKStuJgAiIgAiIgAiIgAiIgAiIQHUSkCBTne0aqVp1tngxlcJXXJlKSWk7ERABERABERABERABERABEag+AhJkqq9NI1OjzhwvptJGUFyZSklpOxEQAREQAREQAREQAREQARGoLgISZKqrPSNTm64QL6bSxlBcmUpJaTsREAEREAEREAEREAEREAERqB4CEmSqpy0jU5OuFi+m0oZRXJlKSWk7ERABERABERABERABERABEej6BCTIdP02jFQNumq8mEobSXFlKiWl7URABERABERABERABERABESgaxOQINO12y8yV18N8WIqbSzFlamUlLYTAREQAREQAREQAREQAREQga5LQIJM1227yFx5NcWLqbTRXFyZR5bapk27bPrEYXbNxVMskUxYKhG3JMbJRMzyGCfyMYvHYxaL5TFwHHOn8ONKz6ftREAEREAEREAEREAEREAEREAEOpaABJmO5a2zHSOBao0XUykGxZWplJS2EwEREAEREAEREAEREAEREIGuRUCCTNdqr0hdbbXHi6m0MRVXplJS2k4EREAEREAEREAEREAEREAEug4BCTJdp60ic6VRihdTaaMqrkylpLSdCIiACIiACIiACIiACIiACHQNAhJkukY7ReYqoxgvptLGVVyZSklpOxEQAREQAREQAREQAREQARHo/AQkyHT+NorMFUY9XkylDa24MpWSqu7t8vl8dVdQtROBCggogHkFkLSJCIiACIiACIhApyUgQabTNk20LqwYL2ZgH5t33mTr27dHtAAcY20VV+YYgVXR5mEhJjxdRVVUVUSgIgJhMSY8XdHO2kgEREAEREAEREAEOgEBCTKdoBGifAmKF3P8ra+4MsfPrivt+YWf3Nfs5cpAplksWliFBMYMq7O3XT6jpGYUYGKxJisxL8j4ccnGmhEBERABERABERCBTkog2UmvS5cVAQKKF3NijTx0aJ1dfvlMe+SRpXbv/FW2Y88hu+biKZbDrzpvGcvnE5ZM5C0bS5jlzOLxGE4YdGDYaaF1hTovJ9YGHbH32k27rf+A3h1xKp1DBDodgV0799to3OsyGdzEUHDrKty38oV7Gu9tuLMV7md+3OkqogsSAREQAREQAREQgWYISJBpBooWtT+BcLyYCy+cYqNGDWr/k1bhGbp3r7FLLz3TGFdm0dINtm3PQbv6oik2bEAvdFBQ4XzcIMdYNhG3fDaGjku8KMxIlOk6X4gBEGTOnTup61ywrlQE2ojATTc9YLkcbmb5rFNjeF/jvQu3M3dPC0TlJmsZ3dfaCLwOIwIiIAIiIAIi0CEEJMh0CGadJExA8WLCNNpmevbsCS7uzhNPLLfrb5lvV10w2aafOtTyuYSlYCmTYC8mkbBsNgehhsIMByo2QQk6NX5O485CQDFiOktL6DpOJoEc7l+NjdmidUzMCcu4IoyzdFvKNQnNvE7dz05ma+ncIiACIiACIiACx0JAgsyx0NK2J0RA8WJOCF+rO0+aNAKiTE97FC5MN9/znG2HC9OlM8ca9BdL4g1zPhWDJhPD22bY97vS9FbZH1wdGU9CYxEQgc5CIJvLWX1j2pwQg/tZPAbLP4jKCTzBwPjPskksLLhl0qWJRa5LAQd9ioAIiIAIiIAIdG4CEmQ6d/tUzdUpXkzHNKWLK3OF4sp0DG2dRQREoCMI5GHZ11ifoUEMBogxEJazybglYTmTTyJWViwHt0yKMnFYx1BwVnysjmgXnUMEREAEREAERODECUiQOXGGOkIrBBQvphVAbbxacWXaGOhJOhzf8Mtl6STB12k7FQEG9G1oaKRpjBNjkvGkpWARQ6s/Flr2JTHgF1OwjAkuX1YyAQd9tj0B3ZvbnunJOKKsgk8GdZ1TBESgnIAEmXIimm9TAooX06Y4j+lgiitzTLi0sQiIQCclkMll7TAEmYTBKgaWMdlUHq6XOavF9TK4byKbZfxyKDMJCDJyV+qkzVgVlxUWYsLTVVG5iFWCYoxvQwkzEWt8VVcEOhkBCTKdrEGq5XIUL6ZztKTiyrTeDv6BrPUtS7fQA1wpD82JQHsRcC5LhzMWQ6yYJJSXGmZdghqTyMBFie5LdGPCohg+gt8zsspBmdFvtL1aJDrH/cJP7mu2shT+VLoGgTHD6uxtl88oudjg3nBkI+qeUYJJMyIgAh1EQIJMB4GO0mkUL6ZztbbiygTtseiZFfaO93/TzfzfTz9rkyeNKjZUWJT5/Jd/Znf89Uk7/bTR9usbPlPcxk/4Bza/j5/36zUWARFoWwJZCDDpLGLIZOOwjIHwUpu1eDpmacaRySYQOibnUmPDcAYrvYVM216DjhZNAms37bb+A3pHs/JVUOtdO/fb6KF1RrdHFgb99mIMs02yMDaVF3D92K3QhwiIgAh0EAEJMh0EOiqnUbyYztnSiitjNv3MCXblq86x2+960r70zV/ZL3/8KRcg1LcYH8SeXrzSiTFc9tmPv9mt8sKL3y485oOdHuDCRDQtAm1PIE9BJp1F/BizVCZmGcaSQbrrRDZwXcrDVQk/RPdbxAQuIOhotf2V6IhRJDAAgsy5cydFsepdvs433fSAE2stn3VqDC2b+Hebro55fATiTFPGSf1N7/JNrgqIQJckQK9rFRFoEwKMF3PTnQtt0MA+dsXlM23UqEFtclwdpO0IMK7MnDkTbeO2fXb9LfNt8YrNlkmnrbExgzHiMGTw0IIOTRZZTTjwbTQFBz+03ZWcnCN95INXW89u3eyFF9fanX95wtWLdeTQ2Ji3r/3Xr92Fvfnqi+y0CaML9afo0jQETIIOnxdr/Lita9Vex23r69TxRKA9CeRwD0qneU/KWhYdK1rMQIpxHS3+RujBpN9Ke7ZANI+t71R1tDvvH42NWUsXnnN4LzFnMYNnHWRoy/F+4v7Ge1G3OuqtWoiACHQdAhJkuk5bddorZbyYb/7q73bvEyts/PihdjnSLvft26PTXm/UL4xxZS67bLqlUkm7+Z7n7J6nXoI5b8YaIcak8dASmPYGDyl8UCkXZbryQ+qAvr3ssx+71n0Fvv6939mu/YfxIEZBJm9/uPUBW7luiw0d1Nfe85bXFEUpL04FAhV5+KFJrOIBuzKXqP8mVP/OTYC/rVieggx/ezmL8TeIZe5fQYzh71hFBERABMoJZHHPqG9MWz1eOjWk8awDYcY/68QgzGRhbedFGb+v/p57EhqLgAh0BAEJMh1BuYrPwXgxX7rxb/b8yq02Y8Y4O++8yVVc2+qpmo8rM3xEf7t3/ir7v/ufdy4BjbCKSeOBxYkyfBMdelDhA4p/SPHjrkjklZedY3NmTLKD9fX2oxtudR28LTv32H/98PeuOp/56HXWq3eN5VD3WGjgfBMPsqAIU2op0xV56JpFoNMT4G8NFxncgwI3Qf724u43GLp6d48KzWtSBEQg8gRcUPB6iDD1jZZuoDUwrIIRk8o960DkjdEiuMxSJvLQBEAERKBDCUiQ6VDc1XUyxov52s8fsn2HGu3CC6fY1Kmjq6uCVV4bF1fmkjNt8uSRtmj5ZvvBH5+0Tdv3WSMEGcZrcKIMrGaycA0IrEO82w67Rl3PIsSLSPQR/+zH3+Lq8Idb/27LX9pgP/rxn9z8xedPt3NmT3b1hV9EiZUMH9o4xNELDN6mdU0OrqL6EIEuSCAQQfm7C8RhzquIQHsQCMQ/fcHag21HH5PPMg0NjXa4AVYyjY2YxnNNI14+4e95hs84EGUQF7wg+Da1uX9m6Ojr1flEQASiR0CCTPTavE1qrHgxbYKxUxwkSnFl/APW8BGD7EPvfZ3j/+GPfd/uvHe+9aittY+8/yrL0oS5mSFTcJfI4SEuXxRleAjdRjvFF1kXUdUE/G+32UpKmWkWixaKgAgwXEwWYkyjNR5Ow0omA7elNESZtOXw4onuTDnEpspjHAi+Xe9lk9pYBESg6xNQlqWu34YdWgPGi7nh1gXORYnxYuSi1KH42+1kjCvTt29Pe/TRpS6uzPY9h+zSmWONHjlJxGvIp5DVJBGDZYgXH5qyEviLCrIV+LnOOw46djH7h6susb/c9bitWr/VXexH3/d6q+vd0zIUXJpeksFtKahLnBMAEktiABNmcuGxuK3fpvPWWlcmAtVBIPTTrI4KqRYiIALtSsC5LB3OuL/dyXzcavj3u9YskYlbDM81WeS9TvDvOD6C54O4G3eVZ5p2haeDi4AIdAgB37vqkJPpJF2bgOLFdO32a+3qXVwZZMeKQlwZiijJVNw+9IE3OCwjhw2wSy+d5VyR+MbMZXJhEFEO7g0a3qI58YXuSgHJPJ/gVERABERABERABDotAWZlSyNmTAauSo10VYLFDK1jOM7T8hUvYeiGzJhULEe1xgs20acIiIAItCkBWci0Kc7qPRjjxTCldaom6eLFKKV1dba1jyszf/4KW7R0g23bc9CuvmiKDRvQy1mCwFfHEqh6NoE3SFkE1cSbpXicJiQMgBtYjHSFt0reoqVb9+6uITmOxeJ4KMODGWuDhzNmdclzQwysI61i3LzbQx8iIAIiIAIiIAKdnQD/njMuXgIPL6lMzDL4e55AkP5EwQ05H8OKwgsXPsvQ+lVFBERABDqSgASZjqTdRc/FeDFMaT1oYB+bhyxKUUppnUGA2yTSQ3e60s7PDIwrw3Z+4onldv0t8+2qCybb9FOHQqhIWCqfgHkvLgBPNwz267Kd4AGHwW596ayijL8uXr6f9tfMMV20aN4Mcxj3WIYKB0ITHtgKS4qbxyBI0dw5OE5T3YsbaEIEREAERKDLEpClRJdtupILp3VrOh2YtuIdEl6u4IUSXr344Pz4cy+rmBJimhEBEehoAp2wp9nRCHS+lgj4eDELFq+y4UP62ukTBtrurdsxtLRHsPyUcSMtkaQdRfuW3934R6vt3s1ee90VxROtenG13Xfbg/amd77O+g/q5/7I7tuzv7ieE7Tq6N23V8my5mbu+M3ddt8df7dPffXDNuyUoc1t0uyyJU8vtbv+cI+948PX2aChA902fLDbjFglDBzXXOld19v6YGip3PqrO62xvsFe/7bXwEopZQseedpuu/ku+8cPv9nGTx7b0m4ntDyIK9MDcWVerIq4MhROyh+wmdaa5Uhxhr7kfEsWvClzUwWzmiAVdtjbk20abMdjqYiACIiACIiACHQOAvy7T4vXLF6iJBJ4yQIFxrkg8zVLQYzhWEUEREAEThYBCTIni3wnPy/jxTB4704Edz2wcY098Phme+DWyi7633/waevbr0/Jxn+DsHE7BI7jLR/63Hts/Glji7unG9P22IMLberMycVlnDiw76AtfW6FNSKiPsu6VevtO1/8kZv2HwMG9rPPf/cTfrbF8azzZzhB5vG/zbc3vP3KFrcrX3H44GHbuG6r0brGlzSmv/H/vu9njxhfjgCzr3j9RUcs54KD+w/ag3c/aqPGjLBUKuW2efivj9sBLB8+qnKhiDtmkU1gz869Vtut1nr16emOdbSPoUP72eWIK/PII0vt3vmrbAe+D9dcPMVyuHPkLYOHmYQlEUslS5Nf6BLefYnH9ALIkWLH0c7YMesCUYVuSE3nY9BevinDhfOjuKKgw7jlznWJ22F1AttwHevnh+JOmhABERABERABETj5BCi68CqguvBFCwUaZ9nL5W5F4RK5/ORfra5ABEQgggQkyESw0Vurcnm8mD+vX2nDhg+yd33sbUfddcHDT9tfb32g2W1GwWrmkte8vNl1tPz4+71PuHUXX3G+xVxMktJNBwzuX7LgpWVr3PzZ86a78cqlL9kzTzxnmzYE5jt//dP91qtXT5sw5VS3/pVvuNiGoA633fwXGzhkgFvGj/2wnvnKx79dnG9ugtc2/+FFza2y0eNPsX/+zDubXdfcwtdfd7nNOPesklWf/8B/lsyXzzz+wAK36KLXnO90grUr19m6NRtt1NgRtmfXXjeU78N5WtL4ulLUueUXd9jCx58pblrXv4+98R2vtSkzSkWt4gaFCRdX5tIzrVriyniBiGJKgk7lKBx5scVJMe6Dj2Z4eMOG8EwyCjYxWFe5/aHIyF3JoeuQj4MHDlnPXj065Fw6iQiIgAiIQPURoPgSWMlSkOFQfXVUjURABLomAQkyXbPd2u2qW4oXs3vXPlu66MWjnnfT+i0trj/19HHGobzQkuWn3/qFW3zdP73RZr1sRvkmzc4vWfiCWz75rEnOgmTXtt1GUWb//kNu+YoXVlvv3j1s9MRRbn4ShJlR40faTT/8jV18+cuKx6TZaj0EoclTJ9joU08pLq9k4omHnrLDhw4XN6Vr1L49+2zn9t1u2RaIQ7RIGTx8cHGb9Ws2Wc8KLFP8DrSyefCuR43iybSzz3CLHy6IV+tWb7Svf6Zlq5vxE0bZh77wPncNP/zST2zzpu02c+6ZNgbLlz+/yp4Dwxu//Uv78Offa+MmjfGnbHFcDXFlKKYED2SBZcuZU0+1J++/HnWmOTOyLCAOThyZF5gGMwb3MooxFGEwh3UUbfBAx3g5eJDDKgxBMOMWoR3HCl6fF42OY/eq2+Vvtz9kt//urxV9Tw9BuHnx2RW2ZtU6e+2bLy8KbpVAyWQy9rn3fcVe8doL7KIWxONKjqNtREAE2p9AI/421pTFd/P39pbOrvtqS2Sqf3nwd7WFekqZaQGMFouACHQUAQkyHUW6k5/Hx4t5fuVWGz9+qJ2H4L3hQtHi/r88HF50xHT9oYYjlh1twaZ1m+3n37/Ztm3Z6TajKHDvrX9DZ2qDveGtr7Zyqxh/LIo4D9/3pJ1/2Vy4yyTsPz75XaPg8qlvfNSemb/EfoZjfvCz77ahI4fYmuVr/W62HsdlmThtQnGZn6CVyLxL5/jZisarl68rEWQeuedxu+f2B4v73vTfv3XTn/jyB23IiMHWq3dPW7JwqRuKG2GiG9yHUrWBK1J4OacfvOsR55r0pndcaXFkNtqxdac99ehi5750GsSEe/78kF3wynl2Cqxlyot3SVr4yCInxpyP+nnXq5e9Yq7Nh6B08w232KNgWYkgw+MHcWV6Iq7M0i4fVyYQU7ywEgg1TnRBJimoMnBLolMSXZOwDUQYbx3D0DKYK4gmwSu2lh7012/d6zI2jRpWR3yutNZp4EbcppLtgiNW3yfd/rZv2eEqNmx04JZ3P9wek6HYVP3gergWLonrVqyzXbAU271tl63CtC9Tpk+2iQULuZt+cLNRpA2Xj3/lg3YQLo4UJllymawTZ59HDKhGuET6MmL0cJt69ul+VmMREIFOQODrNz1kffHSZdbpw236pOFWWxBnWrpvhsV4Xn5L9+xOULVOfwl8UcS/id7CtNNfcOgCZRQTgqFJERCBTkNAgkynaYqTdyHheDEzZoyzqVNHH3ExdI/51y994Ijl4QUPQ5D44y/+HF7U7HT9oXonNNz9p785kYJxYJ6DUMHSrUd3ex6WOByuvOYye/mrzjsiQDBFF5aXXzbPbcdYKmdMP80tO9rH0meXO0uTISGLlfD22zZvR9yXbHhRi9PNBQWeed5ZBeuTlYj58hje0L/KhgwbZD3garEX1jMf/Y/3F4/Xr39fJ7Qwtowvu2BZw0DEvqyGmHTH7+5xs7Qu4oPmbyGgsFzz7tdDDKp3ggzXHc3taG1BiJo2a4rb139MmYlOJo63ZWPLlk1+2/B46NC6Lh1Xxj+I+wd3zmcLli5xCHyJPL4DyMLAIIBc5x48aRUDncbNw10pTh8mlyCb46OXf/vxvXbumaPsFedMtNEFYcafu3xPf21Ny3HSCJZFTzxrv/vZbSU19/cFv/Dqf3ytPb94mbsHML7SgCH97BWwbBl72hgEuh5nNXDZ82XUuFPcvYYBAh6+/0m3uLa2xrbu34Z7z/NuPpfJufFWCMT1DYG4zFhQ515wdokg87sbb0H8qqfs2ne93uZcOMufQmMREIEOJrB42SZ7eiletOA+PQOizNmnj7DpE4fBcqbptx9cUvDb9pfH+2z4Hhy+73J5eN7vo3FAoAEv5z717n+38XiB9iFY16qIgAiIgAicOAEJMifOsEsfoTxezKhRg5qtD91j/uc/b2x2nV+4tfBG28+XjykgzH9ood31x/vcm+jZcE96PSxhFj66qCjI0HJj8pkT7fc//ZPd/tu/2uInl9jbP/wPRWsZuiTce9sDzqrkflijPAshh+48dF1iR2kTMhmx3Pn7e63fwL4245xpxct46pHFNm1W4PbjF3bv0c3e+PbX2NhJo+36r/4U8Vj2+VVHHb/s4nPsVVddXPImnUIPB8a7YDkNblDMzvRHdCx9J9AflBY8tyNLErmGyxe+90nrN6DOHeOn3/lVeJU9BkuWFcgidcmrz7cRY4bbyhdeCta3Ym57KrIw1UEAGlNw3/IH3VyItzNu4hi/qOJxtcSV8S5HccaEgfbBh/E8LJEotuQZqBg9eMaWoVDDMXQaCDaBCMOHdj+0Bu6xZ9YZh7nTToEwM8lGDe2DXcrFltJOA48Z7jS0do5qWk+xsD8sYGi9wt8sxROWfXsPGLOYTZ8z1Wi5QkFmxKgh9q9fPrpYfOEVgZsihR7+FimWdu/Z3SbhN/qJqR9xx+Zb34//47/ZebAkY8wplk+j41FemCqVJddCxrTy7TUvAiLQPgRGDOptl593mi18cSOEGYgzGFOcocXMzNMCy5maJB9zea8OroH3/HDhPbz8Puv+Dri/q+X36PCe0Zxu5XEjmlBUaxEQARE4QQISZE4QYFfevaV4MeV1mjZ7CuKgNC/UhLcdWEjxHH4zzfW7d+4xxoHwosQEZEu6FBmFJp4xPrx7cZqBaN/3mXcZXYD++Ms77Jv/7wf21vdfbWfArSgDtwK6ONHN52kE8aUrFd+Us3O0Yc1m27cvSHG9ae1mq4fbgxUEmZ3bd9nOHbuNwYXDpQYdvfMunesWXfdPbzJmbwqXX8DtaMDgOrviTZeFF1sdRJNjyXA0CVYs7/iXtxhdMf7jo99kP9+Vi9FRvOS1Fxqv9wdfuaG4/Dc3/NFZ0FBsoki0c+su+/1NtzvxqTwb0wN/ecQWF6yG/EWyA8vU3yzTETemvNQfbrDbfv0Xt3hqITZN+TaVzHfluDL+LSgf1DntrWQY4NeJJe7Jk0JN3KjROEEGaTODYL5swMITfgWgrnvlWbZmyx57dPEae/zZ9U6YuXT2RBs5uK/bO7iW8k4DOwOlnYcKTlUVmzAF/DbEPHoUGc7GQiydVAje/RDiKc1H8PALXjXvqGnim4OwH2LOb2/8kwtQfv5l59ryJSvdfPm2d99yvy34+9NuMe8vtIbZgN9naxaC5cfRvAiIQPsTOOeMkTZr8kirvzJrz7wIUQZWM4swXlQQZ86CxUxYnOG9lvd8lpbEGf+3IdhKnyIgAiIgAiLQvgQkyLQv30559NbixfCiaYlCVyCWSYhVwqHSsn/fAePQA2+ge/Xp5VI1L4JgQLeiS+FSMGbi6FYPxQeil6HTNHzUMLsBQX+fe+oFJ8iwo/bF73/K6vr1tR9/42fGILlnw9KGIhDfkvsYMu/5+NtKYsgMGNTfGOR2ASx0fGam8oug6LR/735n1eJ9o/vU9bI+ffvY6RW4RJUfj8FFb7npz9YPbkgHDhx0Fi31h+tLNtuFuBe0dNkOd6lwOXTgsFGsofBDN7CabjVOjLkGbhIUkcJl1bI1VredFhdNpTsEq5YKxZgbwI7WOS+75Byb0IIw1tL+5cuLcWWQGvvme56z7UiNfenMsbAwMUvCmiCfoq85rEtoXuIKH4hLhYaT+QDsH9BpJcNLZCrsQJQJntr5SVEmR1clWMnwYb7S6w2/eX3na862y+ZMsLufWG6PLV7rhJlzpow0L8yEjxscv5RRAV5kRnTFoyvS439bUPzNPvHAfKO4yfvCsZZbfn6bE3CvefcbXOyDugF9bd7Fs4uHyWZzducf7nWm+GfA4o6FVnq8hjlwWzrewsDeaxBvijGzKBwzthXr5u8x4ePu3b3P1r+0Ad+zuIvr1K17N9u+dYf7zfftV/obD++naRGIEoHwfZWGatTOUxDIZ04aYTMmD7cs3A8XLduIYYs9s3yL0bWJN+5KxRlvIdPVrEHodr0Rz0R0hebLJ8auC/+tYrbFbZt3OItjWgevxzPA5nVbYE1ch6QHcOtsJuEAkxXwnkTLQCY+KH/+iNL3TnUVAREQgfYiIEGmvch20uNWEi+Gl/4E3grf/pu7T6gWU+F28K6PvsX9kacrDtMwH7WwR1pWxsPd5rPf+lhJylu63zBY79LnVtib33tVSayIdDqwcEmWZV/gYa+49pX2fWQbYjamUxFjorw8cOfDiP3yqHm3ofL1lcwz6O5qCCQst/3fXTYAbhd8iFl1qNFu/dWdbjmXpWqS1hf1WLd6kxu4gssZuJeFQY2Hjx5mjxQyKjFmzccRHJgCV3l597++9agxZEq2x4PrL6//rQt+SsHnNde+Cg+qJVsc14yLK3PFTHsEosy981fZDogy11w8xXK4w+QtgwfmBAIw52GFAvMTPEBT2AhOHPjr+wfs8MPjcV1IBTv5czVtWogVg+8fxZg8xKM4hSQ8jfN6+LWEYQzj/Bbmee1NcQb8dk3HYwehVEzJQ53isqH9e9vbXjnDLpmNgMxPrLQnnl1rTy7ZYLOnwJVp9gQbMayvxRDCplywCh87CtN3w61xAVLN06qN5Uv/8k3LIvsVrcWY8Y3z570iCMLNOC/f/tx/H4kFzfSRL77PCR90VVq04HmbdMapzlVp68ZtTuycC9fDfRBBWOiyREFm+ClDnPjLZRRkRo4ZZudiu+Mpe3butV/+8P9Kgg3zOHSzeuv7r3XijD/uI/c+bn+AgBsuDNjNe9IZ0ybZez759vAqTRcI+N+aH3Ox//n5ZR1xX1GDdAwB36aunXEfZltT6KSY7u7bEFbjWD5jIsQZDGmse3bFZlsMYaZScSaoCe/ZHVOnEz0Lg5DfhucLWhSGC2P/vftjbytaEzK7IjNN8r6yDDH1mHnRF1od8345DIKxLw//9TFnpeznOaaruYoIiIAIiEDbEpAg07Y8O/XRKo0Xw0owbsMwdEx84VuUQcMGmhc6Fj72jMv2Q0GkuQC33I9ZhXyhGEN3oMVPPucXFcd5PEBd9roLbRWEkpdeZGe3qfREQNxy6xS+cf79z291b6758PAXBL7t06830nIvt107drmdGYMmmUzZqVOahBdmEqK7FF18ygUZPuQxe9HgoQNcDJemKzD3RonZn8oLM7iMPnVUcfEtcCn6e0FA4cKrIKrMu2SOE1leDTHIF6bX/eKHvm6XwW2LglVzhTFiyktzYkz5Nq3Nb96wxQVBZcfUXVMp7tZ2P+r644krQ7GDqaZPZmFnjQ/eHDNwbw7pryG3QJih7ILlUGOoH3lxxilKXI+dfEcv3EnwdXHLQlXjG0YOFFuG9+sJYWaaXXL2OLt3wUp78rn1Nn/JepsN83svzGBDf6jIjflmN5zZiL9NWuyxI+HLYATMXrl0tZvtjd8/yxbEkKKIMxkChgu8XOD/9OPPuvXLnl9pX/3Ud930+z7xDme59qv/+b2b9x/M4MbhRAvb/38RB2rdmo02HQG150FAYvs/CbF74ePP2P9+91f2ya9+xN1TlyBWDsUYdoouuPw8G4r6M1YOxRiVIwk093vDLzT4vRY25zZH+30eeVQt6SoE2Lb+1srpHP6GxHDfzmE6y/s3RBhiTLVzAABAAElEQVRMusL46zMmDIM4M9wyWFiJONNVOPjrvPUXt8O1cqF7JroUz1J8sfMU3C4XLVhi3/63/7bPf+cTJRZ5vK/w+ezN73mDSzrAZyJa2t4DIfztH7nOHZbPanQZZ3n1my61oYiH9wKSLTz2wAK3TB8iIAIiIAJtR0CCTNux7NRHqjRejK8E47hwYFm7cr17U8ysRxfB5YhlcyF47kR07Gn6X0lhdP5f//gPlWxa3IZvkssFmT/+7FbjW3GWb/3b9a4T85prL3M5b/wbnzjEGBg0HFEY/PeeWx9wb9ToFuALTXfZ4Tt73ll+UXHMDt6df7ivOO8n6E4QFmRo8nsJ3IkaYaXz978+7twS+Obuhm/9Ej37pqvJQVDiuR7EQxAfcMJl+txpNvv8meFFrU7TDYqxacpLd2SsKrd+2Qi3CRYGRfWdlfL9TnT+WOLKeEuZ4FqaGJ3oNRzL/kHnLrCEITB+LVxnDi5KrhTFGC+Q4P1rIQNTsG/rZ3OdhoIY497moqp5zA/u28Ouu2SaXTRjrN2/cA1EmXU2/3lYzECYuRRWNKcMqey31foVdK0tps+Zhu/otOJF836zb/dee91brigu48RjeCPMe8R78BaYhZY1zN72zn95c4lF3ishfp4H9zyWLRu22Z9+faf1RMrc0XBj/MzX/8Utp4XMNz/3Q+fG5+NKcQVdL4+nPAuLHIoxzhrmg9cWrd8YZPsAXCOXwVVxAVLSz0WmptthTcdy3fveVBSizjpnKr6LcRcz53jOX/X7oHPN35X7rXJc6KI7IdUt5+/Vd9urnkakKhi+71LkpGDuxZgcXvBwGv9doa5NqY5/Y5LYkMIMXZvSuQzEma0tWs6cNWGoJWs7/yPyJrwsoxjD8s+feaezAOQ0kyMc+tr/uvsM3afLM1F+4j8/ZN4Nki+A/v0j3yha65LvX3EvZXkXYt95cZzZHBMQe9pCsHYH14cIiIAIiIAj0Pn/2qihTohAJfFiWjvBwzClZ2FQ3fLy6//5HVyGakoW0yrlwsuDrCYlKwoz5182185/xbnNrSpZ9lPEjmmubN243QXmPBMdFmYyohDCN0LzLp5jX/zI12zYiCH2TwXzfro2hcspMOFloE6mmPaCE9c/j7fRLOVBfblsMs7xT5/8R06WFjzohcvZ5013swsQdNQXPhgmUxR+AvGH6b35FpyFQg8Hdtj6I8YNS3NxJdyKo3yUv+H3m379xi9YbVksGWZUejs6h7QWas9SHlfmjkdWWM+eNXhwDsVgKfDDkva8lJN67DSsoVj4gEtLIMYp4RvcYqcBnQmWwYhV9OZLptjFM8eUCDOzkMY1ioWuf/43yfpv3bzN6g812EN3PVLE4YJVg2UlpRviJTB2El0gme2NhfGZeA7GSGDJImA4CwNsM8V2uDBL07EKmKuXr3GHOOPM04piDBdQZDl9+mTXUaLF2oF9iOtQCFTuOz5uR3ww4xODGEe9rN2233YeQLsV7h/uPoLONcdc5mI7OTGV8wGtar6vRP37wPpv3bnPBvbtaXlaWFKEgcgdvq8WRRt8P/L83lCcwzbOHRTzSfxNLoozWYgzK48UZ86EZU1nL6teWOUucfo5UywBV226L/ni7zPLlpQKMnPw0seLMdyWmR35XMLnETLcu2efc2diUgG6nofLubD6lSATJqJpERABEThxAhJkTpxhVR+BnRW6C7Cwk0RXgnChC1PcCQ5NS5Mhy5OmpU1TvXr1LBFDmtaUTvHNdH1DQ+lCzDEDUzgeDR8gGuobbfuW7S7GxKVXXnDEPrQi2QkRhvFjWMIPIwxg/Oj9ge81fbDpinQmMkuVlOPUDBhs+F0ffas71H1I001B5t0fe6v98Cs3utS6K+DTfQjWMte+56qSODkl525lhlY9o8uyR7HTl0odGbOHD6msr+vItHLctliN0xVK8CYbz8Ouv0R5KugwYXkn7UD5N+5t0bFjZ8B1FgqdhiyEGGdW779XFGxcnBmKN55Z6XTT0uqfYoalPxWygIVrG142AdZ5Lnh4jx7hTZqdvuO3d9vqFevsi9/7tMvexI16Ix7T0meWI7DlhpJ9NsIaZz9+k74w3hPdiI5VkNm6aac7xNjTxvhDFcdDRwb30e2bd8HNMoiTMwIxo8oL42WptEIALoCM0YQ+thM+j7WdWjm6VndiArxXxnAvpa5Ny1NnGcN5ii+he6v/Tvh7K/8O8vvibraYQHgq990J3Xpdrf32nRgBxNwd7vIWPbnEODRXDu47VLK4D2LSlRfnjo6XVWTDF1YsfLlV5FjYoT9i3amIgAiIgAi0LQEJMm3Ls9Mdra5Xd/v4dS+zX9/9jN335Arbt/eQzTtvsvWFq0RrhR3I3yIWC8sYWKH88vrf2Yc+9x4LxzdhxpJKXZZaO1+l670Yw4wCi5H6+u9Ij/2qqy6GIBM8mJx25qQjDrUKsSZ+/M2b3PLz8dbZH4MLboGfNF2I3gxRhA80P/v+zfamd1wJV4LZRxzneBbwzfvf7njIuT1diVgyYwpxZ5LJhL31A9fY1z75Xbv+P284IshnpeeiawNNiSspv/vprcY4GhthBXA1Mja1V1m2bKM9gWxCqVTCrpw3wSaPQPyh2oTVJpOwqKKIl7AUUhmlknFYD/ANd9x1eJ2XEB6UGbelo0seQYeD0ty5g3XHcl10ndi0FQFob7yf3QO+xA11GvBGF6fxD/xbdx+wBxetsafgrsQyE5lCLpwxzkYO6mNPLd3olkXpg26K3/7Fl531CGNU/ehrP7PdO3cj9fQHkQJ+pwt4zU4WXYLmXdT673Qm0mbzt716xVp7ZsFzxmCX7Gjw9+cLXZY+/o//5sSXV77hYr/4uMe5TPCmujmrt70ITMzSs3d357rGaVrxlJeDEE9VzEYN7mVzTx2Ce0Qc9w/cRyA2p+BO0r02ZbU9aqwbhG/eX2oSSVgkJpzFTD4I/OSCZIth9RBw92ncUL9x00NwD4YIQwEGN1dayNANlGJMWEz3YgyFdSfCFFA0YodnVyADE9yWnlu5xbkxc4Op44fCcmYIxkOsBn+vPvydTZ0aHq0uWRgfb+KU8c1e6xAKK6ESbybpQWi1s+Tk/L69wX0qvI7Cl4oIiIAIiEDbEpAg07Y8O93RvNnumy+bZsMG9LZf/uVpu/MvC+28eafZqFGDWr5ePPD8AWliabrP2DFMQf2D//iJi7FwCeLI7Nm1t+V9W1nDDhHTu7ZW+KZ6wOC6ks0YK+XP//cXe3bhi05E4UoGzKTVx4N3P+bMawcgzXR5odULRYveSB0bXs9gmrQAotvQ2S+bblMRzPjmH/8eQYNvt0cg9Ozbw/TdPZzYw5Tb5S5APE/wtq2pE39wf9CJYmebsWluhlsXY9swqxHftPPh0Re+Af/g595tP/r6z+1rn/6eXfHGS+1i8PXZlvx2bTU+/ayJtnbVepuAtLvtVebPX2FLl26AG04Pu+DMUTYUsToYV8eXPMxjagiHnm4YJ5AeIw7xgoZV3gUBK9zm/mHa79seY/8bYXajoATn9nOl49avK3w8WsGwBJ2GLESZQucBXxcu27oLQsziNbbwhUB0mTF5mF14ViDE8DjZwv6l1xCNudVwN/zBl2+wt/zzm1yFE/iCMBPRHQji/ZUffc5ZGHFF2PWwJTJ0bWQQy19BVKZZ/hvf/hpbhixt9932YHEXvl1nYWazVYjvEi5nIeYSA3QfS2HQYcaJYVp73n/CZQ2EIRZee3+knGVhQOLyQvcplTABWsM0dbrxEwp+W/id5LJxZEODpZm7v+KewvYs9MA74j4SvkpNtw8Btr27T2PM5uXAv6cUJdw9tiDFBBZT2Bbr8UfF/V3hVwH5/goizBY3ZjwvL8JMnzDEpowbgpcE+GPEgoN7sSNY0Dk/Bw0d6C6M97dLX3dRyUXSqpnPIEzIcCxlwOD+bnPG6uOzVQ8kV/CFGepUREAEREAE2paABJm25dlpj8YHmfOnj7XByO7yszsW2gMPLLEZeAM/deroZq/5qccWuWj6MxFY86JXv9y9Tf4AhIPbb77L7vvzQ8V9voaMJTR17dGzG3yQgze8WQTLSzdm7OWXzbN5sEYpL/wjv3PbnvLFR8wz1ktzhQHspkM4mQbLkNMRpLexIW1f+di3jP7O/4CsAc0VWsSMmVhaVz7I/ebGwALouvdd46w0uuMtNV2Mnpm/xObjPBRS1kDA+MrHv11yWPpb++t7xZUX2OVXv8KYUvL+2x9yFijcuC8yvzCYHtP0hgPjhQWZ/8/eeQDIUZzZ/5uwKwmhDIqgSFAAlMggREYEYzC2wWCbc85nbN854PPZPvvPnY1zwsZRNsYmOWCCSQaEyAgRBEIEkYUECElIIGl3Z+b/XtXUbM/s7Gq1YXZm+pXU26k6/aq7puv1V9/HfLtMHGdf+N9/t9/98I+2csUzdtTJ4N1Laf7xhxqH3kibNze5sNerVr1mu40daodMHQsrmKQ1o3++ocd+c8L7U+GxE6h52Ehqzveq4ou1wVKGViN8cfbtKC70+dxEL/3hs7G9qaMGXthfCHXNffPF33dTQmMS17d67Ua7GRYxBSEGrObPnugsYtiICCb3bHDGNS2GY2wm+jC4d9FSNz3noJlOkLkfUd7GT4aVC9JOo3zjwc2084d1FK3TLv7lFS7HzP33hln+awg7PbKwRQb+fhhpZDj8KUSXM0NXIpxNgp+m22662x6+7xE79m1HIuqb/7mlqPwQui4y7TVnKqLUDXJ1F4UiCsR75X020DrmmstucPn0xxOAZltITqvEs+sa4mhXs99KFs62M866Dk8QFV40wOkzpKPntbBDTVQ9AV+3ogNopF50Yky+zuTisM5bxCScCPMILGAegDXMw7CGybB/En5g9tlttEVFGLcd/oSupNF9VTOYyXtOcKfHiEqnw09W/wH93DzfM/7088vsKXTV/NBn31MUznpb1zMMH4r4PrUe7y6M9hYCDZD/TVfftq3NtV4EREAERGA7CUiQ2U5gtZjdv8T4yDC7TRxhn3/3ofabq++3++9faRvQhelQdGEqTXvNme4iDrluLWhAMtE65B3vP8WJDy89v9pee3mds3ShqT8dybFBQ5Nh91UfL8YTEcEkmtgtZczYnY0OMvefv290Vdnpi2BZwv1F0wD4lfnWr76Gc6F5hU+NiGx0+PGHuKgC0S85XNuIcx4PwYO+XEoTrVAYbnswrGbGjh9dtJo+ZDjwuta+/JqtQ59qWgVt3dpkLVhGwcl9XcNWFIWY+AJD55J7z51m++w7A90RBtrcg2e5aEtRnzXsKsHw2oPREAtpEKxvPvblD4Jh1glDYTm7NVH8Kdeg4PlzXblrC9tXarx69XpbfNtyewMOU2dP3sn2HjfcEuiqRZ+rvH0S+KyZa8ErcrLFUs14SU7iOnGtDXgxbmmAg0W0rtBsKnzJLFyvU2aK74FKXVPHx+ngnEKLAFcUvrByEe/ll9ZthNPepwtCzOypY2z+rEk2Dl2T2MOCKfjU4a0fLGz8mvj8XffqeheylQ7Ao1Zpw2H9xpDtt11/hxuTyOhdis3x26PEcPMh0fqGz2g0ShrrMYq90yGSdKbL0pV/+qfdEnEyHPbN8Vsg/tCq5qarbnER4S6Az6i5cPrNOuOeW+931n0UmijGMr397JPtVwiRzeHgw/e1FJ77h9EQYoNIiQTyDwem/OPln78cxBZGPCPXHPoI8pnx9TLqEmRkPeJytm4unLVMwBW+L3t/GRThfD3JetPVs/jTgmWPPgUrmKdetmVPrfH3hBNhxtjcqaNsnyljvCUM8jpBz2+I7THv7incN1T8uPMqT6zD5kKoXnLng/bDr/4MjsAPcha2d9+6xH1MmoL3sGllunF3dFl8tzj13Se57tsXX3iFMZDCKFjZPAjBuNTheUf70ToREAEREIHOEZAg0zlO9ZML7xeDB/azj5+yv1128yN2+4PPlvUrw68s7/7YO8te90CYr+42bTLCD5Vd3e5CiiVf+PZn2l1fuqK940fFGG7Dl+4Fpx1durmbp9Dy2W9+ouw6LmRXrI4SxY4xaPBx2FZiF4WPfOF9xdnwklgkxmAtv5Sf+53PFefLL89/RC+sOwj+MTiUS4yU9H+IpNTXKfiLoXg0b/pYGz9sB7zH5htDeKFlAykLs5AUzcrx9TqDqBgJt8wvT2BdFi+A0GjwVdu3nPhi7LWY6n8hbo8/3/Gj6eIbl9m9jz7vFs2FEHPYzIk2ZieIcrhQd61YQ+sYpiDK+Ln4/b0TliVM5fw4zV9wsDGkNK1PZuyzpwWT/Y4o3bNoiV3627+7bktDhu1ov4E1GgXUA+bNdZGXaAHDMNgUYibvMcFFXOI96L6+w2cCxzsOHugO4QwvMEULuS2ry1vxMaITBeiPfv796AJ5uS1H9yh+qQ6JosvbIMKERKsYfsX++8XXQBS6zy2mkPzWdx1vC396ifO5FPJqTAsJ33WJj0sCDwu7QUaXofYoNM5rvR5RebclwLqV5e0S7wX8bGzFM0pLmIdXvmLLMHbrUfi0hGF9OxPjfvBfxuTvFX8fuQX5P17UwXL8PiW43+jKKp4+HZbBtFJm9KPLFl5ZONN5Rx9gx73t6EIX6MKHjkKO9if4QeoM+Jn7M/wI3nT1okJGWvv++gcXuY8nhYWaEAEREAER6BYBCTLdwlfbG7/10D1tBJxKXrn4MbsKfmXmbcuvTG1frs6+FwgEfzHDcR8dsNtIG9a/rSVSLxy25nZ5xS2PuHOeg65Jh82cYONG7Ojma+WFv9LAH3v4SZsCwbEBXY2uuuQ61w2QX3qZ6PCXjn2ZjnzLYW7c0R9atvErL30snPO1jyLE/DCjk2+Gp7/u7zebcehECmHk3/nB04xDZxIt3z7y+ffBIfF6W/3iGnQn6G+jEamOln6laQZ8XHGgmENxk92s2IWRqVxUFLdCf0Qg5gTuf+IlexDWMOyOFESYGXDIO3vKSIgxY+D4GU7k4UDehbuuU1b8cHTav70V4stRtuo5L0aNGjuyTcAFBgD4AYZy6ZsXfLnN4gOP2M+4zQvPrEIghDQsiWFZhGP94KLz2uTVAhEQAREQga4TkCDTdXa1uSW+JPErCZ2nJvAF96Dp42zYoP7210WPbdOvTG1esM66NwhE/cVMHjXY9sfLLwxfnLUHvj/6+4uzdKiI+4yD0QoGfmJSWEYHrWE570PEWHJ5+TXbD95SpmA60hsX0Vv7zH+55XWE5KImzZ4Mi5gdvS8Z5OEX2JA4yfxxt4wJPD75lQ/Z+rUbjN2I6LOK1iyHRXwfzYKJ/rNwVjll2qSwiR9HoefX0HH2ae85yfbYe7eCA+DdZ0wxDm9HF8yN6zca/bW8gUhrHDdtaSreJ+Zo1RbtOtUmQ0cLUK7D4LiXQ3vpvP/4LsLXrrUvfescGwXBxiXcE3f86x43OWnPCe1tGsPltJ6jVRkGXD27LSVgXVdYll/OW4HLXArjGNKqq0uO1K0s29Vr37A/XPuAqzwpwszC79D0SSOtEWImjS2TiMrFTVz3I/4G5W1eov69onxooeiEG+R120Tq6Gi+ap2mpV+pA/Huniujv+3Wi0EAunt+2l4EREAE6oGABJl6KMVtXANfXNjP3r2w0uEh5unrhLEEcmgg7zZmmL3/hH3sb4sf79CvzDYOo9UxIeD8xSyGv5g3ttjMiTvZ9NFDfVcb3Fd8maXQ4ppKGKcQ1jrNAWGU/DhtiQbO++UJrnP3I/LiXuS96e5T147C2zES52sphXd4vvSnIEJ98b2H2VhEOGM3LvqRYfcKuifwV4cr4wa4RhrIkxsbBRRm2KDIglMcE/1CjYS/KaZyX2MZCrtcl0Z2OSrn/6W9ron8ssyIIiGqSF+x3nvuDNctgFGl5hy8jw2DY+HHl6205Q+tcCG6uT7eqfC08FFB8nUCuysxFLarc/LPDKdZl1DodTkp2NRYHeJOXH/aEPB1K99n/Kq9KMLAMpPRkVjXcnFY53Jghm5gWKey0s0V7gMs4DrWx2EDrONdxQ8LrH9z3F88q1+HTn9EQAREQAQqR0CCTOVY9+mRQiOXQkwGrx3OUgEvHBlEv0nD8+pQdDl595F72TX3PWX3r3iprF+ZPr0AHbwqCET9xRyKEM27DhnoG0hsDOHllV8kXehqzKQbUnCcmESkpbSlIMI0wMog3S8FJ8RpLEs5vxgNrvGEbXAv+u2xo8JLMxtbfEWurVR4wcdp7zpysGskUIBJ0BcJliXp6RjPIZe51kOZa6Skxf1QlFGqfwInvOMY16BkRKZF+ehSvGo6CD/zI+8ocmJe/zTav0I+MvmgxK6+YF3B3zTWHXxYWP9QjHH1CZ8d92zVZj3SPoX4rinUragbP/uug2FpmXKWLM7XE/2VsbZFuVNjocDttBaoK67+dcIcVuSTW5efdlIMVRveLxT5uJwZ3EQ+k0YiIAIiIAIi0EsEJMj0Ethq2S0btOElJoT/TMBKhl8P04hug3gElkMDuZHvKYiWeMK+U2ynHQfY9UtWyq9MtRRilZxHqb+Yof0a3Psr2kAYszGEt1cMCYgtzhoGfjAovKQbKcx4MaYfxo0YkhRrsI6CDcVB/4Xbh73mSzDvUaboS3OVYOjEaeTP3ZmgQVRx7/WhKekkGUO/JdeApBVNSGwG+DYBAZBJ67qQR+P6JMCoSie881g3bFj3OvzIbHHOivlcKEUJ4Bnhs8FnBf/4iHhBxtcj7A7pxV38tnEl6yM8crVZj0SvW9OeAMo1hQoV9WY/PBt8t8nyB8glLIfy4kUZvtC4bKhTKdTgPsH9Ui4F0Z/3k0uFbIWJcptpmQiIgAiIgAj0GAEJMj2Gsnp3FF44eIZ4P3UvsNksvyT6UKHuZRViTCLvOuGAaWNtxOD+dvU9T8mvTPUWa8XOrF1/Mbyf8C7MRiPFGHa4iQoxFF1oJdOPDkrhWJFCDK1jvBjDLksp9zWbpuaMwsQE14t4i8ZEXuRxC2vsTxBAeR18tjiwkYjWAgZ80c0hBDiZofEQ0WN8gwGNSPeMsiGp9kCNlXzPnC6jspVGZuuZPdfuXgqNZV5C/sFwz4kTXfxvWhIPkxdnvBjDebddDdcltVtivXPmrm5FuXLs6lb+/rhDUZxBvYoSZ7Q+1rQhMS/fgWgx46xf8vVqqF8L70dYUJjGxlzPYyiJgAiIgAiIQG8TkCDT24SraP982Uh6z6vurDKYR/PYTfPloxl/mKcJLzyTdxluZw8daFfeKb8yVVSEFT+VzviLgbTg3l4b0l6QYRelJKyvGmEZQ4uYFC2wnBgDEZAiDcQIRpBh1wLXTx9vz6EhFS4w+mIcltXKOPoSH5xH0mSeoowzqs+LM/yyS58yLrlnD3kwdpYx+WexVq5Z5ykClSTA+iHUERRemGj16RyEQ6ShwMvnDdn8ujDhZ/W3Rgm01q0sY9SmqFfp5yWJFTlYXFKUwbcmJ8oEYTzcJ7xk3gZ+KNwY7j4qWA+HTDXKR6ctAiIgAiJQmwQkyNRmuW33WfOlJLyg4L0VCS8keHOheS/ayv6lBB4ummkpg7wckoMSdub86fbPpU/b0sdXy6/MdlOv7Q068hfDF1gXKYlvt2gAecsY+ouB1QtEF4oxjQ0NrrtSI7suYVnKdVHCGN2UnANGNKRSGNhlyb80e8fTnlrtfpokkpC8IOPnnCjjHj5eJ3zoYEGWfZTyiUKMa1RiWej+FdZpLAJxJ8DHytcTJJG3gcg/bBy5qgi/bfzQwK5Lfllw6Nv6nMWdYy1fP8uUie8yTrjGNOtVJ8TxbYZiN7qDUpQJ5ofuPsCse6fBfcEbg9MFEcbt1Avh7FDKV6NCl1l2j1ISAREQAREQgV4mIEGmlwFX0+7Dy6x/meGZ+bcbdl9Kp/niiiXNsJRpxBjTbDs24c8JcyfbzoN2kF+ZairMXj6X7fEXQ4GlgaILBJeCv5hGLGM3pbxAw7DB9BfDvGgtuZdlijLhPsMCdz+Ge7SXL68iu+dzxpd+PmdeBPWNB+cvB42HLC6eDYmQOMknMgFHla4HF+EoiYAIlCfA5yc/MHoO/zHRZ0zCibxejKmnOqU8iLgubRVlMqhnGXELPzdI+F2BShOsaViNunsAE0705jyzwUKR8xTweM9Q2KGQ536KQrWct75idiUREAEREAER6C0CEmR6i2yV7jf6chq6L3EZoxTQysG9vECUaeEri/vKiJhMeDnZf6r8ylRpkfboaTl/Mbcvt1UvvmaTRw22/aeMdE5peZD2/MXwvklBcAn+YnwXJXRXgoVM1F9Mml2U6DcmYhUTvlKGi4jen2FZLY69GONe+3H6bUUZfsl1vilDqwG5QuOAoZhce0AfZ2ux6HXOFSBQvp5Aozxy7Gie6HQkiyZrkEBx3UpRDvUlFOwsfl+SrgsoxBio28FhununQR53b2CG9wIF7wS3CSIMxXC3rhhIpHouXqE5ERABERABEehBAhJkehBmreyKLx7hpYaijH9xoWNV93ZiDbgQ9wKLfHzbobNf9tOXX5laKeGunWdv+4uhzODEGCf08et1/j4L91vXTrsqt3LPD84sPGelogxf9P3LvmsmuGvgvHNqnG8cVOWF6aREoMoIhGctjHl6rFv82DfA/Zz+1gMBlnO0XmVZu2hkzioGM+2J3bh4ijCunnUb+d+f1nvFW1QFRjwGcoRZjUVABERABESg1whIkOk1tNW949KXGgozCZhAJPCFKYO7Io23FNcvuzlhzWhAu24WWCa/MtVdrl09u0r4i6EFiB94lr6hFG1EdfXcq3m70ueMwgwZ8Pr5vu9f+n3DgNcRbRxQwArrq/kadW4iIAIiUEkCoV7lMdnVk9+S+I7C+tLXq1zTKqZwWYqVa4klTLGFpv9N4j5af5da98E9KomACIiACIhAbxCQINMbVGtkn60vHf6EfWMQLyAFZ795Kwb5lamREu3aaVbKXwyFiOgLcOn917Wzr/6tQuMhXC+fM//Sj9ZBpNGAB6+kIeAbF9V/hTpDERABEagsgVCfsi6lKBMcqIeuSsXCSrHYHbZl/ds67c+/dL6yV6WjiYAIiIAIxJGABJk4lnrJNYcXkPBiE15S5FemBFSdzVbWX0xe3MubgIR7rs6Qtns5vN7SBgKtZYpTceOgbf7i3JoTAREQgTgTKP4d8b8xrDedKUwHYnfxdhRrWi1hovVuLgfTGyUREAEREAER6GUCEmR6GXCt7D76QiK/MrVSal0/T+cv5rbl9sabW2zmxJ1s+uihiFKB/eHFlFYsNP/mP843pH1Y64ZUGk56Ey6kdT848fXOexFJCRGVGOo6jW3SDVgO54p8IS72F9MqNkTvta5fQe1tGa47+sK/7atQg2DbjJRDBEQgrgRYr7atUzsWu8kq1Mel3NpbXppP8yIgAiIgAiLQUwQkyPQUyTrYT/GLDRvl/OIkvzJ1ULRFlyB/MUU4Kj6zrRf+aOOC00oiIAIiIALtEwh1arTuLJc75Cu3TsviQaDVFioe16urFAERqA0CEmRqo5wqdpalLyzekhc/YfIrU7Ey6M0DyV9Mb9LtmX2XPoM9s1ftRQREQATqm4Dqzvou3+5cXYf3hn/R7c7uta0IiIAIdIuABJlu4avfjcOPF7840WEeDHydia/8ytRmmTt/MYuX26pVr9nkUYNt/ykjEcrcXwuMoHwXJZp+o5zTaXQ9SqMLEsYpdE1KoztSP8z7LkqYbmhA16WUNSC8qMuHLko5rkdo9CSmvePeVpPwcC/VJjmdtQiIgAiIQJwJrF270f5x1X1xRlAX107dxb+P+PdZ6TB1Uay6CBGoCwISZOqiGHvnIqINafmV6R3Gldir/MVUgrKOIQIiIAIiUG8Exo8Zhg8V+HqBj1MMr83pLJ398j+W5bKcz0fEw5jJ5a83EDV6PcMH9ef3ROfime+0IdIjx1kn0EQuzK2PzGtSBERABCpEQIJMhUDX6mH4A9baL1t+ZWqtHOUvptZKTOcrAiIgAiJQLQS+8v4jrcUyZi1Z27q1xZq2NtuWLc22dUuTbW5qsWaMtzZnrAXrW1oyzjk+mvqUcJT6mAD0FmcRw3EOpsBpWPAyYEEuiTHFF/5zoowf9/Hp6vAiIAIxJiBBJsaF39lLj1rKcBv+gLnvDfIrQxBVm+QvpmqLRicmAiIgAiJQ5QTCu08iw+68fOvByw8b84xCiC67jCjYnEJ3XVjJeAfsSVjR0JomhYFbSJbpuyJ2L6ruhTWBMqMYk2JZJTBgHqWIcqQQQ3GG2fL5++6EdWQREIEYE5AgE+PC395LDz9Y8iuzveQqm1/+YirLW0cTAREQARGoTwKhnc7mOqcTFGPYgsfAxn1DOmuJbMqto789360JmfPdl+qTSo1cFQrMlxvFGCfBWII+8hry1jJ5ixn0XvLCDfOHAq+RS9RpioAI1AcBCTL1UY4Vu4roj5X8ylQMe6cPJH8xnUaljCIgAiIgAiKwTQJso9PhPYUY2L5Ylg7t4dgezmPgQwbjRqxvoUDDCAjosAT/MkrVQYDvrN5vTBJijA9a0JBM+cAEGCcoyqA8Wbb0KcPy9e+5sm6qjhLUWYhAPAhIkIlHOffoVfLHSn5lehRpj+xM/mJ6BKN2IgIiUMUE+MVbSQQqRcA36NlYzzfc0XhPwPqlIZOyXGPO0hBgks1s6GctAyUmh2iDtI7xXZgqdZY6TnsEnLjCsoNWBhnGRY/0USIZSRLdl9j1DGIM/kNgg3gDgQYTEGUorimJgAiIQGUISJCpDOe6O4r/gtB6Wfi9Q8If+ZVphVLBKfmLqSBsHUoERKDiBEp/c4pOwP8AFS3SjAj0DAE2ztFQhx8Z3mZpNOAZWSmBbi+Yg6VFwjLpnLVkMtbIKEzsqqTuSj2Dvqf2goIrdDOD4JJOpq0BFk4UZlLOHxAsZajYILGMO6xreuqctB8REAERiBCQIBOBocntJxB+uORXZvvZ9cQW8hfTExSrfx9r1260f1x1X/WfqM5QBHqRQGtjiY1j30DuxcNp1zEmEN5tiID3HRv0GVhYsEuLt36BbUwyCysLLM+wmxKEGljHZCP9lXIysuizOygR6Tbm6wpvJUOHzPQn43zJYNpbyaDcUFYplJ8vd99dKXoP9NmF6MAiIAKxICBBJhbF3LsXGf3Rkl+Z3mUd3bvzF7N4ub3xxhabOXEnmz56qAu5ybdH9pl2kSDwAsn5htB3OuW/6DU2pqxfOm2pxrQ1YtzYiJcUfC1K8wWlAcud2S6W4QWFL6K+D3Z4WdEXpGg59Pb0+DHDYBTvv7p6h5F4+c/hbZP/aRqPr7VuzHfI/JdZl7+3T0z7F4EKEBg+qD8qHPcf9VC0LsJ9775mR07CrY/Ma1IEeoBA+P1Lui4twZICv40ZRFXCb2ayIev9xqD+ZXcmpvyoB46uXXSVAKoDl3L5CeeQmeIauiOxm1KKXZZQnDl2Wyp51+nqMbWdCIiACHSFQGJj0zr/69GVrbWNCEQIhD7THPuBX4tylsGnigS+IPErUktzxpqzGcs0ZaypqcWaWlqsZWuL/XPp07b08dW2806D7ZBDp9mQITtE9qzJUgJRfzEH7j7Sdh0ykLqLb7hg7MxwucB9AfL9phsY8hFiC8WYxoYGS3OMFxKa7jIcpBsjAgGn+aWPQowf/NF9Y4gHUaoEAT5D/NqaRSOgBd9mrSVrW/GsNG1tti1bmm3rlibbjGeoGeOteK5asL6lJeNEOWxJCUdJBGqagKvSUI9xnEMjqgHdRFhPpVF/DeiPuqxfo+3Qv8Ea+jdafyxvgMBM3w/0C4GqLy/gqM6q6ZugD0+++J3Gv8+4OhkfPBIUwl39zJuT0/69hz/CEsT7sNDKHJo1CF+H/IBpimioH/jRylvGeKe+QXjTu04ZiFokAiLQqwRkIdOreOO186ilDK+cP358OZFfGXLouSR/MT3Hstr3FJ4p+i+gwOKapk4owwskv+rBkqmZQluhMYAXTEzjk59rJOBPtV+izk8E2iGQF1IoyOCeT+Nep1jMUMP8ug252AnGfEYw68SXdnakxSLQJQK8tyjK+HqYVqe8J71TX0rejNrTwOoWeSjKqLbtEuaKbORqE/9S6soRP6l4N0WdUmIZE35zK3JSOogIiIAI5AlIkNGt0OMEwg8aX1L4FcI1I/FDmMmwvzVeZvjy3IwP/hRr+GKdwFd95Nt/6lgbMbi/XX3PU3bzzctszpzJtvfeE3r8/Gp1h/IXU6sl173zzr9D8mnxz477uuefHTZOGxDdI4HQq8zH5813a0JmNhKURKCWCeCm9vc9xRgnwXjfD7CUoUCT5ICbHgYL7uHgb0/4/anly9a5Vw8B3k/FogwtYfx95oQY3qCQYtwtWD2nrTNphwB/J/lOmkKBsf5gir6ncl51CCkoiYAIVJKABJlK0o7RsaI/aPIr0/2Cl7+Y7jOs5T3wJRLfY/HiiBdJXEgW1jFpdNGA8xj4kMG4EetbsI7KJnJSlFESgXogwN8S35UAwkvwhZX0EVIaMGaYWlqL8dmgTxk+H/73R4JkPZR/NVwD76dWUcZpf24eTfn82Dfsea7SwauhxNqegxdiWpeHeiUs8XVGqDvCUo1FQAREoDIE5EOmMpxjexT3BQlXz7EfuuBXZmf4lTkkvn5l5C8mno9P9JmhdVmGfmHgJ8b7XoLPGPqTycCHDPzIZJuxHo5+M1Bi+PWWrYLw7MWTnq66Xgi4hhJaU/yKDRnGWVkyXC19YvXrV+wLC+pM3n+Md2pOBqGhVS88dB19SyBar0an+/asdPSuEIjWDdHpruxL24iACIhAdwhIkOkOPW3baQKhcckN+PWefi448MsnG5vO2W8Gzn7p9LeZzn6xDM5L74Wj3+uXrIQD2rTNO2SqjR+/c6ePWQ8ZO+svxvlWQHewBjrpRUOFDnsbED0pjehJjWi0NNL3AhsxWNZAx70YGF4g6fpPB18Moa+8GjHVcO+EZ4ZjOvblc2I577y32TnxhRgDIYaOfDPI04Lnh6E+XSMB80oiUDcEnCADoZEWYrCISSdRj6E+88IMHf2irmOdxq4IzlqmtQ5TQ6tu7oKquhBXz1bVGelkukJA9UNXqGkbERCBniYgQaaniWp/7RIIDUxmcH4u0GZkI5NdmoIow0gxzWhYtjAKE77+t2zN2FOrXnN+ZV5/Y2ts/Mo4fzG3L7dVL75mk0cNtv2njIR44tGyV4oLaU0zajRA2BBJQ4jhOEXBBQ2Vfgzn6EJa+6/IoeHi8qFBk+P6dpzZ6QWl3Vu44ivCMxNETFrJwAzGCZjuWeEKCpmIYMaIH7SO4TikHNuoSiJQgwQoLobEOokDrWRY91GUSbDeQ5elUPflsCyFG56CTDRaStiHxiIgAiIgAiIgAiJQjQQkyFRjqdTxOYWvSr6hWRJGkg1NCjJ5USbDkL6wBNiK0Nivb9pqV975uD27eoNNmTLaDkVo7HpNZf3FsIu6a5R4U3zYtLivxengUyHVgK/FCYS0TkOMSefFGIa4RgOFX4/RiEljzIYMNkSjxvsjKW24SIyprrsqCDIc00qGYkuwKsvgOQlCDIUap8MgXyJvHSMjmeoqS53N9hNAledSLj/hwtU6QxnUa7SWobCMqjAqMFO0CfVYGG//kbWFCIiACIiACIiACFSGgASZynDWUSIEikUZ+rqQX5mAR/5iAgmNSaD4WSkRMF23v1Yhhl0AfX5aTqnLku6g+iEAexjq0fkB01BdKLzQWiaLMS1jKDJHBWaJMfVT/roSERABERABEahnAhJk6rl0q/za2HgMDU5+3Y+7Xxn5i6nyG7aPTi88I/558aIMp50Ag35s7Mrm8vB56qNz1GFFoLcJOGOZvKUMxZcMLWVgNUbhpVSM4blIkOntEtH+RUAEREAEREAEeoKABJmeoKh9dJmAb2T6ZiRFGXaziJtfGfmL6fLtE5sNneCCqw3PC63K+KwUL48NDl1ojAl4SxknzzghhihoLcMURJgw9kv1VwREQAREQAREQASql4AEmeotm9icWXGjsqRbRp37lZG/mNjc5t2+0Ohzwp35+WRBlAkHoFCjJAL1RiBvHFO4LIou7KIUUhBhwjgs11gEREAEREAEREAEqpmABJlqLp0YnVu0scnpOPiVkb+YGN3gPXip4VnhLqPTPXgI7UoEaoJAVHyJTtfEyeskRUAEREAEREAERAAEJMjoNqgqAl6M8V8969mvjPzFVNVtV5MnIzGmJotNJ93DBCTE9DBQ7U4EREAEREAERKCiBCTIVBS3DtYZAqWiTD35lZG/mM7cAcojAiIgAiIgAiIgAiIgAiIgAvVPQIJM/ZdxTV5h+PrvxZn68CsjfzE1eSvqpEVABERABERABERABERABESgVwhIkOkVrNppTxAoFmVq26+M/MX0xB2hfYiACIiACIiACIiACIiACIhA/RCQIFM/ZVm3V1LahSmbzRkHRthgiOyW5ow1ZzKW4bi5xZpasGxrs937+Gq7fslKSzembd4hU238+J37hJH8xfQJdh1UBERABERABERABERABERABKqagASZqi4enVwgUCrK1IJfGfmLCaWnsQiIgAiIgAiIgAiIgAiIgAiIQCkBCTKlRDRftQSKuzBVt18Z+Yup2ttIJyYCIiACIiACIiACIiACIiACVUFAgkxVFINOorMEikWZ6vQrI38xnS1N5RMBERABERABERABERABERCB+BKQIBPfsq/pKy/twlQtfmXkL6ambyudvAiIgAiIgAiIgAiIgAiIgAhUjIAEmYqh1oF6mkCpKNOXfmXkL6anS1f7EwEREAEREAEREAEREAEREIH6JiBBpr7Lt+6vrrgLU9/4lZG/mLq/zXSBIiACIiACIiACIiACIiACItDjBCTI9DhS7bDSBIpFmS76ldlpsB1y6DQbMmSH7Tp9+YvZLlzKLAIiIAIiIAIiIAIiIAIiIAIikCcgQUa3Qt0QKO3C1Nt+ZUr9xQzr3+BYJpJmiUTCkhgwYalUylLppDWkU9aA6XQjxuk0xklr7NdgjVzf4Jc1IB/zWippyRz2kcQ4mcBucm6fPAD3rSQCIiACIiACIiACIiACIiACIlDbBCTI1Hb56exLCJSKMr3hV0b+Ykqga1YEREAEREAEREAEREAEREAERGC7CUiQ2W5k2qDaCRR3YepZvzKl/mJmjBnqccBqhVYszqLFYOECq5Z0mgMsY1INlmxIWGNj2vrBMiaFcSPGjbCQSTXAUgZWMGmMUylavniLmKhVTLCICeNq56/zEwEREAEREAEREAEREAEREAER2DYBCTLbZqQcNUigWJTpGb8yUX8xB+0x0nYduqMjE7oTsYuS66ZEgQVCjBdj2B2J4kvKGhsaXHelRnZdQhcldmVyY3ZTwnTOdVFiNyUOHjpFGAkxNXgD6pRFQAREQAREQAREQAREQAREYBsEJMhsA5BW1zaB0i5MXfMrM81Wr15ny5e/YDsNHmAH7TnahsJfTBB9KJhQiMkBlfzF1Pb9orMXAREQAREQAREQAREQAREQgUoRkCBTKdI6Tp8RKBVluuJXhie/+y7D7JA9xlq2JWPonQTvuvyDEYYcPPmyy1E677g3SSe9GPph3ndRwjQc+LrlcNjLfGnkz3F93jImWNoEi5gwdgfRHxEQAREQAREQAREQAREQAREQgboiIEGmropTF9MegWDN4sWZ7fMr8+O/3mujhu1opx00xVpaspbJZDCwG5Q/GrsYeTEGQksyLX8x7RWClouACIiACIiACIiACIiACIiACBQIpAtTmhCBOiZAaxOKMd7qhM53OZ20RDZnGTwFafpqYYjp5oQ1Ox8uWMeuSIN8iOlRIwbC8S4sXCxjLfTZi+3zeozrrpSi1Qu2Z/jqdv3F0BrG+YtJlvEX433FyCqmjm9CXZoIiIAIiIAIiIAIiIAIiIAIRAhIkInA0GR9EygVO6C3IOFPNmlZyCvpNEUaLGk2a27EGNPBuW4S4k2/fimDXmPJloRlEtgi32UpxYx5B70NGKcRPamhHxz5YpoCTRoRlRooxGAwCDfYENl9NKXQTcmdiT+h+i4EXZ0IiIAIiIAIiIAIiIAIiIAIiIAjIEFGN0LsCARhhhYzXnDx1imZTBbiCS1jvCjTQrEG1jJM7JLUz1nIJK05lbEk8mZzWW9Fgw0otjQkI/5imJd+ZMr5i8G+vBBD0cfvP4xjVxi6YBEQAREQAREQAREQAREQARGIKQEJMjEt+LhfdlQAcd2PYLUC9cWy2ayzYmnAnMuTF0xSUG4aG/G4QKBJw0KmhT5kYFfDlEzQCsZ3V6KFDLssOcsYbJNGyGuKOdy3nPc6XPojAiIgAiIgAiIgAiIgAiIgAiIAAhJkdBvElgAFl235lYEq4/gkaCHDKEkQWZrZ7QiOfZO5lGdHp74QZNhFidGTKMa4rksYs2tSLh9Fic5/oxY5UVEotoWgCxcBERABERABERABERABERCBmBKQIBPTgtdlewKloojXXyDCFPzK+Hz0IZOCbxiuT7ZAyYSykg0+ZGj9AsEmWMU0MKR1XozJZuUvRveaCIiACIiACIiACIiACIiACIhAWwISZNoy0ZIYEgjCTNSvDDFkIcwwJaHE0EdMSwP9vzgfvr57E9bRCobOehvYRQmWMkGMoWWMnPc6fPojAiIgAiIgAiIgAiIgAiIgAiJQQkCCTAkQzcaXQBBlSIB+ZeBFpgCDIgz9wVhzxjLoqZTDevqEYWK4bIbNpvjCrkvs1iTLmAI6TYiACIiACIiACIiACIiACIiACJQhIEGmDBQtii8BijK0kmGCroKUF2UouGA+B8HFLYXzX4bKZkJHprwYk8I23J6+YrwlTQhrHRV73Eb6IwIiIAIiIAIiIAIiIAIiIAIiEGsCEmRiXfy6+HIEgnjS6vDXyzK0hEnmMuieBNEFIkwybyED7cUJMBRwcnTcC52m1YFvuSNomQiIgAiIgAiIgAiIgAiIgAiIQNwJSJCJ+x2g62+XgBdmvBUMM8E/r/MlE8ZhDYUYijXOugZ5YBtT2CeXBYGnsFATIiACIiACIiACIiACIiACIiACsSfg+1/EHoMAiEAxgVIRBboKlBaqLV5gyU/mF3GZl2cSmbC+VZQp3rPmREAEREAEREAEREAEREAEREAERIDuL5REQAQ6SSAvujhdhsKL12haRZqoCJPt5D6VTQREQAREQAREQAREQAREQAREII4EJMjEsdR1zV0iQOsXn0JnpS7tRhuJgAiIgAiIgAiIgAiIgAiIgAiIgCxkdA+IgAiIgAiIgAiIgAiIgAiIgAiIgAiIQKUJyEKm0sR1PBEQAREQAREQAREQAREQAREQAREQgdgTkCAT+1tAAERABERABERABERABERABERABERABCpNQIJMpYnreCIgAiIgAiIgAiIgAiIgAiIgAiIgArEnIEEm9reAAIiACIiACIiACIiACIiACIiACIiACFSagASZShPX8URABERABERABERABERABERABERABGJPQIJM7G8BARABERABERABERABERABERABERABEag0AQkylSau44mACIiACIiACIiACIiACIiACIiACMSegASZ2N8CAiACIiACIiACIiACIiACIiACIiACIlBpAhJkKk1cxxMBERABERABERABERABERABERABEYg9AQkysb8FBEAEREAEREAEREAEREAEREAEREAERKDSBCTIVJq4jicCIiACIiACIiACIiACIiACIiACIhB7AhJkYn8LCIAIiIAIiIAIiIAIiIAIiIAIiIAIiEClCUiQqTRxHU8EREAEREAEREAEREAEREAEREAERCD2BCTIxP4WEAAREAEREAEREAEREAEREAEREAEREIFKE5AgU2niOp4IiIAIiIAIiIAIiIAIiIAIiIAIiEDsCUiQif0tIAAiIAIiIAIiIAIiIAIiIAIiIAIiIAKVJiBBptLEdTwREAEREAEREAEREAEREAEREAEREIHYE5AgE/tbQABEQAREQAREQAREQAREQAREQAREQAQqTUCCTKWJ63giIAIiIAIiIAIiIAIiIAIiIAIiIAKxJyBBJva3gACIgAiIgAiIgAiIgAiIgAiIgAiIgAhUmoAEmUoT1/FEQAREQAREQAREQAREQAREQAREQARiT0CCTOxvAQEQAREQAREQAREQAREQAREQAREQARGoNAEJMpUmruOJgAiIgAiIgAiIgAiIgAiIgAiIgAjEnkA69gQEQASqmEAul+vS2SUSiS5tp41EQAREQAREQAREQAREQAREQAQqQ0AWMpXhrKOIQKcILDjl8zbzkA/buz7w/6y5udltQ1EmOnz68z+xWYd+xB5a9lRheenOQ/7S5ZoXAREQAREQAREQAREQAREQARGoDgISZKqjHHQWIuAINDVn3PjRx561v1y5qCC45HIJy2bNDS0tPk8264UabhAEmOg4utztVH9EQAREQAREQAREQAREQAREQASqhoAEmaopCp2ICBQTOO97l9grL6+HCEMxJlcYQi8mCjRRoSYINlxWTpgp3rvmREAEREAEREAEREAEREAEREAE+pKABJm+pK9ji0A7BKZNneDWnP/jSyDEZC2TwZDIuQFqi1tH0cUtx7qoYOMtZ7xFDTMyn5IIiIAIiIAIiIAIiIAIiIAIiEB1EZAgU13lobOJMYGocPLlz53lSNxwy1K7865lmM5agl2VMNAChimJUQIiTZZCDdZTsKEYQ5HGizK+ixPzBosZTiuJgAiIgAiIgAiIgAiIgAiIgAj0PQEJMn1fBjoDEWhDYPhOQ+1LnznDLf/f7//RNm3cYi0tEF0wBOGGvmQovhiGRH6gcJNMhu5NzOu7NbU5gBaIgAiIgAiIgAiIgAiIgAiIgAj0KQEJMn2KXwcXAU8giCyBB+dPOvEQm46uS6tf2WC/vOhqa4YY0wynv9l8FyR2ZWrBPEWalgwtYyjEwDqG4gysZbwY0+r4l/suPU44nsYiIAIiIAIiIAIiIAIiIAIiIAKVJSBBprK8dTQRaJdAVCyBjGLpRML+6z/OdPn/fPnN9sTTz1szBJccLGCYaDHjBggwFGUysJjJUpihs1/kC5Yy5YQZtwP9EQEREAEREAEREAEREAEREAER6DMCEmT6DL0OLALtE6DkQoFm/LhR9u53HOMyfuv7l1qmqcXSeR8y8CZjLcjTks24gd2XWjBkM7CacSGyIeukvIVM8DvDHUWFH7dj/REBERABERABERABERABERABEag4AQkyFUeuA4rAtgk0IguFE1q3nHXGUTZu1Ah7cuULdu0Nd7tuSdxDAtYwOTr5pXUMxRhkZnelDBz70kLGCS/emGbbB1QOERABERABERABERABERABERCBihKQIFNR3DqYCHSOgLeQSThBprGxwc75+Dvchhf+7mp7cdVaN52B6OIjKmGWAgznMZmjIOPEnJylOE9VR0kEREAEREAEREAEREAEREAERKCqCEiQqari0MmIQDEBSCtOlJm19yQ78ch9bXNTk73wshdk6MCXYgtFGTr0hbdfJ8pgaT7stRd0iveoOREQAREQAREQAREQAREQAREQgWogIEGmGkpB5yAC7RBIGP4luDJh7zv7JBvQyM5MrQmaTMEaJgtBxokyWO0tbIKlTGt+TYmACIiACIiACIiACIiACIiACFQHAQky1VEOOgsRcAQaG9jJyCwJFcYLMTlIMZBj8GfQwAH2yY+e5ta7PEn/+LJHEgcnyGBFmC9kzC+LzmtaBERABERABERABERABERABESgbwmk+/bwOroIiECUwFWX/58TVhDA2jnsTVCYoeAC8SWZy9hR82bakYfOxCa+KxPFl2hy86UL8xnYvYn7UxIBERABERABERABERABERABEeh7AhJk+r4MdAYiUJYAxZNkEoKME2MQzjqXfA/OlQAAQABJREFUhJNeL8TQfwxTgmpNPlFr8UN50UViTCClsQiIgAiIgAiIgAiIgAiIgAj0PQEJMn1fBjoDESgQ8KIJRBYnrniFBZoMDGLwJ5W0LASYBCxdUgnfXYndlEIUpWS+C1M5YYbLlERABERABERABERABERABERABKqHgASZ6ikLnYkIOAIUZRIZ70PGaSwQYhA3yVIwiqE4k8OfLPQYCjGpBCMtRdQW5E1Czwk+aGhh004PJtEWAREQAREQAREQAREQAREQARHoQwISZPoQvg4tAlECFGJyuazz80KLliwGCisUYPig0jqG4gr+OtGFM1kKLljH5dzGiTEUZbAc/y2DhSnnFrj1SOq61MpCUyIgAiIgAiIgAiIgAiIgAiLQVwQkyPQVeR1XBMoQ8KIMxRVYyNAiBuIKpBiIMd6XjOuelDd5YXelJKajggw0GEtRkEn5/JbBvjhNtcblLHNQLRIBERABERABERABERABERABEag4AQkyFUeuA4pAWwJeiKG0QjEGQgvNW5DouzdHgQXii0sY+UDYtIahxQytargwvy0dAEPD4f7YrSmF9dRiuE8vyvjd6K8IiIAIiIAIiIAIiIAIiIAIiEDfEpAg07f8dXQRKCLQKpp4IYXiitNb0O0ol0LWvPDCjVJOh6EQA8UlLKclTUGM8V2XfCQmL/C07p97UBIBERABERABERABERABERABEegrAhJk+oq8jisCJQQoloSIScFKxokxBSsYbtCax2/uhZZcOm8hA2fATLSMcSGznUDjLWZ8fv0VAREQAREQAREQAREQAREQARGoBgISZKqhFHQOIpAnECxYKMx4yxaOEWXJ6y0hV4FXWF4QcuAvhgk6jNvej8MyPy5srAkREAEREAEREAEREAEREAEREIE+IyBBps/Q68AiUJ5AEGVa11KUaZ0LU1604Rwd/3rLGb+tj9TEZWFfYRy21VgEREAEREAEREAEREAEREAERKBvCUiQ6Vv+OroIlCVAAcULLmWUGGxRvC7fXcll9T5logJMdLrswbRQBERABERABERABERABERABESg4gQkyFQcuQ4oAp0jEBVSQpeksGV0XVhWOu5MntJtNC8CIiACIiACIiACIiACIiACIlAZAhJkKsNZRxGBbhGQuNItfNpYBERABERABERABERABERABKqOAJ1PKImACIiACIiACIiACIiACIiACIiACIiACFSQgASZCsLWoURABERABERABERABERABERABERABESABCTI6D4QAREQAREQAREQAREQAREQAREQAREQgQoTkCBTYeA6nAiIgAiIgAiIgAiIgAiIgAiIgAiIgAhIkNE9IAIiIAIiIAIiIAIiIAIiIAIiIAIiIAIVJiBBpsLAdTgREAEREAEREAEREAEREAEREAEREAERkCCje0AEREAEREAEREAEREAEREAEREAEREAEKkxAgkyFgetwIiACIiACIiACIiACIiACIiACIiACIiBBRveACHSSQC6Vy+dMdGILPVqdgKQsIiACIiACIiACIiACIiACIhBbAmo1xrbodeEdEcjlvPgSxj6vF2Lyq4xjN40/zBfyRqe5XVje0fG0TgREQAREQAREQAREQAREQAREIF4EJMjEq7x1tdtBwAsp/hEJwotXYNqKLLlcXqxJtR6gVJhpXaMpERABERABERABERABERABERCBuBNIbGxaF/phxJ2Frj+mBK65fYVd/q9l7V59Lpu1nCUsmWy/q9I3Pny0DR/c31KppGWzCTdOIHsyL3kmOIMUxu0eTCtEQAREQAREQAREQAREQAREQARiQSAdi6vURYpABwSOO3APu/bOFTZ80A626+ihwQjGbYGOSK7LkbOAYbckN9/aVeneR5+3I+ZOsSE7NEKIoeCCHKkEprMQYyjO+GXcGcUYWs1IlOmgMLRKBERABERABERABERABERABGJCQIJMTApal9k+gRQElOMP2sMuveFhW3Dg7rb/XrtAOKGoknNDLgkRJZM1/Dday7RgIod1v7jyPogrZvPnTrQMlrG3UhYLaBSThaUM1RiKMpBiXD6JMe2XgdaIgAiIgAiIgAiIgAiIgAiIQNwI5DtUxO2ydb0iUEzg2AP2sEE79oOlzBNFYkwyIsZkM5mCGLPihbX22DOv2LzZk2xQ/waDPuNEmWyGIk7WCThZWMtw2gs7/njyK1PMXXMiIAIiIAIiIAIiIAIiIAIiEFcCEmTiWvK67gIBiiTBSua51evs7oefcyIKxRhavtAyhmJMBqoLLWPoUebm+1e6rkeHzZrgxJhszgsvGQoyTpSBVQ3zsgsTuzq5iEzt+6ApnIwmREAEREAEREAEREAEREAEREAEYkFAgkwsilkXuS0CFE2O3m93ZyVz3d1PGrspZaHEwMClIMZwPgM5ZsVza23FM6/aYTPH2xBYx7AbEy1kKNTQIoZdmvy2eVEG+yq1jOG8kgiIgAiIgAiIgAiIgAiIgAiIQHwJSJCJb9nryksIMELScei6RCuZJcueh8hCixhayOTFGRi4UKC55YGn89YxE90eEvl8QZShFQ0ta9hVyQkvzjomWMnkl5UcW7MiIAIiIAIiIAIiIAIiIAIiIALxIiBBJl7lravtgADFk6P23c0GDexv1939FMQU79iXxiyYdN2Onnh+rT0O65hDYR0zGJGVmHL5kNZRSxnav3Ce+4SBjNvWZdYfERABERABERABERABERABERABEQABCTK6DUQgQoC+ZI45cDd7fs16W7L8Rb+GFjD4x7TowWe8dczsiejWlCyIMW5lXpjhNEUcn+Q3JpDQWAREQAREQAREQAREQAREQAREoJWABJlWFpoSAUfg6DneSuaGe58qEEHgaqN1DH3HzIMj36E7DnDCTAKiTGGICDKFDfNCTuu8pkRABERABERABERABERABERABERAFjK6B0SgQCABQYVDElYyxx4wxVnJ3P/4KgguWA6Ll1vzvmMOnzPJsKhoSCAD9Ri3HOINp8P+sm6a863LCgfVhAiIgAiIgAiIgAiIgAiIgAiIQCwJyEImlsWuiy4l4MUTL6pQODmCEZfgS+am+56GyALrmFWveeuY2RNsyMB+TqChSMOBiRY02MzPIz+3cZYz3FleiHEZ8394PCUREAEREAEREAEREAEREAEREIH4EpAgE9+y15XnCZSKI5xPY4haydx8v4+sdOScyQURJgAMwowbowuTs5LBH0x6K5kMLWb8ELbRWAREQAREQAREQAREQAREQAREIN4EJMjEu/x19SUEfNcjiifFVjKPPf2KzZ89yYbs0K9oC0ZfCsmLLui2BDEmWMdknTDj9xf2HfJrLAIiIAIiIAIiIAIiIAIiIAIiEF8CEmTiW/a68giBYMESRBWOU2krWMkw65H7Ti5s4cJg58WYgihDKxjk4Lat1jF5KxkqPPnE9UoiIAIiIAIiIAIiIAIiIAIiIALxJiBBJt7lr6svQyBYsiThjfeYvC+ZI/edAuuYRpfbiTGYysJ/DIe8Gxm3zgk6jLzE9SXWMS6D/oiACIiACIiACIiACIiACIiACIgACEiQ0W0gAhECTlChpQsUFU6/2dxs/RtTlk5DZIlYtuQoxGSzfuB03ujFbwfnwBRlMsXWMWHfkcNpUgREQAREQAREQAREQAREQAREIKYE0ClDSQREgAQomOSotOSnV7+20X7xl7vslXVv2PV3PWFbm1vslEOmOosYijGJfF63Dbb1YgzHCWOoa6qdXAZbGU5xQkkEREAEREAEREAEREAEREAEREAEHAEJMroRRKAMgRXPvmwXXHG3bXxjqx166DRb9dI6u3XJ0/b6pi125rEznRiT12NgHpMr7raE/eUo0ORFGFnGlAGsRSIgAiIgAiIgAiIgAiIgAiIQcwISZGJ+A+jy2xK455EX7OcQY/o1pu2YY2ba2LHDbcqU0TZgQKMtXfacbYBI8+6j97aB/b1PmQQcyeTQRakg0LTdpVtCYUZJBERABERABERABERABERABERABEggsbFpXdQnqaiIQKwJXHvHCrvk+odsyNCBNv+w6TZs2I5FPB559Hm7794nbWcsP/PovWwU8qVS8BeTSlgaokxDA/zNYDAsS6HTEkNgY7HrxsQdSZQpwqkZERABERABERABERABERABEYgtAQkysS16XXgpgUtvfNiuWfyYjRo9zA6fP9365y1gSvM9/fQaW7ToUevfr8FOP2KG7bnrcDj9TVkCQwOEmIaGNEQaWsNAlME8RZkQuUmCTClNzYuACIiACIiACIiACIiACIhAPAlIkIlnueuqSwj88q/32O0PPmsTJ41yljElq9vMrl4NnzK3PmpbtjTZqfOn2X57jHGiTArWMQ0pDIjMRDEmh/BLzoImgchL9CuTH9rsUAtEoMIEggPrCh9WhxOBHiUQV5Fbz2+P3kbaWY0SiOvzX6PFpdMWARFoh4AEmXbAaHE8CGza3GQ/v/xuW/bUaps+fVfbb7/dOn3hGza8CVHmEVu3bpMds/9kO2LmRNdlKUVBJtJ1KVlGlOFB9CLRadTK2IMEog256HQPHkK7EoGKEIjWodHpihy8jw4SfWaj0310OjqsCPQZgegzH53usxPSgUVABESgiwQkyHQRnDarfQIvvrLRLrj8TnthzQabO3eK7bXX+O2+qKamFrsFosxLq16zA/fa1U4+aHcvxqTTsJhJFvzJUJRJwplMMtlqKcOD6SViu5Frg+0k8NULbyy7xbacUJfdSAtFoA8ITBwz1N57wpyiI7PuZFfQkEJdGsZhea2P9fzWegnq/LtLIM7Pf3fZaXsREIHaIKAoS7VRTjrLHibw2DMv208vu6sQ1ppRlLqSGhGJ6VhEYrpt8XK7a9nztunNrfauI2e4iEu5HJz7IvEhS6D7UjabxZT3KYPA2E6M4RfOemtA8JqVqofAs6vW2fARg6rnhHQmIrAdBF5bu9EmjB5qLS2sPyliByE75/xzcRkdp4e6NIy5vB6Snt96KEVdQ1cJxP357yo3bScCIlBbBCTI1FZ56Wx7gMDdCF19AbopRcNad3e38w6d5sJiL8O+f7m52YkywwYPMBjGeHGmIQdfMinLZCTKdJe1tt9+AiMgyBx80J7bv6G2EIE+JrBw4c0Qs2EJk8s4NYaWXRSxM6xb8ccL2q3WMpyvN1FGz28f34Q6fJ8R0PPfZ+h1YBEQgQoSkCBTQdg6VN8T2FZY6+6c4b7o9jRgQKMLi/3Lq5faGbCUGT9qSGSX3sEvRRk6+/Uhsdua3Ec20KQIdIsAG6ZKIlDrBLK4j5uaMgXrmITr/omrwjjDbkvZVstDXmu9WB3q+a31O1fn3xME4vr89wQ77UMERKA2CEiQqY1y0ln2AIHOhrXuzqFmwDHwDhBlGBaboszph0+3GZNGWq4xWMoYLGUS+OILG3uXKMxwnW8410tDojsMta0IiIAIRAlk0N1zS1OzOSEGljHJRNJSSQjceINBb1DLpLEQxocUudmlianerGT8VemvCMSPgJ7/+JW5rlgE4kZAgkzcSjym1xvCWk9GWOt5h03vVQqTcAxayjAC0++ve9CFxT5g6jgvysB3DH3LwOcvvuyyEUFhptXcnicmUaZXi0c7FwERqDECOVgVNm1pceI1naNT1M7QaTqE7Fwa9WkiaxksY32agFgDOUb1aI2VsU5XBNojoOe/PTJaLgIiUC8EJMjUS0nqOsoS6E5Y67I77OTC0aOH2YIFc1wEpr/eutw2bd5qR86aBFEmDUEGO8GfdA7m9pEvu2xERJOEmSgNTW8vAVoIBMur7d1W+UWgmgjQoe/WrU00jXFiTDqZtgZYxOQavDkM68o0fcc4wZtijD/7WraS0fNbTXegzqUvCcTx+e9L3jq2CIhA5QlIkKk8cx2xQgR6Iqx1d051yJAd7PgFs50oc8M9K23jm00Iiw3Hqo0QXvIRmBiHKQObezqnTNH2Pi/KsIFRy42J7nDTtiIgAiIQJdCSzdhmCDIpRKlLwzImAyfpjFrXD5no3DeVyRj0bZgXppzgrbozSk/TIlDbBPT813b56exFQAS2TUCCzLYZKUcNEuipsNbdvfTisNgvICx2k5151F6WQIOCjYYGdl/CQRgWm85+aY5PPwgUZiTKdJe+thcBEagHAq7LwuYWS8CikJaFjYy6BDUm1YIuSuy+xG5MWJTAH9arMKWRoF0PBa9rEAEQ0POv20AERKDeCUiQqfcSjuH1tYa1brBjjplpY8cO73MK0bDYF25eqrDYfV4iOgEREIFaIZCBANOcgQ+ZTBKWMRBe+mUs2ZywZvqRyaTgOibrQmND58ZKNOAgyoRuS7VyjTpPERCB8gT0/JfnoqUiIAL1Q4BGvkoiUDcEGNb6gsvvtiFDB9pxC2ZVhRgT4DIs9r777WbPvLTORWB6bs0GyzRn0NDIWEsznFLCQiaBEK4cc2DDgw2LMIT9aCwCIiACcSKQoyCDurIFlWIO/mRYX7Zk0G2JA5c5o0LVlXG6J3St8SGg5z8+Za0rFYG4EpAgE9eSr8PrZljrS65/yEbRoe5xs2zYsB2r7ioZFptRnl5d/4YTZZatfNlamjLWBFGmGWM6r2P81iwaIH7wlyBRpuqKsiZOiPeNkgjUOoEs7uNmJ1pnLJPDgPoRNaSrI3mPY9YJ17V+naXnr+e3lIjm40ggrs9/HMta1ywCcSUgQSauJV9n182w1tcsfswY1ppiTP/+jVV7hTzH43COOVjDMCz2XctfsJatLV6UaW4piDIZhHINokwQZPSCXrXFqhMTARHoJQKs9xI5Wg56i5gEBWssc//yYgxmlURABOqQgJ7/OixUXZIIiEARAQkyRTg0U2sEGNb6O3+4zW5/8Fmbnrc+qYVrYFjsExbMdVY8DIt909KVEGWarakFljI0zceQgLVMBqINRZkcbPKjooyEmVooZZ2jCIhAjxCg6IId+Tow1IUJSzoxJnIEijQSZiJANCkCdUBAz38dFKIuQQREoCMCcurbER2tq2oCfR3WurtwGBZ7gcJidxejthcBEYgJAYotXoym8CLxJSbFrssUAUdAz79uBBEQgXolIEGmXku2zq+rWsJadxezwmJ3l6C2FwERiAMBCjDtRk5iS01JBESgbgno+a/botWFiYAIgIAEGd0GNUegNax1umrCWncXosJid5egthcBEYgDAUkvcShlXaMIlCeg5788Fy0VARGobQLyIVPb5Re7sy8Oaz27qsJad7cwFBa7uwS1vQiIgAiIgAiIgAiIgAiIgAjUDgFZyNROWcX+TBnWmpGUGNb68PnTqzqSUlcLi2GxBwxotNsWPerCYp9++HSbMWmk5RA0yvWfbjBLpRJw9Bu0VDi2xKT3q2Aw6U909dDaTgREQAREQAREQAREQATqmkB4Z67ri4zBxdVTm0eCTAxu2Hq4RIa1ZiQlhoyed9j0erikdq+B10hRZtGty1xY7FPnT7MDpo7zogwDveZSlsaTm6H44oSZBISYVkPeeqqg2oWkFSIgAiIgAiIgAiIgAiLQSQJRISY63cnNla2KCLCtE8qwHto9EmSq6ObSqbQlwLDWP7/8blv21GoX1nq//XZrm6kOl4yBFdBxCIu96NZHjGGxN23eakfOmgRRJu0sZfgnnUtaJk1RxmAlQ8uYVlGGSOqhgqrDotUliYAIiIAIiIAIiIAI9DKBr154Y9kjyA98WSxVuXDimKH23hPmFJ2bb98Ut3mYoZbbPRJkiopYM9VEoNbDWneX5VCFxe4uQm0vAiIgAiIgAiIgAiIQQwLPrlpnw0cMiuGV18clv7Z2o00YPdRaWvDlGYkdA4IY4z9E84O0d9vA5bSYqVVRRoJMfdyzdXcV9RLWursFo7DY3SWo7UVABERABERABERABOJIYAQEmYMP2jOOl17z17xw4c3wmQlLmFzGqTG0bKLgkoEwk8MfL760um2oZVFGgkzN3671dwH1GNa6u6WksNjdJajtRUAEREAEREAEREAE4kAg+BeJw7XW8zVmocI0NWUgvngxJgGTGFrF8E+G/jPhSzPqtkEWMvV8N+jaKkaAYa0vuf4hGzJ0oM2H895hw3as2LGr/UAMi01nv/fd+6SLwHTGkTNs/KghkdNOIAITKqhMFmZ7jL7EobWPZa1WUpEL1KQIiIAIiIAIiIAIiIAIiEAMCGSyWdvS1GxOiIEok0wkLYX2TQomJWjyFPnSpGjDVItdl6gxKYlAVRBgWGuKMQxrveC4WRJjypQKw2IzytSr699wosyylS9bC5TjpkzGmjH2/SyzzsSPZn6ox1xi5aSvBWWAapEIiIAIiIAIiIAIiIAIiEDVEcjhI3PTlhZr3tJkzVtbrKW5GW0ezDdjOgOfMVifSfh2Dz9G12pbR4JM1d168TwhhrW+ZvFjLqw1xZj+/RvjCaITV82w2MeBEUNd//66B+2u5S9YCyopJ8qwgnLOr1orKIoyQZCp1YqqE1iURQT6nEATvuLUY8pA8FUSAREQAREQgVogEN55a+FcdY4dE2CbZuvWJtu8tRmWMk2YzlimKWvNEGJaWjANUSYZaeeEvdVae0c+ZELJadwnBOIa1rq7sEe7sNhz7NZbH1VY7O7CjPn2zRARNqx7fZsUhu88DF3gOq/hb3p9k214bdv7DQduaGywkWN3DrPbN0bPvNc3bLRX16x1w8svvWpb39xib/u3k/NO37Zvd13Jvfbl1+z8c39s43YdZZ/66ke7souKbLN+7Qb7xbd+Y0ecdJjtf9jcwjEvuuBSy8Gq7j2fOL2wjBMrVzxjF56/0M7+1Bk2bWaxY8Q1q1623/3gj3biGQtsrznTirbjzPMrX7CfnvdrO/HtR9u8BYe0Wa8FIiACIiACIiACItAegZZsBmJMk6Usaek03DI00Po/a/2wAZ37pvDBKMdX00QKH59rs7sSr12CDCko9QmBuIe17i70oUMG2vELZtsttz5iN9yz0ja+2WQn05N8I2uklNs9/2bQyZLeyOlfBivc8lr2RO4uQH96jMDzT79oP/rGhdvc3+fP+3cbOGiHsvkGDBxgjRBUounOf91jV19+Y3RRh9Pjxo+y/zzv02XzPHzfI0402gKRZcvmrbZ1y1bbjPFmzG9cv9GewzWUph0HDbR95822CbuNL13V4/NbYUr7q+8stC04r8HDB9vtN95V9hjjxo+xiXtMKLuuUgtbWlrspVWv2Bub3iw65E6jRtg//3KT7XvorCLh5eZrFrvr2mXC2KL8nGlp8vvatGFTYR1Fmiy+XDFRwCOTuxbdZ7vNmFLIw4lRY0da0tVJRYs1IwIiIAIiIAIiIAKOgOuytLnFEumEpaG8NDLqEtSYVEsSGgwiLuE9I4VFCfzxVjFo80CZqTW/mRJkdMP3CQGFte4Z7AqL3TMc47yXkWN2srM/eYZd9efrLIMvEW8984QCjoU/+bPtOWM3mz5rT/v2uT8qLC+dOPHtx9gxpxxRutjN/++F/w3na14gLJsBCxf++E+2fu269lbbNZde70SEkKF//342DMLHjoN3tBE7DbMJk3exwcMG2c5jdradISzsNHon61ehbo8ZmMz++ReXFc5v6d3LjEO5dNxbj2gjyFBU+tKH/8fGTxxnn/3mJ8ptVpFlR8Fi5v47HrBLfv1XO/f8z1pjv0ZnbfTwkkftsGMOtEFDB3XqPH78jV/apo1vFOV98bk19q0vFd8/n/2fj9t4lJuSCIiACIiACIiACJQjkIEA0wyfMclM0vnFTPTLWLI5Yc2wlklnUgiy5P3HwHAGqkywkCm3p+peJkGmusunLs+uENa6X4Mdc8xMGzt2eF1eZyUvSmGxK0m7vo5FUWP2gfvYPbcucVYTnA7pkl/9FZYMO9mBR+yHxvmrdtuNd9sRxx9itKZgophwFcQSdjdqL33937/V3qrCclpR0EKmozRt793tA599D0xW8bOV96TfUf5KrHsd1jkLf/hHe+qJ59zhTj3rBJt33MEuCkA4/v13Pmi//9klTtg64sR5YXHrmDa2SJlsS+uyXph64ZkX7ZXVa20TzpnphadX2dK7HrJxE8bYGxu9tcycg2fZLbCIefSBFTZkGCx9brrb5d1l0jh7+vFnbdCQHV3Z87pfX/+6rXnxFbeeXcW4/10mjLP3n3OWvfT8arsb99NJpx+HsvKFtfmNzfbbH11sBx8+12YdNMtGQjRTEgEREAEREAEREIH2CLArdXNzBlb+Zg0tCWthhCX40EzBdwy7LuXQVYl9lbx1TF6VaW9nVbxcgkwVF049nprCWvdeqSosdu+xjfueaW1CoYGCzOQ9J9ne+053SJ5BI51p7PjRblzuz4f+470ITdix75m//fEa/OA2ldu8sIyhDtMN1fOT9eyTz9svv/t7Zw1y7MmH2ysQrP6K63jsoSfsXR95uw3Yob9difnbIGocCF8t73j/Kdu0FCpcbC9M3Lf4Abvln7cX9rwEQhGHU886Eed9dWE5J34Hi6VouvjCK9wsLWXedvbJtvj6O+36K28pZLnxqkXG4XsLv4n7YyKsnTa4bmQtcDI+ffZUl+82bMO05z572h4l3ZfcCv0RAREQAREQgR4iUGtOXXvosutuN1mILc3NoRs0vvFk0SXJQlQlTEGDqYeyrp6327q7hXRBpQQY1pqRlBjW+vD50xVJqRRQD8wzLPaAAY1226JHXVjs0w+fbjMmjbQcglbxQ3wOhgwp9LnMokLzKQE/D62VWa31uewBZNpFhAB9sXzjnPMLS2i5EtJOI71VzJoX1xQEmReffcmt7kiQWXzDnUUWI2F/0fHqF1+2ESOHRhe1mX7l5Vft1mtbBYU2GdpZsOvkcU4kaGd1lxdTbODwIVjtzKBDWzxfk/e4w674w1V23n98z3Wpoq+WBW87yhacelSXrHpefGaVvfjsKtv0+huuG9aUaZNs4I5t/fgwChLz0gKGZTFml9H25htvOounYTsNdVZFR71lvh181P627tX1dsG3fmuHLzgY8wc4S5gJU3zXob/g3Lds3mJnfvjtjst6OHumOHPE8YfazP1m2NARvozmws/MxN3H21pYxlxx0dWuSxMZBJ8wsw7YG/5obrTr/3azE2ToU+amq2513cv2nuvFvC6D14YiIAIiIAIiIAKxIOD8weQQOdb5wsxCkKEIA4sY/suLMRzXepIgU+slWCPnz7DWtz/4rAtrPe8wvZD3ZrExLDZFmUVw9suw2KfOn2YHTB3nRRlXgaXQQKN3cnQlcMJMwoXQDuckUSaQiOd4xuw9Cxe+6IZW57RsbI9H15WXnl9TWP/isy8aneey21NpmgRLCYoRnUmHI7rSoMEDO8z6MsSGUkuODjfIrzwWQgStNno6URz5n5+dW3BmvPnNzc5vDXnQhwrFGKYtWP7UY0/bJDjzDYLFts6F4bP/DqHjdjhGjib6zjnro+8oCGJct27tevstIh1FHRvTr85YdEWi/5fgq4XdjTiESFlDhg+xkfC5wxQcDQ8chHLEi02YZ1ckpjGIHBWWcZ4OeTlQBGIaC2fFe6JL2ZPLV8Iq6Fq37PX1m4xldv65P7Qswlauz0fc+sFXL3Dr9ztsjs079iA3rT8iIAIiIAIiIAIi0IYARRcupAiTS2Dw4ySXuxX5Lbi8zca1s0CCTO2UVU2eqcJa902xjXFhsWcrLHbf4K/Zo1JwYZeUkO65bWmYdONdJo61h+571PXbZReiR9E9Z/epE4vyLLn9Acsgkg/T8BFDitZta+aeW+9zWWYesE+RU94mRPOhD5l3f/yd29pFm/Ud+bdpk3k7FjDaE32lvABR4vFHnnLiBzenGHICwjzTMsV3E7oDXYXugEVgP0Qv2h0+W8ba2F1hxYKBecql6664yYkxYyBUnfSu4yF67WArHn7SrrniRvv1Dy6C093PODGF/ad/9d2FRqe55DP7oH2c1c41iG5FMWZbiRGXtry5FYJax2LYtvYT1qfQyXsQnCszhXFYNzzvdyjM94MPMSUREAEREAEREAER2BYBii++axIFGQ7b2qK21kuQqa3yqqmzVVjrvi0uhsVegLDYtyosdt8WRB0dfY+9drM7br7XVj72DKysUs7qYcpbJhdd4TWX3eC6yrC7E0WIqN+XEH2HViQdpYm7T7CRECOY+MO79tV1Nn3mHgi73fF2He3zst/8rY3FSUf5y62bgm46n/rqR+0ff7rWbrr6tkIWiiF06LvbtMk2Bl2GHrjrYXsajN7zidPttLPfYg/c/bA98ehTGJ4uRGAK+yrsJD+x/rUN2PciN/fxcz9YiG4UwndTlLnuL/9y+37o3kecGEMh7QOfyzs8xpa7TZ9s5/3n9/0e23lreezBJ+xW+JQ5ARGy9oePG5dgFtyV9PC9j6I72WL73Hmfsg997r2FXVxw3q9wnzTYhz5/dmGZJkRABERABERABESgswT4HpiPD9B2k3becdpmrO4lEmSqu3xq9uwU1ro6iq5fY9qORSSr2xYvt7uWvWCb3myyM4/ayxKID8cKriGH7ks41QS6o2Tg54HdGZLwYI5mMCo/bxqoLkzVUZaVOIuXX3oVIagvLhwq6kOGC/eCnxCKLPctXmoNeQe70ahMzPOVH/ynbYDvka9+6v/sTDi33Qe+R0I6593n2lEnHmYnnXGc0XN+uVTarWfjhk0u27Cdh7nx48uedOGYy21buuzAw/crdBOin5Qcwnp3Jw3P+9GZe8gsJzTtPn2KTdht1zZRph59cIXdB0uhExBlaAf4fKGvFg5MZMOuPu1Zxzy/8gWXjyJLaajpaQg/TkHm+ad9nmfy0Z0OOnJ/5yfGbYg/7Io0A85zH3loRVjkxmvgq+fe2+530yseedJ1Qdth4AC75xZvmcTy37q1qTD/+gYfkenJ5U+je2POkg0p2/eQ2W77Vc+ttnsX+33xOLTmWfPCy4WQ1/RVs+LRlbb33Gmw7nmi6Dw4039AP7Ab32a5FoiACIiACIiACIhAKYHyb42luWpzXoJMbZZbVZ91Iaw1QuEqrHV1FJXCYldHOVT7WVCAoe+P9hKtXQ49+gAXUYd59oUw0ZHVyqWwSrnqkn+22d3lv/17u9YqX//xF52j2bDRevhIYRqeF2Rug5Pgh5csD6s7HO83b05BkNl//r7GoScSfaZQaPk7ohPdflOrn52w76fzQklU3ArrOD4cTnLZZalcenXNa24xrZFK06hxI90i+mZhZ+lXVr3q5ncu6Q7EhcNLnCQzItQjSx9z+fmHTn1POeskWOw8ZBf/6i+F5Zwonb8HIg4HJgoyP/3mL+0J+MUJ6eiTDrMT3nms/Q08Fl3noymFdSyrcuU1dPhg+9qPvhiyaSwCIiACIiACIiACsSQgQSaWxd57Fx2HsNaMGFL6Fb/3iHZzz5STafCCpLDYnoP+tk+AVhmf+sqHCxm++MGvF6bDBLu3MMQx00GwQOkozTl4Hxs/2UfwYb6LLrjMZT/oyP1syR0P2jg4iz0STneZ/vWPW+0pCBkMFx1N6xBCmWl4xN8KG/Of+8Yno9mKpv8JK5JSh7hFGXpgpgmWJCHKVOnuggPb9tZv3dJ+iO/gf4ddwkrTBnRnYnJdvuiTO5+hH6xNSlPoHhbsfHdF2Y6GI97xsBT67Y8uNjr1Zd3AEObn/fy/jOf09XO+7YSaY0450u3utZdfs+/+989caOx953nLGK6gQ2M6Sh4xargxJPZOEIRoXXfYsQfbbPj/eeT+5e4eORG+dHaDFRFTpiVjP0EXpmmw3Dn2lMNdlze3Qn8qSoDlnIJFZLQrYUVPQAerHIHI73/lDqojiYAIiIAIbC8BCTLbS0z5yxJg95fv//Z6u+Oh52znEYNs2pQRtuGVtW4otwEbEO19IS6Xv8vL8ELChskrq1+1Z5983p594llDDF575wfeBmeWW9rfLRoqw/IhXqOZLv3VFfbQksfs6z/5Il5qixtMDD37jc+cbwfiK/yC046OblZ2+hcIPcsQtW+B086QNq7fCAsF300gLIuO6RA0CCzR5ZxmGfzkf35h++y/l83HF3imiy+83J7BNX/m6x+3AeiaoLDYDkuP/GlCyOPGfLedsEOWQUepFrt/rV2zzu5ZtMQJK6N3GVXUPWcIhJFtJcTwapNll4njbP5xB9ut193hog+9+QYiEUGMocVNY7/GovxraQ2CVPo8MmJQe4n3em8ndgs69zufc4fhs88uWKGRe9EFl7ouS2E9IyENGTq4U0LuiLy1y6MPrGhTjzz31AvueKNGj3DjnccMt+UPma2FcELBJZqClU7wfBciXoXISSFvGiHX0jumjaHHmdgNK4TW3oxyYRowsH9hGedD/RaiLHEZE4WZwcMG20U/u9RG4hyPOvnwQlQn+rthOvDwua7M3UwN/6nF5//px5+1H+I34qR3HGNHv/WIDukzpDujgy1H97tDjznIlW2HG5Ss/MW3F1oSy6rVfxCfmfPP/bGLBHf4Cf73suQSOpz9+x+vMfI85+sfazffj7/+c+sPS7qoX6V2M5dZ8V8f+38QOPey0/7trWXWtr+IUdq+c+6PbFfUs+/55BlFGekI/M1NbxYtCzM7DNyhwzrq4fsesan77FH4Ddj0+ht20z9usfkLDrWh2+nAPRxT43gSqMX6M54lpauuFAEJMpUiXefHYVjrhb++wl0lvQXc8c+OL5iRSOhrojRRpFhext9Aab725r+38JvuhWIxujXcjpC9IfRsyE8/B7vPmOKcWf7zLzeFxWXHP7jovDbLx08Zb3fcsgRfgB8r8o3BjM+jscQv4/3gY6Mz6Xn4kaA/jmhafONddt3fbo4uKpr+7sJvtBGCQobHHnrcNWpDeNpNr29y3Qxo9RBtoIaw2LfcukxhsQO8Loy/tfBWG4LoN/tNH2uz9xxr/fLiTHuiTPDJEw5VjeLMls1bjA3nVc+9ZLw/2YWJ/kE4vO/fz3S+SS766Z/DJdhvf3iRffprHy+Efi6syE/cf8dD9gSiA5VLB6PrEwWZP/zsMjyzXrQ5rDQMMvStuxbd5yxCBg3x0XvK7asvl9Hi4Hc/+hOE1PVlWdBnzLe+8ENnDXTmx0+3EfmuV+2d8/gpu7pVDGNNPyzB1wzvqwfueditm3XA3m48fpK3PrrlmsXOv08QhG4D12Cl095xSpczUhQTfeJ0J615YY1l4Ktn7ep1dv4Xf2iHQRyeBGfIF//icheBin5w6iHVyvNPi84XnnnRIadlDK2rGPVr9xm7BeMp1/1uK6KGPQzLptdhhUWrtOjvMBvqx57qraZuu/5Ou+6v/yoqwne+/xQIeZPd72pYEfwc0VotpP4D+ltXxI+wfU+OlyEKGeu3cRPGdGm3jz/yBPwgtS/8kjtF5v3RbXJbiU6/aWEW9bfFbfgxaTPKJZpoaXbHTXc7ATb81nM9hZYWrAtp1LhRtuSuh+zt73urpfK/TUn4hduI94Kvf/rbIVvR+Gw4IZ990MyiZWGGvwu/+eEf7bBjDixE4lv78lq7+drb7fV1G9sIP2E7jUWgHIFaqT/LnXutL6PYnsCH6dKPyrV+XbV+/hJkar0E+/j8Q1jrh558yZ3JwUfsZ0fCn0BH6bLf/L1dp5yz0dAYh9C65dKaVS87XwQUcxjetTTRxJ8vNUz8wks/D/vst5etwwsm/R988ssfdOFmN8Myhl+01zy/xpbeu8zO/NDbCn4wmlFR/e7Hf7Jx40cV7z5v+DAHX/D/hi9jbPDss2+rs1IaATCKCtNEND66kyjSfPm7/st72M9dN99jVyOUbUfplmtud6vnodsA0z2LvM+HiWhgMTxvaZq79y5275KVdsn1D9gmvPQdOWuS5eAE2Bl54E86B0e/aVwY+kUER7/RfVSjoBA9v0pMP7Bild2/HFYLeNGdA1Fm3+njbPYeY2A5UxrSFxAjqZrEGfoVoS8U55cE58iXbiZ2C2LaEw2tE89Y4Bou11x2vWtknHrWiU74vOL3/7BLf/1Xe/fHyoejZkMtNDL4zH3u7K/gOK/ayhXPuC4v70UD4EL4NmE6fMEh6E5TLAasfPwZd17OusNrNi5vtfx57ZV1EGMuNoonJ8OBbyP8ZpWmIbAYeQucGF/2uyvt/C/9yN736TNtT0Rlai9RsKF/Fzaav/uVn9oxJ8+3AWjIPoxyoi8WNqgPgBNfpjloPC1Cvmeeet6+/9Wfuu5A7CYVbUy3d5zocgo/FKgpWO84uH3Lo+g27U3vii5q//39zzvLCvqTuQT3R0hnoK4txyisr7Vxbzz/FN56sm59+aVX7HtfvaAN2u9/rXUZrTAmwsEy7wFaNu0M6y8+j7tMGmtTca9G7wl2HWR+Jgo4FP7ooJnP98NLvBUU14Uuc2HZ2pfXW/8d+hUJMlddcp3diK6KH0Zkrumzp3KzXknf+6+funonuvPgsPyn//vrNh9Govk4PXL0TvbZb37CWa8+DmfYtIZjqHnWjffdvrSQfU+IXBQ24TLf3njdW6E0Q/SJ5mFmdutLRbokXgfRavCwIYW6srDDMhMMVX/FH66yBRDIooIMHXz/6BsXttniSx/5RtGyL/zfp908haI9836q7rv9QVjarfDdGIty+xlawlBQZToi8n5Hp9zcD9+vKLBPmTrJb6C/ItAJArVQf3biMmoqy1bUR1/44NdtCrocR7un19RF1OnJSpCp04KtxGUVhbWeM9kehF7Ar6PLI44jy53H6+u8H4Ry6/Y/vLzTTZrZ/+BrP3ebfBghVEfBF0JHif4RVq9aY6e85yR7DlFL+MLAhsAifN3jS+e3f/N1NDKPc4LMKggzp7z7RLc7viAyHXfq0W7MP4zq8rP/+01hnhN0aHnOe851y/gCy64Jjz34uJunSXhpot+Ej+RDv9LMny9sVKnffONN9/WSXw5p7s/EF8UVy4qjkqxB9JOOEiOeMGoKX45oOsyvc4uuv8NtsgiWQhzaS7vvM8NuuGelbUQEppMPwtfrRqhPiL7ExL8ZfFXNZaimU+zyylQQFHqy4cDj1Voat/MgO+HQqbbksRchzECcwZjiDC1m5k71ljON6BLCfmZY7FIikVf38hcbWOZne7QxFvbZ0XgoBAN2p5k+ayoEy1HGL6uj0DDvD18u9CFDR7K0xPjHn//pwjEzStL84w9xu2QjgNGEKPqxWwMTn69XVr3ipunQ91qIOOvQaAsNoIfxZXoAGnA7Dh5o/NoeEvfDbjdzDp5ZYHDHv+5xqw+C0BtNbARee/kN0UVF008iuk9vJj5ft8MK74qLrnaHOe29b7F5EeueTFNL0eEPOfpA93xfAAtADqd/4FQrXFP+xkglW3+OT4IAxq9XDK39VwjAIU2EYPW+c84qiBr0ZfWRL77P/nHxtbAkWuIaiRR02Zhmg5hMg9VM2Edpl0hGsVoIEZrp1LNPDtk6NW5G14hyiY1z3tdeyG3NQbH7aIhXh58wz5V/65ranOqN558kKMp4Szv/gaE7dIaPHG6f+q8Pud8xdvsbnXcMzX3eht+F6bBY2nXyOFuOLnJMn/7ax4q6p7mFkT8zEGmNA3+Tb7vxbhfNKzig/s/zfGOf2dldBzdA4aX/Dz+9xJ5a8XRkT7jOfKQ1f61Fq3p0ZtqsPWzCpl0K+3wW1qwUUXeHgDB6l47fJbgRRVWm5yB8Bj9YnGcUMQ4hffCz77E/oLtiNC2FZQmHaJqBunZAun3rmmjezk6zbOmzqVyiFR/rAf6G+99xc1ZrjBbHxHqWQm97H5OuWPh3V3+znivtOnoinHnz/eovv78Sfr0+1WGXp3LnpmXxJVAL9We9lY774FpvF1Un19P6BlgnF6TLqAyB0rDWkyb6l5oXIW6szUdFae9M2JiilUtnE815//zLv7gXAr40DMe2C/EVfyi+1NGXQbkuQiPwEsovWAzxGiKT8HgPwoR3NsLwUpyhAHLcKUe4LkJs/NCEj1/rGKaVji5DYpcBfo16Bb4sltz5oB2Cr9NR/xW0xmG3BJons3vQ1PxXJ3aXYuOTXxOnod81E1+Mzv+vn4Rd+xc6fL3jMT/wmffAoekA97Xu8t9eWcgTJtjQKuePgy+z//jTtS7bEfm+8GRGzvTJwWPyPN4J0+VyrMagEf7Uc+sVFjuA3s7xATN2sf2m7WJbTs7Yg49BlIHVzFKMl+bFmVmwmImKM2yoVpM4Q4u0T6DB1lG64e83OzGG9xNDVod0+gdPtVXPrrLLF/7D+R7hs/b6a+uN3eV43w+CtcUOeGYHw9/L4KGD7Fffv8hZf/CL+3n/+X23m9MgmvIc+NLPxsytMIH/yBf+zRrgS4aCAvcTGkThuBx31LUvmq83pl+FqT7FGFoRnf3JdzmfKBSBGA6cRnq0vKO1STTRKoZfp3/x7d/CIukaWNhNd5Z5dGJc2j2Sfl3oW4rWhi+xCxC6ItB/TzkOrH/O+PBp9k6UBX2+hKhXF/yvF5HDPENe/2XhlfbsSoiGSCN2Hu78aH33Kz9xdcVRJ86zPdCdszOJfkVuvPJWW5MX3oKYzK4UdNb81IpnCruZh3DfR6OeZXe4f152g3P2S6fQ74D4cwi6P9R66o3nvyeFbv7W0Vr0x4iMdTD89xyYFzefhyDB37NJe4x3XRGDINOZ8mD3mD/BmTPT2953srvvvvPl1t81Ll/76jqO7BvnnO/G0fmPfen9hQ8QbmUv/zn+7ccUjkCx8Ftf+IH7nX3/Z95d1J23kKmdCXZ3Pvf8zzhxmtZqnz/v3yF0+I8X3ITPJ9czXXvpDa4e+A9Y1pT6xSrnhNtt1I0/fE/ZFx9kfvsDdCuCf659D211wn0tnrtbUK9+CecWRLBwqI3rN7rn9QiI7MHCOKzjmM7Wl969DO8o021eXnSPruc1n3LmCfa3i6/BcDWmvfVkNI+mRaA9AtVef7Z33louAj1NQIJMTxONwf4KYa37pQthrfnFmOlQvGCfBNP9jtKv0ShbBbP6bSU63bvm0utdP+gp6Aa0ZetWCB+b3JdDNvLYd/nexQ+4r81RAYX75UsCG3K0Enl7/qvvy7AyoUgS+sIz3/GnHQMLmlWuscl5Wru89xNnFL7Qc9nOMFem8EMLGCfI4Gs3nfFG06X5sLEnn3m87TZtslu1FOIPhZBjTz3KxqAxxdSAr1Q0z2b6Pb4Y0hR6wWlHOYFnLbo/7A2xiANT//6NTkDZgBemkNj9agc4LI1GorkZX9HZRYGCDR0l84s3ww2zsfiO951iN19zmzuPmegOFpx1hv2FMV/YBwxotGXLnrMLNy+1dx05w4YNHmA5WHVQUc815NwX+4wr56QTFJJJb1pPQagnGxDhnKp5HP2ii7aJY9QAuWzunrDwmDYWDeisLV3xIobV9uDjq42muYRW7eJMKXPeL424r9hFcA26PrzrQ6cVlTUbGu/HV+Eb/n6Le064/Ts/eFrpbgrzvEfpj2Iw/MHMPXAfO/msEwoiA7+u3o4GPU3+B+44kEZFTkSkEBFN7L5D4fMcfMlvL9145S3OGq5cA6O9bbZnOR360upgFwhJQeRsQHc/drFiYteFo95ymJuO/mE98Ln/+YQTl4NQEl1fOs08oT4pXcf5pWhQL0Q9QqGM3cbCPukDiBZzrANo/cREQYxpAqxsJu05wabO3MMJ03vAiS8jJoWGusuU/8NuFawTKYRHE7+Ss6E/AZZTU6b7iEtcn4HV38YNG20euy+gHpw2c0/waXSbsk4++9Nn2eFPPufq9eEjOy/KR49dDdO9/fxz/37omavl7wVDk1MIOxkNZlq/LUFXGz6P+x66bR8npWdB4Y2i28mw5GIXOzqRPeSo/YuyLYIFWUtzprB8yZ0PwPn0ejsE90a0C1TRRvkZCot0mEtH0+wORWf27fk24seQ52EFy2ed9zGtTV9Z86oTQXjPlabF19/lukHSSo2/W+w+2VFq7NeA53ycy8JnfeTonXFuz7n6iyLjkhsfsLeiHguiC+sGJgpQFGXDtm5hL//hs/46nr9F6FIdBBlasdFXF33lkMf6fNS6cCrB2XbwSxWW04KX7xG0fhmP6z/rI293dXJYHx3TOpDWT+yiuPal1+BP5nR3j0XzaFoEAoFaqz/Deff2mN1LaUFP1wmMTskPXNF36zdg9cp2DD84s06nqP4SrOMpxrK7N62OSxMtYlk//n/2zgNQzqpO+2favclNAqmk0EkglNADUmKCFFFEROwi2LGsWNddxfXDVdfGuhZsi5UVGyBFUYIgJQRs9BZCCU1IoaWXe6d8z/M/c2bemTtz68y9U56TzH17+71z3jnnef8lC2tEPkPDc6p8PU2PPgEJMqN/D5rqDBb/5SH362vuRiN/nFu0cF83aVJpvIG/3ngbgts+1ec18Q1tNWGAG1KIuRlCCmMosLwGIseiE492P//Or0yQ4QPlDYhNwQbEL/73Evfjb15kHRLGq4g+bI5BMMkp0x4oBLpj54Jva/dGJ4ENPlqR/OWGf5jpMo/DxinjaJz/+Qsc0/IehA5jVPjIsOeNEqwbbAJ/6C50K66bJRnJvPTiGv+GMBrEky4GwVeeJsRcxmk2Ks89+yu2j/CHPp4vx5tlujhEC+P0vBGNSZbH0Wj9HVxJouUyxKqgewjjc4TOkC2nstJH6S8tdg7qTDKJuDIQZbwrAl0SSvcZ/fHo41BNvSjamKDrGbHyjXEWlhFx/OjlyAfzD9kL4gw+PVh2z8Mr3V0QZgYuztC/qZRtFNpIcY4G3q4WJ4aC5VvZWB9A+cqPzi2sdfiiQwvjHGHdYMM+6vpzFOpreXnr+99QPqvXNEXXqPDaa4UazCiPl8B4CiGrUl+7nwBhhP9qUfbIx2ygJdEGPEP2hvsJA2zyucZyKmL9UNhiYWDvD5zzHj8R+dsXTwovla6JItn7/v2dkb340ZfCVYqfvgo5VTqPvrbpa1moj2HIdcOjLsyrZX0J+7Tj1Kn+++uNFa7DTw/t7wNwIf4tLNg25TPrfPETX3ed+A0NFiuMa7QLYsWEeCTf+9IPXdR9Lhz1De8+1VwK6apEizj+XjIGCS2vuiDcMrNfNIPXXbCqYKF7E8tyvDTYtHFLvzHmKJD8BFYeIQaNbYw/ByMeHK3AogHqGbyf5xItdNe7cfEt5kpVnuGJv7OXI14WY8S9ZOGh9qKCKeD7KhRV/v1r3uqF6z254ik7N4rU7DzdAncfewnV6RxfzDyB5Sy00GU575xv2TD654iF83vVky2bt1gHK7oexzdtKJ3fDYvXaoXPULqUMsYMz42Wh3fDWo/tgeMisV+i2996w99MuI3G76LVzM9ghRysfj/wqXf1KbCwbfXOD59uFjIUZf7n/30XLtrvtI5j9Fj1GA/1MQx5jHrW/3pcQzvts+Q+NcHzcyTuDQXtK2Fxy2dJtPDF03vwAje8TOHLqgu/82tzSV6OJB7RpCV8Hn/kc+8vvPzlfhjrks+CaBlIkPHo+hofOQISZEaOddMf6eLr7nV/XPqgmz4DQScX7YsGWUfhmujuw+j73oKiMLviyFR04CopuU/gzemf8KadQUZZ+OA4HgEtwxun8p158+GPu0t/eqX7O1wFnoZa/A7EV2B8mb/fdLtbCv94ljv/eq8NGXNizJgx7kfn/cz1wAWAPuR0naLLBBujtF55EqmxaVHyG7wZug1vhs4+9/22Lf90o1HD8lM0VLgfFgoqW7cV4yjcDV/x0LB9bs1z9mY5KhLZRn38+QA6OWwYXf3ba9GgKloR/ef5nzKx6f++85tCa4Npu+kCwsI32Hyjdfff7zMzaTZeg/ATDncpgikn8BY/WnaFCv9SmDeH0ldabBjJWEkgI06W6oMVut9UFw7yK7XcgI2KcNUcz9JaKIMhxjMY5iDChEYhEwgdsudMiDOzXBozBybOFIU/35n0YiBBcjo0amrZ0Wy5m9QGF8Q33h/5f+9z1/9hCZtRXTMAAEAASURBVDqXywrxLPhco0Bd/ta7VZCE73/p9aBeYEZef7I6EupH5fVLtx7MFPdXz/o/mHPpb12610YtSBn3iUGgj4AgQUsZlkmRlMXjYZ2WhGDDTjl/I9kpoIgYYo8wmx8LO/nB/fblr15kgaa/DFeg8hKdFwKFl68Tpvk2NwSmpZswLaw471pkHqQbYAptjiD+MktSEIaYuYmxce5DkGGKMZUK3f5+/cPLbdFpZ5xiAvAcBOX9GDox5YXH/DFEIZbDF80vWcwA+yx0QfxrXvgMK0xGe2DDhs0QqbwYQ8vergpBssciO195IWsG8S4vDLbLT3+FmdaW3fWg27hxk61KUWsqrNDoRs5CS9qbrl7qjoukO6eARuGIrmyhrnDdqy/1wdtpeXcYXJ/oNjmQsuC4I9CmmmyiF9tllUTbgeynv3Uq1+eRq//9nZ+W902gmZ6ffV9JbZZegfhLzN5KS7QT8BKWwuptSMrBZx7Fzc9+45NmoR6Oxmcc2/xMSEIx/AbUfVos/gnBwWmFysIXzkGMOfkNJ7gZsJ6nOH9r2TMr7FPD0SdQ2jsb/fPRGTQoAaa1vuXuJxxTJr8UljGhrIULTfc2/8ZmQSSoZVje15DmeSzbI7sALTko5lCMWXjikVCAFzg2bvorFDv4hpeZPZjx5SlY31CQofvAlGkTbXNmdWGhOe94NITiiM/wslctQPyEbTCr390aIky3/fyzL9jbYDbAmDGJptLRsjX/ZmrHnWeasPHgPQ+7nu5ux8B4u87e0WXR4KOlzKvf8goXj8URmHeFpbqN7qN8fD1ibVAoYpwXFpogdkPgeRZmv9GyAkGEk8jcw9S6kyb7t+sxmGjzLeJ74TLyVwhQD0M9p5JOpfzUM0+Obm7j5taELBfRMhbrlpeBp8WGKAOdgA05Wg21kzATbRDSFBR6ZEGMofsehZkgyBgbdN/IKYkVKczQtaknm4Y4s7q65Uw+W5Nn69+W+0Zz6AoW71y0MV2cq7F2ILA7xOR373UGnp/IHPf0s9a5jloRtDKDUA9jJpD4esF45Nbgp79lQTapLYVwXO61XvX/oD1nQBgZfhONv438hHI9Yv9QkGEsqKjrEDvrLGcivT0tWEMwewaYjsYW2u/gfQruiYxH8gO84BgHU3mKLZ/+6kfDYdwvvn+JjZ/+gaJFWzSzUGHFyMh1v7/RpphljG7Coewxd1f3hY/9t7nP0BWQv/G/y8dNOx2//0FwogBJ1yW62UQLLRiZJYjCBjsy/N1n4XWOg8VWtFDU+cUPLrXf0UoZ0e746322jC7HwfX6ou9e7OKIJXMqXJeOh+DBGFFrwJPunMGNMHqM8nEG0w4vfKLL+MKFghgtZcsLLROjhde4DW2HVKrDMfg3C6enwr2BH7pBsLBWhDJ1hymWmY2dwWNOWuh2gDUQy/GvORYvlnZzh0O0Y2D3EJA9bFdtuB+SF9AqaRrcHGftOrPaarWZb7+x/J3Fb+sI1//aXED77qWZnp/1vkvewv52Owxja4Xf7n3gUrwZyUQYNJx9jf3KstB98ktnF9y9aQnHVPZPPvaM7Yd8mbmN5d0ffVvh+TgP1ooU1hmMXaXxCAz/177xrklnVEMCm7d0u+9d+jd336Or3L777uwOO2xOyd5/g2C7g02xWrIDTIQMJfT/Pg/Zj1KITVCtRAPoRdehmwPT6waf8YORDpYfmgJ+Hg8qmLG4l7xsPlybDrbNaF3yBBqlbHSybMJbrfVrN5pZtc3An4nI1BQtdHNiOeNDbzYF+8Lzfwl/zmetAcZ2/4sIZvwnBMC797YHIP5MMJNw+suXF/p00yybFi1UtflhdgS+1f7L9d7VgNswc425NWH+Vb/5U2E3oRFNEesTX/gXMyOnIMPCztl//M8nShraYUO6n/TlKhbW43AmrKBe+YpD3JKbHnCX37TMXfuPR92EcWO88IImnRcJsCJHOMC/diurn1/vpm4/zuXotkURJovOWRBj6LqEH0UrYJTDx97fYR0TrjCdhGNTQZzJQJx5pJI4w2xNMwuptInbf3gP8o1RzLBGKReotC0BBiYvj23VKjCeeWGjW3zfNnS88L2nayD+JNDx5jiFabpQUpSM80N1dATK08+ud9MmdtW1/h8Iy7rhlpARjCIxS8jgtxSNcmY7Y+Fvb3hc2Yw+/vBFBV/C7D9/P3O15aqT8Bv1OOKq8Dc1lPXrN1gMmWDxGubT1ac8U09Y9vC9/vd47/33CrNsSFGDIgr3teqfa/A7Ns7ci/nyIYgxYQPGsSsRZHDZl8OtifHfWKq1IbjsCVjI/uh/fm5vqt+B9PSVXgodgUyQK2F1EnUd2rpli0tmOqxdwP0wLgvdoigOhXYD57PEUU+jrsRMQ8t4EeUvgPzaiGsHkWQeAupGC5/3bMOwDRGyqDEAOD/9lZIYMqgqb37va92XEWD98ov+WMgEyes+fJp3KX3fv73Dgopzv7SU4Ysvxog68PD9Sw5Fbh1jfdut3Dq3ZMUhTDyxZoN7fuNW+/HjzxzrOa2yOeQPotV//MJa3c9Xf6wxhCNpk5EiMBLtp/D8LA9kPVLXOJDjPIqXvyyMeZmAlT77LKHsC/HbMrkh62pUkKF1Y+jrcF0+T/kspBsqn/fr1q43dyaK5AzGHS1HIQamBJkokcYZlyDTOPeiKc/klRASFuJtFgutPBjHYPL0KYVGMdPeMhDv6e9/fdXr2yGSwppizAsIbvsoLELKy454U0QlmJmTygtjGjBlbnn5+023FXzRma6SDy02bp6FqW55bBZuG533brg/sdEZCs17rZEFhdkKOtcFX3v89jOwFl2FFsPihZkrWF5SFieD8XG+8PH/tmX8w/2966NnmK/1CaceW5jPEbpO/fRbv3Rf+N451tkoWZifqHTNQbCptP6Q5+H64JCDP+wBoYVrb58xSiUKDSJIA7brdmsEsRMTg/iC//ghzHjLGE4blzxtrBQsWEKnxwsoWG47gAtYhqOBYvEucR78n+wtPPYOtyh2PNEgZWcUw2CVxP37fRaHxb1obMQJsDrg/qjUjwBrS/F5U4Sdr1L1O3Bkz3asfP2nm6JZxtW0/kcONsRRdvhDevboLpiePpTXv/3VFgye0/yN7KswWP3FcEf5fzCjf/G5tbYqXZ4Yz+yvNxZfKDDLH0t0Hqf3PmDPioIMLTxCTIRd4epTXnZC4HkKMvwN5W8tCwPVlpfyFyl/gYvRzQhCTPehjrFjISqstE3YcSkvIY378a85xl7IRNehGwHLqW97VWGzEKPhPf/69sKbbb6kCfF5Pv2+LxTWDSPsIL0b2Z1CuQDWuUxYEE0ZHpZVG5L75z92nmU3ortWKHRZZiKBauU4uJYxKHq0sGN34mnHuit/ebW9KKI4Fy18yRMKLXhZXgJRqjxYMa1oUh0dYdWRG9qLCf+7GH4DR+7gOtJwCESfn/VpPw3n7EZm22DBz0xm/FQqm9ZvLpnNrJXlxYRZ1EHWAfahWGbuOL1XO4RZalUak4AEmca8Lw1zVl3IvPOJty1wP7z8H+7We55A6tLuEpelaCA4+ihfCTPijyKmwW75H/El1/wVb3K6zRd8oBf1NNLo/gLmxYMpTNlaLk4wgB8tS+iX+eTjT1vGA5oAvxMm2WwUffprRfPqi2HpsxbBMM+CuW0odKWKltV4OzRjx2J2pTR70cV+gK26AO5WTC/KhiX9ssvNlalk89gHHr4fYt/8zu0wfZqJMUyXezsCc0bLSvih0yXpB1/5aUHgCssZ6Ks/8++wbhjyTZ29UQozMOTb5Upv5lauetHdeNN9eAuYdifO38MdsMc01wFXrxRM6DsQwC8F82y+kU9inOfBtir3lSUPfCgctGrJJSiSOPe1C29y3cgiQpcFNtxpIcM3MRRjgrTCDmMQY/x4kUo3NrjnYWRggtvSvY+swvbYAYSVA+bMgOXMDBuSNblSfKEVDkeyFF8wzreB3hqAC73oYwIOp9jSadHCev2Nc79nAWurxUhhRrSfnf8r995/PdOVB98dCJaLvn+xxaSKBvMcyHZch9vSxPjz3/l04Y152JaBVdlxLy/MZMWsRdXKs3C75BvxqOsJXSueh0jMYKqtXmZOHueOnDMdX/84OMHCAO6bfBaNRQaczq6UG4OOYHg20QLCBErrQKNe1OFZxGfA137m6z/rGus/XW5rUf/3n836P93tP3u6PXM//I1nhnV7aQL/jZ//l9uI7Hv8PWK8oauQvfBz3/p3y4jFDHt8hjP7Ia00+/tdoSUqBZk7YHFCy1IWxoXjdzMa0Pn8//wBlWN39mfPGtD5R59ZFJzLSxA56HYc3niHGDjRdUPw4jCPL2AeWfYYAuGf6i7+8RVhNuK1nF8IvFuYmR/5CeLElZfPffvfe1nNhnXoLsjMZsxwSHeqt8OKtrw8AtcDBu2ciVg3wy3hN6V8P7RgYYBvZkaLls2btlpb4hAmKsD9Li98+05BhkFDywWZwrr4SbnzL/eYyxezXkVLEK6YAbIeZZcdxvdR/ztQ/1Nw70u4jkTSLKD4u5ijpRx+K2Nopqk0DoF6t58qPT9pTdWoJcTd3BMB+veaN7viaU6nsBIpcVjS9FXCPtev86J4dF0KXyqNSaDvu9qY56yzGgUC7zl1vtt+/Bh39a3L3SaIMuVBffmDfNM1PtDULnC1iRY2pH74tQujs2x80UlH4wE0p9f8MONt8D3frcy/OywLQ8Zb+do53w6ThSHfdP0YJrQM9EefcwboewMyE/0BGYl+dcFv3bz/3ccaTmEDdogSyU0l88IyDnl9zDjwCgTyCyXdk3UpNGSjhY0ZvmHk26KDjjgwusjG+ZYtvB27AibCobAxmswH3H3miVX2hi28qaQZOPe3/6H7hNWHNGR2jfJC//SPw+0pWlY8ttrdvOQB14GH/qsO293tNnU780WPrhMd57nnwCGeyxRMiE2xwErVGo7R7ZtpnNdqDTxeM3UZfEJnzISZvBTDjFS0XsF/2lcbF7QNXRrLvQizyoZBhGEj4uA9p7t5e6AThg5lKGl872L8YGM2MinOJHgOGIZ+ve+78ECtxztwiA75lpZv3ysFBg/rPfPUKqszUbPesCw65Ft97i8a2JrLt0D8YHDO8sI002RfLgTxeePvgHM7QwBmp4hWftE3/R0QEc7DsypYDkT3ffSxh1vmuOi8MM7O3s8RzJuiMoN7h2u65bq/W0yMvfBMYjrt9iisd/jwrbj9Y4Bx1EEIoZn8h8G1oRVbvSET1jt+alFY360wcDfGeS4M4m11Pz/Nc8MRTasfSv0v/KbYvnuLd/kzGNSA1quf/dCX7SXB1B187BH+rjDD0Ps++XZ7YfIcLDui1qrVoNECk5ag1yEWDQtfMPD7/xP83kYLg8nyd+u7eEERLdNmTEa2pNdFZ9k4BX4KQmwvPP7wExY0N7rSI8tW2CTdoybnLWRW5QPWRtcLcV3CPAY1PgMZB8vL0QhAu3H9ppLZz8H6hu5Oh0K4YMrZaGHKaz6vKQg/v/oFyyh13x0P2ir/8cEv2XAf1EUGsj1w4rwSMZbWtb/50eUWZ+e4U46J7rYu4//6pQ+XCLxMIf6tz/9v1WNth/h6LOtxbdXKfXc8YM+gExHPpvx3fQvSf7NsVyGAcbX9DW0+613xpQeqvK97uC/ZDDJAosLF8XuJH120R7AwX/HLz3dox9ZWwyUwEu2nejw/h3vdfW0fYkExtlW5lTyfG2yfTJtZGi+qr/1xGdNiszBg92a8BGLg31CYFU+lMQlIkGnM+9IwZ2WNX/ywcXjay+a5cV0d7lJkW1p8zV0laa8fQHR/djQoItBHudz3Op7q/cYr/FhWu9hJkye6qXB/6qsEE+PydS5H1HJmLTjnvI+5Z5HKmoXWHAxYuApvkf7ns9+B6fPawmZsOLIwgF0oFHM++p8fsMnH0EBkmZ4PesfxbpgZJ8tMdK/Gm8ewr6t+c4370F67ljSMuF2lchgySvET3v7zjdXOcM9afPn17h1nv8UCJ+5zwF6uUhrgSvurNO8Vpx3nxpW9wdq+LE7O/Q885W77xyNuIsS3l+4z002bMNb1oEMY64m57ljadzKsh8Mj4C0Uxum9lEvTfQudI3RWbTHmtaIow3pg181BvvBthDUMrYPoRRouYpeMDUGKMPfDAuYuWMPcC2uYjFlWeUuYIMKwEWG7xh8KPHmPMDsCO3XcTxYzmVYbudXR3MxacDZ2Rn1jk8fKn1CLDpg2dwOCYN9/2zK7QtZjBhVnmYbnBN+aP4fA3CwhboVllEH2tlD49jpqSXfX3+9FVpZbkWobbpcD4MdsBrxXUUGGnbRPvuvccIjC8Ltf/nFhnCPMoMZCETS4eTKT2g0I/lnuZmEr5v/8GR1fijFM5xvEGC567RknuWWfXO6uQEyHWqaRjh670cbDrwjrCkVPcxPCfbeGvnXKvAUZK5B3MYF4WYeK4Z8DpIPjWf3HOfD4qKxejPXkeOwM6v/dg6j/3A/rPy7RPxP8rob193ZYYLLMf+mh7vHlT9j4HvhtogByK+KW8cUIrTrnwp2oUOyBVJgqGXklsnYwAwjLSxYeYlY1M3YqFTCeQtpldjLK50e/wyU7xcTc/edYFhDGYGEWo1CeWvHPQvuCIifFTcZHoHjDbEshxgqtY/54ybVhsz6HlX5LGduNgszBRx3oGACzvDBLyQVf/7/y2ZYRkinAaY1HAfVb5/7ATZk+CcF4j7W6fcF5P7N2wVkQv6LxY3rtaIRnMKAoExMwIwtLtY4fuV7+8z/YOgvxHCovz+UTJ4yv4EpRvu5wpkP95z5QTayCmBjKcTwHsnDvzZhFHOqQvalg/a/PM4DnoDI4AiPRfqrH83NwVzm4tRmwnIXP0zdt2VawWOfvyq9+cIm9CGbijsG8dJmEdj2fj+yT0ZKWwblZyP/P8GRQaUwCEmQa87404FnFUZmz7riXzHETx3W4H115u7tm8Z1u4aL93HiYjF964e9MjNlu4nj3M8Q9ed+n3lkIIMtG37s/dsaIXtO2rT3utae/ylJmB0GGJ8DGID8HrzigEFuG82+75W4LkHcE3IxCGdNVNL+9DyllWeagwRUKA/lNnlYUjK6/aokF9aWv+p5onFFM+TkyMdBFKvifh20rDdk4+vl3fmWBEN961uvczfm03WwkHw/fb5qJ023hmJNeOqD9lR+DgY/7Cup72+2Puvvve9LtMKnLLUKGj64xKXv7G4NJSBotoVhPEkO4ysTQ+oH4koAoEE+j54BORwzfDf9WitYcnIU/LDZk16JFinVSotfDRiB+6EIniuNYJ43hAwiEfc+jaxAQe7W9WSWLA+bMRJDe6e6A2TO9dRXW9W/XbUPbNnTqQqePLNH1xJs/rAMLq5iZnNItA50/WAJwvcA7Ot4ixAuXccXPryrEmOBMprwN5aiXHea2oNNwJzpy0XIRGjTRUsm1Mbp8KONkz6DclQqtNnoQAJVugYx7kYgnTDwKwcWfw5t2lgMPn1dpc3OD+COyJbBxFc06w5V3mDnNHY8gntfhucMOLF1JWrfknyeFC/QiTLCUYR1i1WTdseC1fBzh+cQ6h/81LVYveTAr/ngUA01E4R+UbtTVYdd/9jj5cBlm4flej0b4TLxM2AOZc4IgQzP+I489zNyXllxzqx1lFjIIDqQwLk0oTyIQLtNTv+4drwmzbGiWKugUl88vWals4uVIdc20rHTt2YZ6w+xOTEEdrHFOftPLCy84Xo/MRHRB5ucoxDShq9W96HxUskArO8yQJ+nedcobT3RT8caamYTux/GuggD0WsSVCdlRtqJTtdueO7sl+P1mTAiKUnQ9fhfS0VZ1BxryGQ1vwysvusqChnIvbKcdtuCQXjukFdH3v/IjE7/eDCvjSm2Ip5/wcXmm7zit1/a1mVGsxL7q+Xph9R9tD4riOfwYsrqY1Sl+MWkhw2ezrVncvDano70MjYDdvOgzrY7tpxo9P4d2oQPfald4ARyKBCQMOv6tc7/nFpxwpLXv/4ZEHcyGx/4En6+DKexvvPZtJ5sF5C/hEcDsi9PxzLob4nV4WTWY/WndkSEgQWZkODf9UawRyqvAA/UQpOw9+w0p99Or7nBXX327W73sPmsEfRi+4ky7/N+f+Y77wkfPc69GWk2maR5que73S8xPva/tc7Q2qFBOeuPLC4H/Kiz2mZEiC/jAYtrrU/EQKy9skPAtNmPCTMD1sWzEm3qaA+42Z1e3AQ3Gi396BYLpLbMgvSHA3yY0whjN/Pt4U/42mExH3wwykjozJLBkkC77TxBvrrnyBut4fRCp78pjz5z0+hMQfb3b/Q5WN3ehkfcWBEkejGJuB+rjz81Ll7kVEBB2nTbBHQ0xxjr7uNe0xMhm0dBB34DxfDMYycI1CaYwePMLKw0ME5yHxrAFt8U6kAzyIgEOaD/AfRy4SRfxsqJ1gv2wbXijQUuYe1c86+7D0JajQciYMMyUdCCGnXm3NC6zN/xlfEKnzrbNL7N12aukyxJanOxrxpjZie0abGDrFpi3bsvzPZ98h1uLYJbn/9cP3cteeTQ6k4cXvj1jEKiSHF6Jes+4FjTPpxvQIqwXLWMjImt0/nDG2eg/AWliL4T7x1hkInvje04r7I5WPQwUfhZiPlFAKS933HqXPTNCutnocgbm+xn2ycLOXKVYT0yxywxrF//kClgTTkaWpYF1qKPHabbxaJWxpj1mWB2xOon6QHEEdYXzWBt8/ajtVUb3yfNBdxD1P4d6v7Jq/Wcaa7qBsvjzDXW3eG6F+o9nqk/lW1w21LHliGdES5I3vhOCCYDwXEM59OiD3AtrnnfXXHa9vVA56Ij9w6Kqw6dh+fLdL3nrL7roMLMgxYdDkD2J2XX4O0d3wvl4K5tA3aDFCK+34NqJadZDdhr4WGMJgjItxT7x+Q/ie/8rc/uj618oPP+oVQutYvjm+Mpf/tHdeuNtthrjxb3mLa90F+JFCNNQD7ZEhaZK205E8OJjT1lUWMS4MOWF9fQ0iEUvg1jKFOMMKMyyDlkYKRZUio/DtsR553yrfFc2zZdB5ct6un3boeIGmPmdz19QsmjrVu9SVDITE0xpfjQsmrefNMFiAJWfG6/voh9cbO27U950ojsCwnd5YTvnT2i7sMzceUb54jpM+3pjdQh7Z+Y1tk18nULdxzzWfNZLzrPvGCdUGoZAuDd2Qpjgc6+m7acaPj9HAtqb3nua60Lbgf2FS/ByOxRmMzvxtOMLL2DDczIs72vIlzwUUH/948thFbOksCrTYP/4mxeZG31hpkYagoAEmYa4Dc13ErN3nOzed9rh7lOf+zHSTz6LGAwLC29//vW/PmRxWi75WfHBQlegMV2dbixcmhiJP5NNu2wa5qV4cL7tg2+ytI/lFJbds9waieXzBzIdfCgHsm5/69yIbEcsC15+tPsr3t7dird3a1Y+Z/P2PWiu++qnv21vwOhL/2Y8WMObstee8Wp7a0eXCKaV/DCCHTMtbQgYStemiXlf+Dv/do/FiHnrWa8vbG8HyP9h4/U07I+ZJn6JAMSbK8S3iK4/0PFtaNjddNP9sDx4wc3daZI7dOeixc9A99Hu693x8Ep3N8QsuiOxAcgW4H4IyHnw7B3MImYsgo8y1SlFLpWhE5iCVKwr8tnXjjjmMPc3dMIYSDTqPsS9P7jmITvI3nDxqySCDP0M+tgSDcpUZ8o6hq9CJye8RV563V9to93n7tZrY1rErYE75SlYv7ysWP64u+C8C83NgbG0osHTo+uy88cAonSP+to557v3IHtLcN+Irqfx+hG4E/X/Lgox5fUfQYgPQGyoUP/Ng6J+p1F1zyH2Ci2oaMUZrE34O8x4MEyDeuuNt7uTXne86+jsqLqfsOAniMfG3y6KIfvBrWcl4jUxID2FQVq3lJdf/uiy8lnu/RBX9z5wLxMEKApEC+v0Z77+CbgaP2fZEGl+T8GSGRjLC4/PD61S6JLMTCOsOyyVMpHYgrI/jKnwZ3BJJmJICe4FFh5zuIUB/F8HEekwuHTxN5+Zrh685xH33kjigOgxota2YX6leVyWxgsdPjuqlQm4r1FBKrU+UXF9suanUvn9rxYXOnJRMew6iC+MnUOLJLqM0zWchS6VA/n+VDqW5rUvAbWfnFn90ZLwRIQVYLuA7Ui6V1MAjha2db6JT6Xyxe9/ptdsCqjc5p8Q0VN4GcgXNnyOfvOiL/VaVzNGn4AEmdG/B01xBl6Z9Z1NvnGgE8X0SePcx997svvBL/7sNmY73T8Qe+Sww+ZY3BdmVngeb3jXPLMGb+BedPRBZiOiG1YhjPLtM1Jkce05C7wbhcDgeTSvPgMdjf7e+NLK5OufOd/8tKP7iI6zoUaz4VQfjc1xeKNXLfo4G1QM8kkxha4pu87eye257x5uDj40JVyEzErbIyje4TCbjhaKKLS42XPf2e4aWMBMzWc+YMdyE6xu9oQ59sITj7KGzb985r22D2AtFHbqmBabrEM5fNF8a4CWW9DQLz10AsO6Yci3soztkyjrEaxdt9nEmLVIS37w7lPd3tMn5jfxpr685zlkNcFlMFmGvWniPuIxvHk0lyWM80005jHxUAwNWmZxsu8H/7CEoZ9q/r8UXFDCNa56fpP7+dV4i4sZFGEOggiz7+472JtwoAEPuvrhW47vjUHMv52uZB1j+7UqxmOAK2eg8D7weDSKMcbYsdVHOwmu6Vn7Ouq3adW/d/3lXns2MOAmfaHpguQbHE9DBL7ULnsdvs8sv8GbocWX9Y4n8ZHPfbDg9mAr4s+Tj/3TM83P2MrnFZ4tIc1rWG8rglem8CypVBahQ/J3xOq449a7EZPmSHv+0WqObkVju0pTzXL722+503ZT7mr095tuM9GVCynGBPcmW7nCHz5H/u1LZ7vvffkn5r7BN9nHnryIX4yWLPzah2KjVj/CcwfPLjyPrGr4PyX3NWw3nKG9dc/vgPX///6I+4hjzUP9PxD1fz/U/xSeueX1H7YRWM3X6n7rP67Bnhn5581wzvdV+D7Q8mX8hPHuT1fcYLs6EZZVIZYJ3ZQOR/yyqPUJVwrPkwhu25YvHTYjYx+FEBZaRVBUOekNLzf3IlpM8PeeQwolJlLbmsU/u+A3tK/C307W8fLAutFtvvSvXzeR4dNf/WhxPeDlCxOW3efuGl3dxnnN223vrVzDwnHI2sQgwixjECPv5accg3TapVmEwrrlQ+6P7oQU3KsViqkMsnv1JX+qmDRg1q4z3RRkqXrr+15fbRe95tON60JkkaNlS7RMhpA0G+LvOz92uolTYdlqtMOYYYpZkOiqRvekaKDPsF50SLcr7ustcJ+OxvKbgQDiDyMbE0sSgjDj3dEacd+D9o5uXsfxYvuE3026LdGL2v9O+t9Gzi88A3gmnFAZfQIj1X6q4fNzJKFRIO8r0clQzoWZ6NhXUWl8ArEN3S/6FkLjn6vOcBQIsDEVPlnkNLZ0anBZ6UG632642qS7M24LXGl+e8Myd+9ja9weu08vSYs9CqesQw6AANNaL4FlzFbE2jkCKZZ3nzzet1nQbqHIQuEFzRy8dYzbm0emvE50xM3lhgEVCykmkYI2gcYz12dQX98Z8p0jim0soWE/gNNq+FV858KbQ5/3i5vddjAzPWjODpYdiRx4xaEPZR0yyiXG0zcUSxqGWNHHvsibWec3tvoWaT+yD2eNTeyHghffTAJ3PqgvpnFctjc5r5w1TeTf/YXL3J57zXJHHTk4P+RGuxnPIwPKFz7+32ZRcixEjo++7RwTZF4NFwVmI2DaVpZ74SdNAZJCRaVyJtwHw9v2KxBDgRZsgyn06T773PcXNmGq2D/nTfaXw8Sfx951jx3diwg4zLfYFJfpyrkAIg0zq+2GLHQUm//jA/9lKVo/9+1PFfZFEfsLHzvP9nHamSeXdIQKK1UZoZvITxFPg8FZPwprvN322rXKms01+8ILb3BzZm5vaW/pApOAKwpThPMejsVbvxRiXTH9NdNhM1MPBXg+w9ip5zOovE7U4upZR7920VKr/wzMvR9+95I4Zoj/xPrIKoyaiXOhcJ2vm1wQSj/1PzxLPnn+4paov+GyazUMFhx82XLIUQc4WqQ8BAsXWtYycDZfcgTRqVbH1H5GnkC1+k9rqC7Ue9Z/pr22+o9nQxJxuhJ4OcS2CAtF0Ho8A0aeRPMfcSTbT3p+Nv/3hVfA+r/nzIn4/d8BdTqB3/1E/ne/A3EukfIen44xeOmcfwbgraX1W8JvbjPVfVnItMZ3tm5XEf0yWyOTDU02MPFGIgFf/Uwi6zrQCH7twr3duLEp99cHnq6YFrtuJ6gdD5pASGudQuPl2H1nuenbdaHBgt3gUyrG+AdbCvc3noqhwYPOD4SZJB6IvOcpZM7yQgyGeZGAgoHfGU8rL0IM+gwbdwPfoMD5oTP18bfAugk/EHyTbZmWLL4L1RMvylBmwWqYQEfN3uCxYcgZvtiy/DhIYTtuyzGMRwqnWA95b1j32M/kkAKpzeOmtt/S7SK7aInRh+57xK6DAWwfQwp6FsZTouixO95CM50838pTkDkSprqvOf0kW6evP4cvnO/m7LNHr1X+dPkNjpmN6AJUXoJLYmE+buS2bT02uRvOg4XTXeO63G6zfbpJTkfvN9c5FtY9v/v1YncbrGrmLziYsxyt594Ev2+6Qi67a7n79hdKY0HYSlX+fByxNz7yuQ+4B7Bdq4gx5ZeKaoRg4lZN7Dtvv0WsF6gftNSjCMOPdcj4LGJtYp2qUdUI95DPgY+/5Whzc2HdtvgoqP9xTFCU4XFZuJ4PMsxzGFj95/PCtubBanTedjIt9uckZHqiGH3vbfe7Jdf8pXB1+x+6D6xN3iAxpkCkdUZC/ecVobrbg8DEV45ThKVFLy11+Rxg3Yk8AzClMsoERqL9pOfnKN9kHX7IBCTIDBld+23oO4UI5orgpfzRyyGgaw4BX10y5zrwS3nC/D1MlPnz7Y+7q5GB6RhkYJo0aXz7gWrgKw5prbcf1+mOwpvdiVCX2WZBOwYNHDZi6CoTLGPijmKMWcNAjKGVTArxUDogvlDMCW+jKcag/eNFAmsEYdxST3phooFxDOHUwIf+Weg0dYKXdbgIzwrms0NGOxnrlNlqFpyTDUm+La9UWK9Y8t2wQuexMB/HsXvE+8T7w5ZmXozxgozvcIb1Kx2jFebtglgHc/ebY5fSvbXbhnSN4DhjUbEE0WY3WLFsgVtFeaE7pLeccBb/YBJ8tGcxEGXZrfkL4tOMf35cxXgszHS2DccMb99pYjxQM+Mrf/HHwikd88oFlh3pUsTaYopdmhazUExi2QeizIfOeY+N88/vYAFEkeiDn3631dOw4MF7HrJMS7QY4T4OQcre1i38ruNjogVrDEQQe3bBcgb1wj58O856wocS6yKeRUFIqRUXZjcbE0+ahZuJoTgf/yzgOfGo3uqNFZfBeQdT/4vfxbIvZa1OvkX2w98dBu/nZ92L6+EetRWZj6ba71iLXKIuoxcBX7f5W8p//Cn0ggyFWF//TYzBAvudZP1DDoJa1/9ep6UZAyTA53J92096fg7wVmi1hiMgQabhbknjnVCxo8c3fP4HMMM3EfiVYyOU6QZDOWq/nd2EsR3uiqUPucXX3OkWLdzPzZo1OSzWcBQJhLTW0yZ2uYXM+AMLF5aoGMOJVNILMil0aBKwhmFmIHNTgssSRRlayCTNQgZCDFyaKORAm7OOD10K2AeC+mCdIu6/lYq94cl3vtjIY3YHT5HiDLKJsJGI3peXB/yVcxvrIBIMO5L5flZxWJwR6pp/m84mJwpW5HxoMF6IwW7Y6OT2fr0iaztOOB5PsIXKjrvNch9ABrJQ6LJ09HGHO7oshXI/rENYfprPThTmh+Env/ghx/2wMJDn4sv+7L70g//oN55C2J7Dr3zqm27HnWaWBOdc+c/V7s/INlOtMOB3eWpr3kO6Jf3Pud93S6/9S6/Mb8xWEzKzpdNpE2P49p+pgKNl1dOrbZJxS1q15GuCv7x8xeHABEk8f6xThtpCixmrA2DLehjD84xxl2pZwjPA3A35nMNxgshH6aUW9Z/ny+trsSpcy9tQsq9oXSlZoImWINBX/eePpNV//LZ6ccaLMXH+1trC4u9jS8Bo4osIz04O+WyrV/uJiPT8bOIvSpueeuu24Nr0htb7stkB5I8ee5wZNHorfYGYWWIcLC8uu3m5u/bau92CBfu42ZinMnoECmmtpyKrBsSYfJ+mKMZ4BQW+lzGzfqFlTAIdPPplh5gxnRZHBlYyFGMstgxECHwHclAKEmz82Jtpf41BWBi9K67PkYsdJLohMQZMvlHBBga4UJShOMVOmTU+cBpRFuTuPxhhwQSX9xZgIHJhlRyX4Q0fC/I0FRiHbbAD257Lw3HCkPPaoTAt/ZOPPuV2QtyIQ2EdwiCT0UJ3kkt+eqVlhtkeATjrUTau22hpehngk/FNooUuVQz6XS7IcB1mOGEMjGVITcwU1tXKQ/d6d639KgTODJZATP3dLsV//30doiBiBXWl0CHDPArFmJWvF2Gl4RKi8FrcB8etvrP+UxjiM6EG9b94BI2JgAiUE4jWfwovLCbG5sVZc+dF24T135aFET+pv6NEoPjsrG/7aZQuT4cVgWERqNSfHtYOtXFrEijt5HlRJgdT8GwFUYadyzk7TXFnnniAu2zJMrd06TK3ZUu3mzdvl9aE08BXVZ7W+hDcF2ub4I8X19CJyHf0GcCXrkgMimdxYvLBe5kuryjG+CC/XJdiTFSICaKCxxHptTQwn8GeWmjXUWwxYRI7oChjsSygUpqbBAQAsxgKDUV2CrEe65BtY+w9/2LD0i+j9hKDEsOGC/p1vDMFEQaTtg9yhlTDSZuODm1mi/7ZhlS7DOz73Gp8kBKXhZmW+GH52Ofeb1nPKMAEiwXOp5sQ0/S+4e2nWJpfzqtXYdr6qPsSvycfO6N3OspwfN7/yVMnIiPTC2FWryEDM//hkmts/v7z9+21nBlvWLrGj+21rJVmhDrkr4mVjhWL9YifwiQ8lCAQs97YPG/ViaU1QuH3F+q/1f0a13+easHlk+b9KiIgAlaDWdd9QaVjyU/7uk4Rloa63nXJz/PWqeH30m+kv6NFIH+77GVVvdpPen6O1t3VcYdLQILMcAm20fbFH0NedM4C6iF4Q0GU8Q1j/GDCgiYWS7uZU8a7M0/Y3/0WljK33/6oiTJMi60yMgTWrtuETEoPuBcjaa3tBxF/2KlnQF4LwothEkJMirFhYOURxBjLqgSrmE4IM3RdSlGosdgxbBR5MYY/qkUhhuOhwTQy1zi6RymKMhnwZFwL4DM2MfTUwtsgIjEuGPG88t1DuFNwmg1IWsGwc8cYGN5YiSz91Xmm2Tzb0MCMLvPjrf73u1/8kbntRK+T6VuPPPYwtwfSs+60244Wk+Xin1zhTnr98e7whYe6vy+53d1w9VKzmjkS7k2NUl5ANqXNmza7p1Y8jZTbT7v9DqieAeuW6/7mnn5ytXvFa4915enueT2rnn7OrGxoEdJuJTxvzJIsL7qwLnlrPV9Xwjq1Z1On+k8NJtzKvKhb+3PXHkWgyQnwdzP/GZ363+T8Rv309fwc9VugE2goAhJkGup2NP7JlDZuvSgTg5l2hnFHwunne5K27oQx7m3HzXNX3LLc3ffAUwi816202IFTHYerkNb6ppvug2VAukJaa2pmXoyJUYAx9yPGg6EYQ2sYDDvhqkQxBkF8mWbWXJg4n5Yx6CRQSPAfXkRRiCn9ftTxAkdx13w7XrxOL5zEYdWShcsWXRboz0f3BXJiYXWwT36C29IdiZYwfYkw3hKGG3GfRcZ+N3m1hhNtUl564pEunc64HRC4c+qMKe7cs7/iDnrJPHf8KccUCDDQ7oQJXe5iuCj98dLr3EZkXWLmo7ef/RZ8X0Mvt7D6qI3ccetd7qpLrrXjM032sacsrHguf7n+7+63//d7XPMUtwhBgHsVfDUee+hxt/teu/Va1MozivUvepWol5HJ6DrR8cgqQxodifofTiyIumFaQxEQAf6eRmt6IDIy9T8cTcOhEdDzc2jctFXrEyj0oVv/UnWFtSJQ+mOYV7nxdj/Djn2+98lBDzpAXHcbPq9ZsBcyMHW6vy37p9Ji1+pGVNnPY4+tdkuWPGDuR9XTWqNRAzHGXJRw3xIQXzoQtJeuSUnLpOTjxwQxJskU14wXY1Yg3jeb/dvwXQjDKqfUUrN5rcVGBcUZCFyEYVYxmDBXLsgokd6UWcKAQnBHsuDHeX7cnqVoacSpqOjD6SJrP9V+fw976SH9XvTc/fd0n/zKR8xS5o+X/MkEGbr8rEcWlqnTp1Tc/vzP/6+Low5ECy1SWM4751vR2Ta+9oX1FtS31wLM+OUFl7rttptQaVHJvPm4lik7THYTtp9gcWRCxqawEt2z/oDzZzpfxqX5l8+8143NZ2EK63B40+JbzB1r9z13js5uq/Hw7AlDXnyxTpUKmbUAMzL1Pzw/8g+HWpy49iECLUgg1Psw5CXWs/63IMIRvSQ9P0cUtw7WRAQkyDTRzWqkU+3944eGIwJnMOUv+vT4QURD2GVcT2d+HILN8fN3gyiTdNffobTY9bqXfaW15j2hmxLfIwWrGB+8F9mTmE3JxJgUXJS8UMO01nRj8m5KRTGG4kJUPIh+F+p1XY22X15zEFzyWoyJMpxHHcZrMcXOFKf7F2F6dx7bke1w7zXFsYNesr+lkl782+ssJfQXP/F19+HPnmWuTeX7nzhlIizDSgPxTp5WWbzhtkGsKd8Pp6dgX13bjS9dhFTV5WXi5O3dwUdWTk+95pln3fe+8mNH4WfPvXd3p3/gjZZtacPaDe6HX/8/q5Nx1M2VT68xwYn7PnzRoeWH0HQdCdSz/hfFXl5A8RlSx8vRrkVABERgxAjo+TliqHWgJiIgQaaJblajnWroLLIByU5paDxmIcwkk95yINYDS5kOijKwIuiOu6Pn7ey261Ja7Hrcy+GktU5BjEnl3ZTK01rT4qNoGZO/r7yhvOP5YT2up9H3Ga49fP/JyIsxnk1px8rXAc8sav0iEWao95nxYyrFVAn7SyJL2MlvfoUJM9dcfr3bcVef7josnwxRZDZiz9CdaUwF65OwXvnwwm/90k2GdUu0cHvu6zWnn+R2QeakQoEQ9/0v/8gC93LexCnb4zOxsLjSyOQdJrkp0ya7405e5BaccEShjtGahlmiurdss8123Hm6WdfQlWnC9mUiUKUda15NCaj+1xSndiYCItBGBPT8bKObrUsdEAEJMgPCpJWqEQgPVS6Px9H7wBs9zssg2C9dXOh6EQp0GRNmlBY7EKndsG5prWEhw0xKcUtp7YWEcM/DsHZX0Xx7KmXgxSoKMagN+ETfboegvLxGiTCkMNzy2W9+ckC72G2vXd37/v2dvdY9/Jj5jp/Blrd/5K29NtkZKbfPhgVOr4KvwAfOeU9hdsV1Ckv9SBLiaMX1sK93f+yMsrU1OZoE6lH/o0JuLgfTUhUREAERaEECen624E3VJQ2ZgASZIaPThoEAH6qhEUlRxgczhfsSYjfE0KFPYTktZdLWEfWijNJiB3rDG3Z3p92NN93vVj7zgpu70yRX27TWcHGiGBNxUeK9Lv0RHd75t8LW0e9/8XqKQqSf15ubOBZpaUwEmpVAreu/ngvN+k3QeYuACAyWgJ6fgyWm9VuVgASZVr2zI3xdpQ9VujDRWgBWAmVpsXlaTFFIK4GZU8ZZWuzLliot9lBu19p1m5HW+v66p7UO7mi8x+osVL5TgUsQJiuvRTGS330VERCBViIQ6rXqfyvdVV2LCIjASBDQ83MkKOsYjU5Agkyj36EmOj8+VEsbpBXSYrND2oOPde5xcRNilhb7cogySos98Ju9Emmtl9Q4rXU0eK9PaU3rGH9OvLfhR3PgZ9l+a4pR+91zXbEIBAKq/4GEhiIgAiIwOAJ6fg6Ol9ZuLQISZFrrfo761ZQ/UKm/0BoG6ZfyabHzcUgY7Dffye+GW8xrXjpXabEHePdWIK31zXVOax11U7I76G/kAM9Qq4mACIiACIiACIiACIiACIiACPRHQIJMf4S0fEgEgjBDi5ng8hLSYicSDFSYhExTTIvNg5wwf3elxe6HttJa9wNIi0VABERABERABERABERABESgSQjkHRKa5Gx1mk1FgKJM+FCUCW4wzECTTMZdqiPhOhIJxzTLY8ak3JiOlKXFPnXBXm494qMsXnynewbBalU8Aaa1vu0fj7hpE7vc8fvs6CaN7aDnl2OonjgAJwgZE6mU/3SAcRKprMd0plxnKuVSY5IYJsEbH2Ry6eAwlXDRtNY+9o+3YuJRg7CmeyACIiACIiACIiACIiACIiACo0HAnC5G48AjcEwJMiMAuZ0PETr0HFIvYCpsfpiJKYgyKYgyCQgDHRRmIMowLfbpx89zCWxz7bV3u0cfXdXOCO3amdb6/vuedLtOHe+O33sWhBVfdYMYE2eaZUwkkzEIMmAJwSUJlp0QXToKYkwKAk3SpbCM65C/Y1prbMt7Eovl3cmo8qCEe2cT+iMCIiACIiACIiACIiACIiACI0igz/5Ivs8ygqdTl0PJZakuWLXTKAFWpGKwX7owscPv02LTOiPVgc6/0mJHkRXGlda6gEIjIiACIiACIiACIiACIjBgAs8/v8H9/qrbBry+VmxMAtRdvDATvC8a8zyHelYSZIZKTtsNikBvUUZpsfsDuHbdJmRSekBprfsDpeUiIAIiIAIiIAIiIAIiECGwy8xJLod/eCvssghfyfFsDiP8j3m5LKcxxCr+j18nsguNjiKByRPGQIWx/ybGFC35cd9MoImcHBSbZjaWkSATuZcarS+BUlGGx1Ja7GrEVyGt9U1Ka10Nj+aLgAiIgAiIgAiIgAiIQFUCn33XsS6NBCIunXXbtqVd97Yet3Vrj9u2tdtt6U67Hgy39WRcGsvT6YyD5z4lG3xURpsAfSnYb+Qwx5AMCYa+QMgLeFnEbb4XYGwdrtTkRYJMk9/AZjt9Vpxo8ZOYB7U6wyC0IY5JG6fFVlrr6DdE4yIgAiIgAiIgAiIgAiIwcAKhvxHLIGwCNrOuPTvz6NTHLZ5lzPUwhiWsZBhWwYdSoCKDZBfeZGbgB9OaNSaQ7ytSeME9oxiT4L2K4YNp3EULf8F7jMm8K1ONT2GEdydBZoSB63CeQHhQKi126TdCaa1LeWhKBERABERABERABERABAZLILwDZvee4zGKMezB48POfSqZdbFswpYx8Yh3a8LKJsgM9mhav6YEKMZgh+wvJmgdg38xvrhHUhOzlslbzNCqiTeQ64W+ZU3PY4R2JkFmhEDrML0JRCsO0y2jRtlK2SwqW5IxZjCHljIM+svnZ3fc0mJv19Xhrlj6kKXFXrRoPzdr1uTeO2/CObcjrfV9yKTEtNYL58zonUnJgCAIMjIpWYYqKvzITMVMSpY5CSmufXYlZFCCksxMSglmUsJ6zGpVzKREnp51GDYhLp2yCIiACIiACIiACIiACFQlwOYuehQmxMD2xWXRJk6ifYzgMYghgyH6GLk0BRq0l+mwBIt9lcYgwD6KjxtDMSbf94kjNyzuXwrDGEUZ3E+KbIwpw/vr+zXsUzZXkSDTXPer5c6WFSdkYKIoE8MDkZUvk8ma6GC6Qbe/bDwzscxZWuxxYzrcZTcvt7TYCxbs42YjVXYzF6a1XoH03kxrfRTEGLtuXi9+H8y8EsowZ4a01j5VOFJaQ5BhWuskxJhOpLNOUJyhGEMVGZ8c01pDjInjoVUMhiUxppm/Kzp3ERABERABERABERCBvgn4Dj076/mOOzrvMVi/pDIJl+vIuSQEmHgP29ZZl4ESw5eXtI7xLkx971tL60/AxBXeO75bRj+I/RoTY9DPSbJ/g/tJFyYaPVGRoUCDEfR3KK41V5Eg01z3qyXPNirKUJ1up7TYSmvdkl9pXZQIiIAIiIAIiIAIiMCoEmDnHB11xJHBANbjeFEJy5gY3F4whc59DPErcy6dybgOWMaYECN3pVG9Y70OboIMbh7dzCC4JON48QwLGQozCYsHBEsZKjYovMcm4vTaSePPkCDT+PeoLc6wtyjjrWUgWXvzQlAIlSzHGgfzw5lTxrkzT9jfXbZ0uaO7z5Yt3e6ww+Y0Da916za7G2+63619caM7ePepbu/pE+1hwj+0ZrEHDa8VDxqaV6agBtP6JZm3ikl0xM0qphMWMnRdovke1+MDCxt5yxgqx/ac4j79p2kA6URFQAREQAREQAREQAREYBAEQn+Bm/hmNIQXtosx7a1fYBsTpyU+5mfopuRd+7MRf6Vc8xlZDIJQY68ai7iNhb4L+zL0GGAfx2LJsG9kVjKwgMIyegP4++7dlaLfgca+Wn92EmSa4S61yTmy8gT3JX/Jg0+LvRmizKKF+zY8MZ/W+n5Lv3fEXjPc7pPH248Gw+jYQwfmdpbWzczy8g8dPHiScEnq5DAfL6azE25KFGu4nokx/keFVkb+41GEB1rDg9EJioAIiIAIiIAIiIAIiEANCAR3/bi5tHiVhW3ieCaOjjxdYPDilwIALGPozsQiIxnDMKp/KKSx+JfwENZ4r9hHQv+IbkoJijG4nTm6LTE0A+aFe+23bK6/EmSa6361/NmWK5q+QqIG4mE50LTYtJQ5ZtG+bgzizDRieeyx1W7JkgfM5O7YfWe56dt1RcQYPGTw0LEQxxBZaJZHn8kE4sN05C1ikhBhGLyX8WOKYgxVYy/GcFj+YCrn2ohcdE4iIAIiIAIiIAIiIAIiUAsCoe3LNjEtx80CBm3kJAWZBIUYJMqA+pItpL5miuzmCwhbC1aNug/ILNZHYn+Q99NnyvLWMsEyJvR56D3BEu57o15TpfOSIFOJiuaNOoFQmWgxQ4sRq2SoeQi5BeGBUnYS1S7jejqLFe+E+bu7cWOT7vo7HndXL74Tosx+btKk8aN+LdETUFrrKA2Ni4AIiIAIiIAIiIAIiEBtCbAfUbS6L8anpBUM+xLM2pOC9mIuTJgnGaa2/Gu5N5NZqMigUHxBSCAL4ltuGRP6jrZik/2RINNkN6ydTjdasVohLfZtiHNzv9Jat9NXWNcqAiIgAiIgAiIgAiIwCgR6izLMoESLCy/WeIMKL8b47v4onKQOOWACXpOBJwHUM2aPZQkv7UOfMQwHvNMGWVGCTIPcCJ1GZQLhoclhM6fFVlrryvdXc0VABERABERABERABESgHgSi/Qjun516s4qBC5MfFqUYGMqoNCABL8QUT4z3lPFiQuE0SxiG+c00lCDTTHerTc+19GFaNDsMvqAphIqJ9TiXjvgZztlpijvzxAPcZUuWuaVLl1kGpnnzdhlxgkprPeLIdUAREAEREAEREAEREAERMALlHfViv0KAmpMAM/EWhbToeHNeDwNxqIhAExAoPjxZASnKNH5abKa1vglprV9UWusm+IbpFEVABERABERABERABFqVQOi4F2PLtOqVtsd1hfvZClcrQaYV7mKbXEOpKMOLbty02Epr3SZfSl2mCIiACIiACIiACIhA0xBopY5800DXifZJQIJMn3i0sNEIlD9EvcUarGYaKC220lo32rdG5yMCIiACIiACIiACIiACIiACjUdAgkzj3ROd0QAIBGGGZochwrZrgLTYSms9gJunVURABERgiASKXuND3IE2EwERaFoCqv9Ne+t04iIgAn0QiPexTItEoKEJUJQJH4oyzE3PD8ZcMhl3qY6E60gkXBLDMWNSbkxHyh09b2d36oK93HrEd1m8+E73zDMv1Owamdb6tn884qZN7HLH77OjmzS2A+eHgMN2bnGX4EliIpXynw6cY7IT59aZcp2plEuNSWKYxPnik0y6Dg5TCYdRr7bqAABAAElEQVQNLU1fAkMfO6cYzCoIUzW7CO1IBERABBqQQJ/PukhwvwY8dZ2SCIjAMAmo/g8ToDYXARFoaAKykGno26OT648Af6RDcK4Q6Jep0DKZrIky1k7v9ntBMiYTSA6YPcONG9PhLrt5ubv22rvdggX7uNmYN5yitNbDoadt603g+ec3uN9fdVu9D6P9i0BdCZjAbQ/1IMbX9XANs3PV34a5FTqRUSTQrvV/FJHr0CIgAiNEQILMCIHWYepHICrK+AxM3kpmJNJiK611/e6r9lwbArvMnITw1zlUjZzLItYSx7M5jPA/5uWynMYQq/g/fp3aHF17EYHhEZg8YQyUdPuft4j0FoIU3rOcz8d9KJgomQ7zm3io+tvEN0+nPmwC7V7/hw1QOxABEWgKArEN3S+yGa4iAk1PgJYyLBz6T8wsZbJouDtYzGTSWdfTk3E9mYxLd2dcd7rHbdi4zV22dLl7bOVat+++O7vDDpszYA41S2sNl6UE3KpScbhXwUUpkfCCUnDB8jFy2PHwb4UHfIJasa0JsA5QlMyi15p2Gefw/d+2Le26t/W4rVt73Lat3W5Ld9r1YLgN9SKN5el0xrG6YEtKOCoiMKoE+CS05x6GuYK7J5+TKTcWLp4dnR2uC+6oKVg8jsGzMwU3zxjW8+6dzf3MVP0d1a+eDt4ABNq5/jcAfp2CCIjACBKQhcwIwtah6kug1FKGxxp8WuytW7rdSxfu2++JKq11v4i0QgMQYJ1giWXg2schTQ0s1hLiESEmEcW/HsRZSsBKhh1Axl/KYtzlELvIpiXLkJ/KaBDw312avMTwnU3iu5rgdzWGD6YRMcxihvE7ztBh4bs+Gmdar2OGa1L9rRdh7bdxCaj+N+690ZmJgAjUmoAEmVoT1f5GlUBowIaT8P1R/LAPIi32JogyxyzaF4GAGXWmdylPaz1j+y6/Eg5DqxYG77XOLzoPKby1ZYDhhAXpjbtODJOdeLNr0+hY8K0uAw8j0C/f6uZy7HSEjoaC9/amrzmDJZDXZCjFsG+Lzq3/frEXy85tKpl1sWzCltEay7s1YWUTZAZ7NK0vAjUkgC+s/97yuWgSjIsxGDqelxRo4vzgS0urLhNuuH74wtfwNEZzV+FyVH9H8y7o2KNCQPV/VLDroCIgAiNPQILMyDPXEUeAQGiU860/O5loraOnibf/ZjUDdcbBtB1uHD2dbMezqevcCfN3d+PGJt31dzzurkYGpmMW7ecmTRpvy8KfaFrro/ea4SbCXJ4lZFKKY1+QUUyESSa92JJA56EDLklejGFGJS/U8G1vCut4NyWJMYGxhrUnwK84v5cmGGL3WYh+lsGLljEQYxy0x1yaAg0rC12dan8O2qMIDIUAn8+MF0NXpFjSP1vp3hnncxTDmAkzXmRkTBl8m/PP9Nax7lL9Hco3R9u0AgHV/1a4i7oGERCB/ghIkOmPkJY3LYEgtPACmIHJRBn8zUKYSSbZwMecHud60BnleLw7bmmxt+vqcFcsfcjSYi+CKDNr1mTuwjGt9f33Pel2mNTlFs6Z4TogtHA7Fr6lpRhjaa1Dp4EuIRRiENcgBYuYFFJc0zKGabiTeeuZBN72RtNa+44Hz8fvOAz9UfRXBAZPwDdoYwiASosCfE/xiUGoTGUSLteRgzQJ0bKHHV3EWYISQystWsd4F6bBH09biEAtCdgzkN9dPirhpkSLQxNjaFkIQZsWhXRhotsSo/xSoMEInqGmxNfyVEZlX6q/o4JdB20QAu1e/xvkNug0REAE6kxAQX3rDFi7H30CoWPJITubjJHBtNgUaTjsQYBfBvrNMOAvPtt60u7Rp1+wtNhbEACVabGfWfmiW/HoKrfb9O3corkzLStNuDI2/82wHj2GFE3p0WGgG1IiBdckiC8dCECZhBhDC5kExRmzjPHr5dihwDnRcsGLMRxyj0VRxib0RwQGScB/372wwsC+/K67nA/ey+95Oo2Avj0+kG8GdSONOhDjKhinIKMiAg1DwAQZPBfpZgfBJRnHcxQWMl6Y4XMXQjfFbTyJowF9ef7hedow1zLAE1H9HSAordb6BNqw/rf+TdUVioAIRAlIkInS0HjLErBOJq7ON3K9KGMZaPIZmNKFLDPspFKUybhVL2x0ly1Z5p5du9m4HLD7NHfYHtPQkYV1DdIGmyUBrAtyaCzYW1oKMfgkmS0pCDEdcFdCFqWiGEMhhm924aKEjkUi503to2JMs3YgWvbL08QXFjp1dEEyIdKCKUGEyX/fe7iAYmTGZ2TygiXm5Qu+nioiMCoEKA6GwmciP7SSoTUiRRmLJcNnbdnzlM/i6PM07KMZh6q/zXjXdM61IKD6XwuK2ocIiECzEJAg0yx3Suc5bAKlooy3lqHVQH9psb9+yd/cjMnj3BuO3NOnzGbnFZ+wv9BJCDFjghiTgBhDIaZTaa2Hfe+0g6ERCB06DmklQxGSnVV+75kGPggxGQg11GZoGUN3JhYZyRgG/RlFAtBgrFD0ZrGA1GYo492UErQwhEgTtTTk8ziI2mFoGzfhH9XfJrxpOuWaEWj3+l8zkNqRCIhAwxNQDJmGv0U6wVoRYOOcDdxiI31gabF5/B0Q3DcJdyPXzTe16LzC3Yn7YmEHgNlqaD7PQKmdfGObjxfTiYxKxUxKPt4BrRDoouQ/tgs7p+J5+Xn6KwK1IBC+V/y+4dtqogx7sUnUh3iCQgwsu/BdpgWN/04zMLVclmrBXvuoDQE8dfGMpNDixRafKcxby+DrW+L2iTXsoOF7X5szGL29hOtQ/R29e6Ajjy6Bdq7/o0teRxcBERgpAhJkRoq0jtMQBELjNpwMG/jWgKfnBt2NLJsHfv4Z7BcLw/pJdGAZC4YdAZjJmJuHd1lipwDrIZAvYxp0JJTWOrDVcPQJ8PtbFCGZcYxfeB/UlxnH7HsL7cWEGIgykmFG/57pDCoT8I9qL7bwe5zhKKy+qsXgqryX5pqr+ttc90tnWz8C7Vj/60dTexYBEWg0AhJkGu2O6HxGhEAQWtgRpcbiRZnKabG5lHELUrB2iXfjbSziF2TStDTIW8hArElhOa1jaEXDtNY+roHSWpOdyugS6N2poyWMFxtNiLGWrhdjfHd3dM9XRxeBvggEET2Bx28cz2KW8AwPz/Uw7Gs/zbJM9bdZ7pTOcyQItFv9HwmmOoYIiMDoE5AgM/r3QGcwSgSijfa+0mLz9CjCjOlIuW68mU0g9kY6lrZOrS2jhQyyKxUsZBDQ1zIpQZhRWutRurk6bAmB0k4d3T7yVjGwljFRJu/mwY3ynngl22tCBEabgO+IFc+C32nGQwolPM/DMMxvhaHqbyvcRV3DcAi0c/0fDjdtKwIi0BwEJMg0x33SWdaJQLShS1EmFvMZOhj0lNk6QqGrElNY801sdwLpgSHQZPM91yRTXKO1kGKASYgwQYzxmZQQfBKdXr7JLc/80Yodh8BLw8YjUP59K373G+9cdUYi0D+BaDwwioytbd9Vfn2qv/1/Q7RGKxNor/rfyndS1yYCIuCcBBl9C9qeQLFhywZ9Mc4GM9IEUYZtfYotHHL9DN7McjkLrWeSyKbENKwmxjAWDdNaU6DJB/CNijHlDWvbif6IwAgRCN8/WsaE8RE6tA4jAjUn0G7f4XC9qr81/ypph01IINSHJjx1nbIIiIAIFAhIkCmg0Eg7E+CPerGBWxRlaCnDEoflDMWWNCzkmYI1gQAGzE5jy+iyxMxKMJ9JBTEG1jUSYwyP/jQoATVkG/TG6LREYAAEVH8HAEmriIAIiIAIiEATEJAg0wQ3Sac4MgSqiTI8Oi1jEhBdbBzpPdJwb4rTQgYL6MaUgGCThKUMY8bkIMbEaRlT5qakBrTh0x8REAEREAEREAEREAEREAEREAEQkCCjr4EIRAiUiiZ06cgvpFUMhBeKLbSkSUKLyWKcMSUZdyYBK5k4LGhse6RijXMZtuH2fhh2FDmYRkVABERABERABERABERABERABNqWgASZtr31uvCBEAgCDeUUBvaN5zIwh6GrEn2XqMZw0gswtJTJYRyyTF6IUYyOgTDWOiIgAiIgAiIgAiIgAiIgAiLQjgQkyLTjXdc1D4iAF2MguuQLDF8QSwbZlTBkkF7KMixRKxh4KplWYwvyf4KoE52ncREQAREQAREQAREQAREQAREQgfYmEPqU7U1BVy8CZQTKRRSKLnnlBYNgAcNh+HjhJob4MmFe2S41KQIiIAIiIAIiIAIiIAIiIAIiIAIFAhJkCig0IgL9EciLLmYhE0QZbFMQZajahOKzM4UpDUVABERABERABERABERABERABEQgSkCCTJSGxkWgDwK0fvGl6MbUx+paJAIiIAIiIAIiIAIiIAIiIAIiIAJVCUiQqYpGC0RABERABERABERABERABERABERABESgPgQkyNSHq/YqAiIgAiIgAiIgAiIgAiIgAiIgAiIgAlUJSJCpikYLREAEREAEREAEREAEREAEREAEREAERKA+BCTI1Ier9ioCIiACIiACIiACIiACIiACIiACIiACVQlIkKmKRgtEQAREQAREQAREQAREQAREQAREQAREoD4EJMjUh6v2KgIiIAIiIAIiIAIiIAIiIAIiIAIiIAJVCUiQqYpGC0RABERABERABERABERABERABERABESgPgQkyNSHq/YqAiIgAiIgAiIgAiIgAiIgAiIgAiIgAlUJSJCpikYLREAEREAEREAEREAEREAEREAEREAERKA+BCTI1Ier9ioCIiACIiACIiACIiACIiACIiACIiACVQlIkKmKRgtEQAREQAREQAREQAREQAREQAREQAREoD4EJMjUh6v2KgIiIAIiIAIiIAIiIAIiIAIiIAIiIAJVCUiQqYpGC0RABERABERABERABERABERABERABESgPgQkyNSHq/YqAiIgAiIgAiIgAiIgAiIgAiIgAiIgAlUJSJCpikYLREAEREAEREAEREAEREAEREAEREAERKA+BCTI1Ier9ioCIiACIiACIiACIiACIiACIiACIiACVQlIkKmKRgtEQAREQAREQAREQAREQAREQAREQAREoD4EJMjUh6v2KgIiIAIiIAIiIAIiIAIiIAIiIAIiIAJVCUiQqYpGC0RABERABERABERABERABERABERABESgPgQkyNSHq/YqAiIgAiIgAiIgAiIgAiIgAiIgAiIgAlUJSJCpikYLREAEREAEREAEREAEREAEREAEREAERKA+BCTI1Ier9ioCIiACIiACIiACIiACIiACIiACIiACVQlIkKmKRgtEQAREQAREQAREQAREQAREQAREQAREoD4EJMjUh6v2KgIiIAIiIAIiIAIiIAIiIAIiIAIiIAJVCUiQqYpGC0RABERABERABERABERABERABERABESgPgQkyNSHq/YqAiIgAiIgAiIgAiIgAiIgAiIgAiIgAlUJSJCpikYLREAEREAEREAEREAEREAEREAEREAERKA+BCTI1Ier9ioCIiACIiACIiACIiACIiACIiACIiACVQlIkKmKRgtEoBqBWLUFkfnFqpXL5SLzNSoCIiACIiACIiACIiACIiACIiACzhV7jaIhAiLQJ4FcolRYoc5iWgv+UHQJwkv5eJ871UIREAEREAEREAEREAEREAEREIG2JCBBpi1vuy56aARgGWPCCwdFccYLMPll8SDOcB1vSRMEmug2Qzu+thIBERABERABERABERABERABEWgVArEN3S8We5atclW6DhGoIYHHn3nRje/qcFO273KFylIYKR4oncm4bCbrcomYS+TiLhaL4ePwyeXHvUDD+SoiIAIiIAIiIAIiIAIiIAIiIALtTUCCTHvff119DQls6+5xmXTGxeNxiDJxF89SjIlhmsIMP17F8eMSZWqIXrsSAREQAREQAREQAREQAREQgaYjkGy6M9YJi0CDEshmcxBkvIVMPJdBhKa4y0CEyWUoytBixmYV3J1kKdOgN1KnJQIiIAIiIAIiIAIiIAIiIAIjQECCzAhA1iHag0A2m3XdsJBJQJhJwComnnAYwkoGfzJwZaKlDKao01hhTBmJMu3x3dBVioAIiIAIiIAIiIAIiIAIiEA5AQX1LSei6bYnQKFkw8bN7ujjznYHHn2W+8XF11Vlcvnvl9o6XG/VquddujvjunvSbls67bq7066nJ+PSEGnorkQLGsYCZrBfBfitilQLREAEREAEREAEREAEREAERKAtCEiQaYvbrIscLIEJ47rcv338zbbZ1751sXv2ubW9drF23Ub339/8jc3/t4+80U2aNMFt7elx3VvTLr0t43ogypgg05M1CxkvysClqSxDU68da4YIiIAIiIAIiIAIiIAIiIAIiEDLE5Ag0/K3WBc4GAJRseTVJx3l5h881zb/9vd+22s337vgSrdx6za3z9yd3Ztfd6xLwxqme0uP24rgvhRm0rCQoXVMD7IvMdgvXZqyqHHeUkZWMr2AaoYIiIAIiIAIiIAIiIAIiIAItBEBCTJtdLN1qYMjEEcU3s/+2+m20e+u+Zu74+6HCzt44MEn3G+uuMmmP/ept7sE4sT0QHTZ2t3terbBMgZWMtsg0PTAfSmL+WkE+81kcsi8RLcl/ynsTCMiIAIiIAIiIAIiIAIiIAIiIAJtR0CCTNvdcl1wfwSiVjK77TLDnX3Wa2yTL37tInM9ykJQ+eJ5v7B57zr9RLf3XrvYeBaWMNvgqsT0191wV6KFDK1jTIxxEGFgIWMfn/26cBrR4xVmakQEREAEREAEREAEREAEREAERKClCSjLUkvfXl1cLQic+dYT3e//eKt79PGV7pLLb3Rjx3a6+x983M2cOtGd9a6TC4dII5MSXZNiEF5Y4gje6xIxl4wj6xKXIb2SVbhECO6rLEsFeBoRAREQAREQAREQAREQAREQgTYjENvQ/WLZ+/o2I6DLFYEIgeBOFI/BeIxZqvPl7nsfdWe+/6s2NX5Mp8WO+cE3PuKOPHy/sIp7dMU/3cqVG1wqGXepRNIlO5NubGfKdeIzZkzKpTo4nnQxLE84fJAWm2mvw6ewI42IgAiIgAiIgAiIgAiIgAiIgAi0PAG5LLX8LdYF1oLAgfvPdm967SLbFQP5nnziS0rEGC5gsN4MYsX4eDHePSkLy5gsUl5bYiWLHRM9G1W/KA2Ni4AIiIAIiIAIiIAIiIAIiEA7EVCPsJ3utq51WAQ+9L7XFrb/0FmnFsYLIxBcfAYlDBEzhrFmoNEgbgw+JsbIGK3ASiMiIAIiIAIiIAIiIAIiIAIi0OYEJMi0+RdAlz9wAuO6xhRWHj9+bGE8jFBuKQovtIop+jxFA/fCU0lFBERABERABERABERABERABESgzQlIkGnzL4Auv3YEYASDyDBeiCkIMxHLGOozUWGmdkfWnkRABERABERABERABERABERABJqNgASZZrtjOl8REAEREAEREAEREAEREAEREAEREIGmJyBBpulvoS6g0QjICqbR7ojORwREQAREQAREQAREQAREQAQaj4AEmca7JzqjBiWADNWFgmTVhXGNiIAIiIAIiIAIiIAIiIAIiIAIiMBgCSQHu4HWF4F2JRCPx93dt1zQrpev6xYBERABERABERABERABERABEaghAVnI1BCmdiUCJBCLmtIIiQiIgAiIgAiIgAiIgAiIgAiIgAhUICBBpgIUzRKBoRCgDpO1DXMVRZkY82KriIAIiIAIiIAIiIAIiIAIiIAIiAAISJDR10AEakoA0WUsvAyHGMGHw2A1E4Y1PaR2JgIiIAIiIAIiIAIiIAIiIAIi0HQEFEOm6W6ZTnikCDBbEv67JXc+5mZMHu/2mDXJZbNZl+V8DrNc7tdxDlYxOLF4HOILYs14LaaypUwG6yVG6iJ0HBEQAREQAREQAREQAREQAREQgYYkIEGmIW+LTmq0CaQzWZfBJ5fLup/9/nb3kv13dtt17Ok2b+1x27Z1uy1belwmnXY9PRmXTnM9f8aJRMzFocbQ9MyGNJLBRNRKpnhtdHAyc5riLI2JgAiIgAiIgAiIgAiIgAiIgAi0BQEJMm1xm3WRtSFA1yP6+cUdhZdcGmPxnEuiFtFShoWZmBIJKDCJhEsksRzj8ZzfjhvHGEiGQxNi8ipObU5OexEBERABERABERABERABERABEWgiAhJkmuhm6VRHloCP9+ItWCig0B2JQkzChgmXS8BdCQILvJdMkOH6FGSScS/GJGJwTMpvwyH+Q4vBniI+S/4YI3tdOpoIiIAIiIAIiIAIiIAIiIAIiMDoE5AgM/r3QGfQgAS8UAKxpeBR5AUZs46B5UsqE3e5VNxl0zCGoU8SY8hgmIPqkuRyWMikUgmXxDoJWsvQUgbLggADXSYyXjhIA5LQKYmACIiACIiACIiACIiACIiACNSDgASZelDVPpuaAEUTxo4J4gkvxlyNIKokkwmXgXtSEvFlnEvCJckH+LULxnZmQYNhKpV0CYgxHRBj4nRdglgTxzj3Gd2vbac/IiACIiACIiACIiACIiACIiACbUdAgkzb3XJd8EAIeOEEQkzaW6/QZSkJMQV/4KIEd6UOWMTEsy5hgX9pIcP4MbCigWgTo3BD1yWINymIMklay0CUwWyXxSfJCDLcF6xqVERABERABERABERABERABERABNqTgASZ9rzvuuoqBCiUhAC9XIUiCwvn0/WI4V+S9FOCrJJOZFyWrkuwmGHsGHouwR7GW8nQGgYijBdmMI9WMlBkcvCBYmgZWtx4UYZ7VxEBERABERABERABERABERABEWg3AhJk2u2O63oHTCAqmtCghe5ISQgqOcSGSWFGHOoMY8xwGT8UZUzAoYUMl3OID8UYxpDJYmUOo9YxEmUGfDu0ogiIgAiIgAiIgAiIgAiIgAi0FAEJMi11O3UxtSAQFUkotFgxgQWCCnyOaBGTpvWLLaPbEdUYWL7QTYnrYUjxxlJeYz4D/eaQ+roY2FfWMXmqGoiACIiACIiACIiACIiACIhA2xKQINO2t14XPjgCcEvKW70gjq9zGbgrwVIG2gwsXnLmqhSD8EKLGBNiqNEEqxjGjMEyn2WpKMZEhZ/BnYvWFgEREAEREAEREAEREAEREAERaHYCEmSa/Q7q/OtGgIJJLMZsSrSB8RYw8VwGFi8MxwvXoyzVGC6ERQwFFwgwZhkDCxkG72W8GO+i5EUb7C7vrlQc2s71RwREQAREQAREQAREQAREQAREoO0ISJBpu1uuCx4IAYoxdE2KWrEwXgytZLKMFYO02BRdWMxyBoJMEGPMPQkuSnG4LXlRx7s1hX2Fod9af0VABERABERABERABERABERABNqRgASZdrzruuZBE6B1C9QV286LLBBizDzGz2b8GC410QZD755EQYZijLeIkRBjKPRHBERABERABERABERABERABEQABPLv+MVCBEQgSiCa+jo6PyrKhPlBoLFlUGWC8CIxJhDSUAREQAREQAREQAREQAREQAREoJyABJlyIpoWgQiBqsJMZB2NioAIiIAIiIAIiIAIiIAIiIAIiMBgCUiQGSwxrd/yBIII44e+ijCbkqVUshGOelekAKM46d2aOD+6TnQ8bKOhCIiACIiACIiACIiACIiACIhA+xJQDJn2vfe6chC46+GV7p6HV/VmkddbgpDy6D+fc79afA9UFi+0ZIsKTN5TKeZOP3F/LszrNhRmGEPGr083Ju4ruDP1PqDmiIAIiIAIiIAIiIAIiIAIiIAItBMBCTLtdLd1rb0IHLTnTPfDy//hNm3e1mtZdMYzz25w/FQrx86f7SjSxJEKO5vAWtksAvsi/TWyZkdjyUiUqUZQ80VABERABERABERABERABESgvQhIkGmv+62rrUDgkL1nuZvveMx94+OvchO6OmHSgtTWSGtNI5gcBRZvFuOyGaS6xnQGQ1uGPzfc9Zi7aulyd+CcGQXxJY5US5YSG2oMLWKYcQl7siPLUqbCDdAsERABERABERABERABERABEWhDAooh04Y3XZdcSoCCDMudy1fiL1yL8NcLLphCDYnnxRSuY8XSX2MtLLsbLk9Ttu9yu87Y3gSbTAYCDoUYijdIeU0Bh58cRB7/8cJMcIUKu9RQBERABERABERABERABERABESgvQhIkGmv+62rLSNAYYRuS+NgGfOPZU+bEENBxSxcYBvDcWgrebGF4xBYYD0DIxi36sWN7qnV691+s6f75VyGlTNpbod4MRinu1JRlKEw4z9lp6FJERABERABERABERABERABERCBNiMgQabNbrgutzcBiiQH7z3TLVux2q3fuAVijBdTOJ8WL5l0xqVp8ZIXY2jjwvH7VzxrOztgNtyVILzkTLzxLk3chkIO58WxP66P3ZmVTO8z0BwREAEREAEREAEREAEREAEREIF2IyBBpt3uuK63IoFD5u5o8+9Y/oxLmHDixRiLG0OrFooxcF2iGENhheXeR1a6yduNdbtM386EFnNRovUM1jVLmowXZUyMQaBfCjyhyFImkNBQBERABERABERABERABERABNqTgASZ9rzvuuoyArRyodvS7Q894y1h8tYtzJxUFGO8lQs3fXbdJnNXmoftQiprixEDycaEGwo4tIqBhQzFlwT3Y59SYabsNDQpAiIgAiIgAiIgAiIgAiIgAiLQJgQkyLTJjdZl9k/g4Lkz3IMr1rh1G7bYytBPIKKUCiiMCcOkSQ88tsbWOXDP6TbNeSG9dTgS7WGCJUzYV1imoQiIgAiIgAiIgAiIgAiIgAiIQHsTkCDT3vdfVx8hcHDebenuR1abkBJZZKMxZGCKI1tSHMN7Hl5t2ZX2mDnZpjmPy/ivd6k0r/damiMCIiACIiACIiACIiACIiACItA+BCTItM+91pX2Q2D/PWa4rrEd7o6HVhXckLgJXZJgGGPCSywed2vWbYa70jp3wJwZLgHTmEQCcgyGYT2uG4rNy+sxli07LNBQBERABERABERABERABERABESgrQlIkGnr26+LDwS8cBJzB8+d6R58bLXbsGkrBBaKMViDggw/EF3omnR/3l3p4LmzXBxiTNzm++UUbLgut4lzmC9Mk83iF/n9+Tn6KwIiIAIiIAIiIAIiIAIiIAIi0I4EJMi0413XNVcggCi+KMFt6Z5HV5uwQlHFRBRawNAtCcO7Hlrppk7scnN2moRpiCz4UxBlqMUEgcbGiwKNCTWRI5dPRxZpVAREQAREQAREQAREQAREQAREoMUJSJBp8Rusy+ufgFm/5IUXZlui29Lty1ea0GJiDHZhcgwEltVrN7snV62Fu9IsE2z8tlwhL9xE1vXLcn69DFfhOnlTmf5PS2uIgAiIgAiIgAiIgAiIgAiIgAi0MAEJMi18c3Vp/ROoJJDQbWn542vgtrSlIKIEHeXeR1bZTg/BOpWKF11Mn8kLOjFHdyVu7/fhLXEqbat5IiACIiACIiACIiACIiACIiAC7UNAgkz73GtdaT8EmLaagkrRbWlNwUombHpn3l1pjx0n2Syf1hqjzGsdKUVhxisxQfjx82UlE0GlUREQAREQAREQAREQAREQARFoSwISZNrytuuiywkEoYRWLMFtidmWWIKY8uy6TXl3pZmmv2Rh7JJDqmuKMixBkzFLGPzh0PZbwV0p7NM21B8REAEREAEREAEREAEREAEREIG2IyBBpu1uuS64nEBUHAnjIdvSxs1bzdeI4spdD3uB5kCku85BjTHrGK/KFEQZ7ttEGAoyGJe7UjltTYuACIiACIiACIiACIiACIiACJCABBl9D0SghEDWBJXgtnT3Iz7bEle5G4LMlO3Hut1nTnTZbK4gyth4qceSWcfYn7yVDLcPQg3HVURABERABERABERABERABERABNqbgASZ9r7/uvoIgSCY0BomuC3dlXdbem7dlkJ2pSx8k+ieROMY+2DCz8urMrSOyQsxsYzPrBQsb3i46Hjk8BoVAREQAREQAREQAREQAREQARFoIwISZNroZutSqxOIiiRhnG5LDzy22rIt3fXwStv4gDnTvRiTF2GCOOP37IWYcBS5KwUSGoqACIiACIiACIiACIiACIiACJQTkCBTTkTTIuBK3ZbueXSNY3al4K5ERcZiyDCOTOGDefjHQkHHRJ0wjM6zNfRHBERABERABERABERABERABESg3QlIkGn3b4CuvxcBL6gU3ZZuX76yJLsSg/lmkSKbFjD8INFSSaG7EksM2ZVUREAEREAEREAEREAEREAEREAERKASAQkylahoXtsRCKmryy/84Lmz3PLH19jsg/acabmtKcAw3TWD+dqH8WTy1jF++1whTkzBWiay42rHiqyiUREQAREQAREQAREQAREQAREQgRYnkGzx62vpy1PHvra3N/D0Q2/mctDeM90tdz3upk7ssuxKmUwWAXwhyMBVKQZLGZZcHLomzGLykwUxJpwd90ermbB/ijRhPKyj4dAJmHvY0DfXliIgAiIgAiIgAiIgAiIgAiIwKgQkyIwK9uEdNNqZj44Pb6/a2rOMm7BCcYXT82bPcF1jO9wBc2bZNOfZekx7bVYxiBcDcSYbSyCHPAWaUrGF61IwwCoYegFHpGtHICpuSZipHVftSQREQAREQAREQAREQAREoP4EYhu6X1Qvsf6ch3WEcy+4ruL2FA1U6kcgBOl9Ye1m1zUm6To7Ul6soRQTYU/rFxZIM2YJY8JAfl6Ybyvoz5AJ7DZzojvzpENKtifnqMgVBJkwLFlZEyIgAiIgAiIgAiIgAiIgAiLQYARkIdNgN6TS6TzxzItu8pQJlRZp3ggQ6OzqdIzPuzkNM5c+S0Sl6XM9LRwMgRee3+B2nTHRpfP8KYB50SXn4nGvfNFrLFgjheFgjqF1RUAEREAEREAEREAEREAERGCkCUiQGWniQzzeFAgyRx05d4hbazMRaF4CF154gwVPdjnIYlBjaJ1EQSYDLSaHP16cKVrLcFqiTPPeb525CIiACIiACIiACIiACLQLAQkyDX6n2bFUEYF2J5BFPejuzlCPMQEmBpMYWsXwT4axebKcprWMry9epGl3arp+ERABERABERABERABERCBRiYgQaaR747OTQREwAhkEBV5a3ePMyEGuks8FncJCDAJPMESEGYyScyERxlFGYo2LLKS8Rz0VwREQAREQAREQAREQAREoDEJSJBpzPuisxIBEYgQyCHdePfWtFnFxGEVk0jAZSkZd0lYzuSSCZeMZV0G82gpE4NYQ0sZWclEAGpUBERABERABERABERABESg4QhIkGm4W1I8Ib7hl8tSkYfG2pcAA/pu29ZN0xgTY5LxpEvBIiaX8uYwFF+SjB1jGbAoxnhWspJp3++MrlwEREAEREAEREAEREAEGp2ABJlGv0M6PxEQAZfOZtwWCDIJB6sYWMZkUjkE+s26TrBhcN9EJuNyNIyJJSzor4QYfWlEQAREQAREQAREQAREQAQanYAEmUa/Qzo/ERABZFOCy9KWtIshVkwSyktHFsF7ocYk0nBRovsS3ZgwK4Y/3qosrhgy+t6IgAiIgAiIgAiIgAiIgAg0NAEJMg19e3RyIiACJJCBANOTQQyZTByWMRBeOjMu3hNzPYwjk0kgdEzWUmPDcAYLQ0BfsRMBERABERABERABERABERCBxiUgQaZx743OTAREIE8gR0GmJ4P4Mc6l0jGXZiwZpLtOZLzrUg6uSvRV8tYxeVVG9ERABERABERABERABERABESggQlIkGngm8NT8x3MBj9JnZ4I1JlAFmJLTw9MY1DgneRiyKYEKcasYlhH6MGkulLnm6Ddi4AIiIAIiIAIiIAIiIAI1JQAw2CqiIAIiEBDE6DYEsshtXXeIiYGBYYijc+q5MUYTKqIgAiIgAiIgAiIgAiIgAiIQNMQkIVM09wqnagItDEBWsDw8inC5JDeOj+Mm2VMhIuJNJFpjYqACIiACIiACIiACIiACIhAgxKQhUyD3hidlgiIQG8CtILxrkk+XgynVURABERABERABERABERABESgGQlIkGnGu6ZzFoE2JNBnjBgpM234jdAli4AIiIAIiIAIiIAIiEBzE5Ag09z3T2cvAm1HQEYxbXfLdcEiIAIiIAIiIAIiIAIi0JIEJMi05G3VRYmACIiACIiACIiACIiACIiACIiACDQyAQkyjXx3dG4iIAIiIAIiIAIiIAIiIAIiIAIiIAItSUCCTEveVl2UCIiACIiACIiACIiACIiACIiACIhAIxOQINPId0fnJgIiIAIiIAIiIAIiIAIiIAIiIAIi0JIEJMi05G3VRYmACIiACIiACIiACIiACIiACIiACDQyAQkyjXx3dG4iIAIiIAIiIAIiIAIiIAIiIAIiIAItSUCCTEveVl2UCIiACIiACIiACIiACIiACIiACIhAIxOQINPId0fnJgIiIAIiIAIiIAIiIAIiIAIiIAIi0JIEJMi05G3VRYmACIiACIiACIiACIiACIiACIiACDQyAQkyjXx3dG4iIAIiIAIiIAIiIAIiIAIiIAIiIAItSUCCTEveVl2UCIiACIiACIiACIiACIiACIiACIhAIxOQINPId0fnJgIiIAIiIAIiIAIiIAIiIAIiIAIi0JIEJMi05G3VRYmACIiACIiACIiACIiACIiACIiACDQyAQkyjXx3dG4iIAIiIAIiIAIiIAIiIAIiIAIiIAItSUCCTEveVl2UCIiACIiACIiACIiACIiACIiACIhAIxOQINPId0fnJgIiIAIiIAIiIAIiIAIiIAIiIAIi0JIEJMi05G3VRYmACIiACIiACIiACIiACIiACIiACDQyAQkyjXx3dG4iIAIiIAIiIAIiIAIiIAIiIAIiIAItSUCCTEveVl2UCIiACIiACIiACIiACIiACIiACIhAIxOQINPId0fnJgIiIAIiIAIiIAIiIAIiIAIiIAIi0JIEJMi05G3VRYmACIiACIiACIiACIiACIiACIiACDQyAQkyjXx3dG4NR6C7u6fhzqkWJ5TJZGqxG+1DBERABERABERABERABERABERggASSA1xPqzUxgR6ICOteXN/vFUyeNsnF4wPX6Dau3+jWvdD/fsOBUx0pt8OsaWFycMOcc+vXbXDPrX7ePmtWPue2bd7qTnvHKS4Wiw1uX0Nc+/k1L7jzzjnf7bjzdHf2ue8f4l7qv9na59e5//3qT9zLTl7oDl94aOGAF33/YpfL5twZ//KmwjyOrFj+uLvgvAvd289+s9vnwLkly1Y/s8b97Ju/cK968yvcvEP2KVnGiadW/NN990s/dq/6/+3dB5xU5b3/8d+UXZalF4EFBaSKBcQOBoNRo7HFklijXmNMN/rXVF83MYl5eVNuYjRRb4zGkBhr7L0rKMaCICiKgGChLL2zbWb+v99z5szOzM4uu+wsMzvnc8zsnDZnzvN+hvt6ne99ypeOlinHHd7kODsQQAABBBBAAAEEEEAAAQRyCxDI5HYpqb2fLFkm11998w7L9MNrvifdelTmPK9rt65SroFK+vLq86/LY/9+Nn1Xi+tDhg6UH1xzac5z5r35rguNajRkqdleK7U1tbJd37fr9uYNm+VjLUP20r1HNzloykQZNmpo9qG8b9fW1Mkt/ztNavS+evbtKa88+5+c3zFkaJUMHzMs57FdtbOhoUFWLF8tW7dsy/jK/gP7yZP3PycHfWb/jODlhcdfduXafdjgjPNto6HOu9aWjVtSxyykicfibtsCPDP5z/Q3ZdQ+I1Pn2MrAwQMkHGl9wJfxYTYQQAABBBBAAAEEEEAAgRIXIJAp8Qq24g2o6i8XfPcsefSupyQWj8kXzzk+Veppf75Lxu4zSvbef6z89srrU/uzV0740jFyzClHZu922/9z888kEo3kPObvnPanO2XD2vX+ZpP3x+952oUI/oGKii7SR4OP7j27S7/+fWTYiN2lZ58eslvVbrKbBgv9B/WXLhXl/ukd+h5riMldf7k3dX+zX3tH7JVrOfaLRzYJZCxU+snXfylDhw+Ry3/1nVwf2yX7jtIWM2/NnCN33/qAXPm7y6W8S7lrbTRv1nw54pjDpEfvHq26jz9d/VfZsnlrxrnLPq6W3/wk8/dz+S+/LUO13lgQQAABBBBAAAEEEEAAAQSaChDINDUpuT0Wakw8bLy8/tIs12rC1v3l7lse0JYM/eWwIw/Wh/M1MuPZ1+TILxwu1prCFgsTHtWwxLobNbf84nu/ae5Qar+1orAWMi0t4/YbLRddfp5Eo/qz3DW9kFq6HXdsk7bOmXbdv2Txwo/d9qnnHi9Tjp0s4VBjy4+3Xn1b/nHj3S7YOvKEKU2vmdD+VrrE4g1Nj+Vxz6dLl8nqlWtli96zLZ8uWS6z/zNXhgyrkq2bvdYyB0zeX17UFjHz5yyQXn20pc9zr7lzd99ziCz54CPp0au7q3sr96YNm6R62Wp33LqK2fV3HzZEvnrZubLik5Xymv6eTjzzWK0rr7K2b90ut11/h0yeeqDsP2l/GaChGQsCCCCAAAIIIIAAAggggEBuAQKZ3C6B22utTSxosEBmxNg9Zb+D9nYGS/Uh3ZbBQwe591x/Lv7++RLZwdgzD/7rcamvr8v18dQ+CzmiZcXzk/xo0Sfy19//w7UG+fzJU2W1BlYPaDnen7tQzv7Gl6RrZYU8rNszNNQ4TMdq+fJXT9lhS6FUYTtg5c2X58iLT76SuvIsDYrsdeq5J+h9P5babyt/1xZL6csdN9/nNq2lzGkXnCwvP/2qPP3wi6lTnn10utjrD9N+pb+P4draaaPrRtZQ3yB7T9zLnTdDP2PL2PFjZUxW9yV3gD8IIIAAAggggAACCCCAAAIpgeJ5+k3dEisdKWBjsVx92e9SX2EtV/yl/wCvVUz1supUILPsoxXucEuBzMvPvJrRYsS/Xvr7ymWrpN+A3um7mqyvXrVGXnqiMVBockIzO/YYMcSFBM0c3undFjbY62JttbOPDWirDV1GjJkp9/3zUbnm+39wXapsrJbjTjtKjjv1qJ1q1bNs6XJZ9tFy2bJpq+uGNXLcntKte9NxfGwWJDvXWsBYXVTtPki2bd3mWjz16d/btSo66qTPyuSjDpH1azbITb+5TaYeN1m3D3UtYYaN9LoO3a/3XrO9Rs75+pecywYd7NnCmSO/8BmZcPA+0rufV0cH6jgzw0cPlbXaMua+2x9zXZrMwB8TZv9D99PxaJ6Vpx98wQUyNqbMc4++5LqX7XegF+btNDwfRAABBBBAAAEEEEAAAQQCIEAgE4BKzi7iPhPHpnZNf6ZxcFp72B6qXVdWfFKdOr7so2Vig+dat6fsZU9tKWFhRGuWqTq7Uo+e3Vo8dZWGDdktOVr8QPLg5zWIsFYb+V4sHPnljVemBjPevm27G7fGPGwMFQtjbKnR/YvfXyJ76mC+fmCxo3ux6bMf0qDjFR0YOX2xsXPO/eaXU4GYHVu/doPcpjMdpQ9sbOPqDNauSDb+iz9Wi3U3spc/U1avvr10/CBvVit/oOFuPbQeNVjyt60rki1VOnOUv8+2bUBee1kIZMtgHax4rHYpW/Teh9oq6Am3b9OGLWJ19rsrr5N4Q1w2JGfc+uNVN7njBx9xgEz5/CS3zh8EEEAAAQQQQAABBBBAAIFMAQKZTI+S37LAxbqk+MvrM2b7q+599+GDZe6b8yUej7tWL/O1e87ovYZnnDPrlTkS05l8bOnbr1fGsR1tvP7Sm+6UCYeOzxiUt05n87ExZL7y7TN2dIkmx1sa36bJyW3YYbM92Vgpn2oo8cG7i134YR+3MOR4nebZWqZ43YRmalehmWJhyrgJo3XMlsEyeA9txaIvOyfX8tR9z7kwpkqDqhPP/oKGXpWyYN4iefy+Z+XWP96ug+7+PxemWD3c8vtpYoPmms/ESeNdq53HdXYrC2N2tNiMSzXbajVQazkM29F1/OORSER66ODKtvjv/rG+yXGH/O0uXZofd8g/h3cEEEAAAQQQQAABBBBAIKgCBDJBrflmyj1m31Ey84U35MP3l2o3mIhr9TDypBEZZz9+7zOuq4x1d7IQIn3cF3/2HWtF0tIyfPQwGaBhhC0JHfR27Zr1sveEMTrtdsufa+ma9/7twSYtTlo6P9exkdpN55KrvimP3PmEPPfYjNQpFobYgL6jxo2QKu0yNOc/82SJGp33nTPl9AtOkjmvzZOF8xfra0lqBib/WqmLJFc2rNuo157utr595ddSsxv503dbKPPU/c+7a899410XxliQdtEVyQGP9ZOj9h4h1/zgWu+KyUGDk5dPvb3/9kJ5SceUOV5nyDpEx7hxS8Kbrjp1UitX5r0xX7uTvSxXXHOJXHzF+alP3XTNLfo7KZOLf3hBah8rCCCAAAIIIIAAAggggAACOxYgkNmxUUmdsWrFGpn2pztSZUofQ8Z27qvjhFjI8ubLs6UsOcBu+qxMds5P//gD2ahjj1x1ya/lHB3cdryOPeIvl33lSjnqhCPkxLOOlURc+8bkWLK79WzeuMWd1We3Pu79g3cWuemYc3y0ya7Dph6c6iZk46QkdFrv9ix9k+PoHHj4/i5oGr33SBk2ao8ms0zNf3uBvKkthY7XWYYqdcwXG6vFXraYjXX1aa51zCcffurOs5Ale6rpcTr9uAUynyzxzlmanN1p0ucO8Wafcp+0qcx3k3108Nx35y5I7vHeqnWsnjdmvOU2Fry7yHVBq+zWVV5/0WuZZPVfW1uX2t600ZuRadF7S0S0vsJlETno8Inu88s/XilvvOxdy77HWvNUf7oqNeW1jVWzYP6Hst+B47R1z8KM+7CNiq5d1G5ok/3sQAABBBBAAAEEEEAAAQQQECGQCdivwAIYG/ujucVau3zm6EPdjDp2zkEaTLTUauUebZXy6N1PNrncv297qNnWKr/404/dQLP+hzboGCm29E0GMjN0kOB5s97zD7f4fvCUA1KBzCGfPUjslY/FxkyxoOUhnZ3olecax9nxr70kGZSkh1v+MXufqoPkWpelXMua6nVut7VGyl4GDhngdtnYLDbWy+rla9z2blndgWxn36xBkm1GqHdnv+/Otz82qO8p556oLXbmyh233J/abyvZ269riGMvWyyQueFXf5WFOi6Ovxx94hFy/BmflwfVY/pT3mxK/jGrq1z11btvT/n59T/2T+MdAQQQQAABBBBAAAEEEEAgTYBAJg0jCKvWKuOSn349VdQff+0XqXV/xbq32BTHtkzSFigtLQdMHi9DR3gz+Nh5t990rzt90ucOllkz35YhOljs53TQXVuef+QlWaxBhk0Xnb6s1ymUbembNt6KPcxfcfV300/LWH9SW5FkD4ibcUIeNuq0JYk/y1T25fwBbJs7XlvT/BTf/vg71iUse9mo3ZlscV2+QtpoJXlCF21tkr343cMkpCfqsofW7SAdiHeothS67fo7xAb1FT1kU5hf83//LXZPv7jsty6oOeaUz7nPrFu1Tn7/sxvd1NgHTfFaxtgBG9DYBkruN7Cv2JTY/TUQssGCj/j8ZJmo4/+8+9Z77jdygo6lM0pbEdkSa4jJn7UL0zhtufP5U6a6Lm/uAH8QQAABBBBAAAEEEEAAAQSaCBDINCEJ3o611evl9emzXLAyaPeBGd1zemkwsqMlZE/9Wcvuw4fIZ4+dLC89NdPNPrRtq85EpGGMtbgp71KecfZaaw2iS5/klMv+QZsxqLmlq3bD6ejFugVd+b9XuK+xaaetC5Y/Xs7tN93juiz5x20mpF69e6Za67R0b/2SrV3mz1kgx51+dMapHy/+1G0PHORNQb5bVV95b67IWg1OLHBJX/xWOjoIj9vtz3jlz5zknxuNRiXaPSo29bgt1g3Ln1p7u9aLLV27VaT22bZ/X/4sS7bPFgtmevbpKbffeI8M0Hs86uSpqVmdbLwbWw6beqCrc7fBHwQQQAABBBBAAAEEEEAAgZwCBDI5WUp3Z832GrEH5+Ufr5BPdJwT68Jk44PY68LvnePGJrn9hrtSALddd7tc+vNvp6Z+Th1Irrw1c64s1NmBci2TteuTBTL/vPFeDSq80OaI7GmQNUv4z/Q3XYuQHr282XtyXauQ+6xlyd+vv1O7em3IaWFjxvzmR9e51kDnfPtM6ZfsetXcPQ8duYc7ZNNY2zgs/lgzNrjxnNfnuWP7H7qfex+6p9f66MXHX3bj+/iB0Ax19VvpNPc92fttpihbbEyc9izVn1ZLTMfqWbtyvfzux9fJEdo9a08dDPmOv/zbzUBl4+CwIIAAAggggAACCCCAAAIItCxAINOyT0kctXFFbCwUNy6Jluhv1/3Llcu6BdkyVmfsOeGs43S65ip5/N6nXUuWU889wbX2uO8fj8g9tz4gX/lW7umoz/jqKalBfa0VyRUX/FS/Z418uGCp6/Jyvs5CdLOObWLL1OMO1+40mWHAhx8sdfflWnc0bWjjPlfIP+tWr9cw5g6x8ORkHcC3vLzpVM69tMXISTqI8b1/f1h+95Pr5cJLz5GxOitTc4sFNja+i02V/fuf3iDHnPxZ6dq1QuZpPdlYLNZd6VAdxNeWAyZNkOl63tLFn8i1V93gugNZN6n3cgyi29z32X4Lfp68/zk3MG/3ns23PGrpGv6xPbSL2s+u/aG8pwMb23gyd+vvw1/Ouvi0nEb+cd4RQAABBBBAAAEEEEAAAQQ8AQKZAPwSemtgYN1p9t5/LxmsY7oMHKIvnTGnQsdysTFkbCBZa4nxyF1PuumYbZakz37hcCdjs/zYbELDtVXFZ46Z5PbZg/3q5avdug3o+4SGOOvXbXKtbWznvFnzNWDoIt17dpMZTzcOAGvXsW43B0yeoMOeeOnLzOdfd9eZdGTmWDXW+uOJfz/jjuX6s0hn9+nIJR6Lyys6uPB9tz/mvub080+SKWmte2J1DRlff/jRh7nuPDf95jax15kXnSqpMiXLGgk3/nM7UQOwSCTiptZ+4F+Pp641XAOrCy87NxVq2IxU3/jxhfLIHU9oS6JZbgpsmwXLwi0bQ8ZM/VYz/kU2bfBmTvK3bRaraX+6022eesHJ/u5WvdfX1ec8z8I3q8NwODNF+7t+z9EaXk09foqr/5wfZicCCCCAAAIIIIAAAggggACzLAXhNzBk+GD5zn9f3GJRn3noBRfG2BgvNmW1v5z5tVNl+UfL5d/THnFjj1h4s2ndBtmyaYsO7rqv9NDWFpXaoqOnjvfSs3cPueXa213rD2uFcc0PrnWXOf28E8Xu4b5pD8k/deyVl554Rb7xo/+SMh1LxgIFu461Mslennrwhexdu2x7zaq1LoyxVkQXfPdsNyaKhUA2HbiObSuz33jHtTZJvyFrFfOjX18qf/ntbdoi6XEZr4Pp2gxVNojxH2+/Jv1UN4X1SWd/QT6nsxetsC5AOiCujd+Ty8HGeznr66fLGVoXNuaLP+vVTf/zN3dNf9umvL5/2sPy0YfL3P5+u/WVmm012grnz65701EnTJEx+3gD8GbcTI4Na/3y7MMvSXUyeLOxY2yZ+dxrbrDmxdoCyl+m6HTfR59ypFh3uCfvfcYN9muDQn9Zw5/DjznMP413BBBAAAEEEEAAAQQQQACBNIHG/5d92k5WgyNgD/vl2uJi4qTxUr1itZx98emp1iumYAPwfvXy8+SZh16U3Qb1dzBnfO30ZoGs9UZlt0oNaHrIgYeNl5PPPT4VMlxx9SU6hfRrYmOZdOvezc0AdMaFX3RBRPoFrfuOzQZ12c+/lb47Y/3Zh1+U6dr6xmb+6YjFBvS9REOs3TVI6qJlsqWsPCrWxcqWsfuMkqNOOsKtp/+p0lDlil9+x7UW8oOS9OPZ63bOqHEjsnentme/+rZMu+FuNxiydRvzr2ljAC14d5FYX5y1uwAAL59JREFUYGStn2yxQMyWYdrKZs+xw2SvCWNcS5sxOoivzZh0WFYrJDs3ojM92eC8blYn25FcbIBl6541TFtOjdzbm3HJDsXqG2Tzxs0yRccHGqn3PW7CWPXxBmm2MOmCS8+VqYs+lsfveVqn5e7jX453BBBAAAEEEEAAAQQQQACBLIHQ5rr13hQtWQfYLLyADfIaj8floqvvl9FjBsvkSWMLf1PcwS4VsAGDr7rk1+47bayfvXTA3E3rN8urL7zhQp//uuRs8QcA3qU3tgu/bNq0F2R0VW+ZNGqAhMIRDcYi0lXDsTINgir1VaGv8oqoVGiAVK7HJBTRFkhh15LJulX53eN24S3zVQgggAACCCCAAAIIIIDADgVoIbNDIk5AoHAC1urk0p99Q55/bLob8HdBcuycfv37iA2oXOphTOHk+WYEEEAAAQQQQAABBBBAoGMFCGQ61perI9BugT3HDJOLxpwnNpBu9bLV0qdfL+narWu7r8sFEEAAAQQQQAABBBBAAAEECidAIFM4e74ZgTYJ2KxMg4cOatNnOBkBBBBAAAEEEEAAAQQQQKA4BTpmRNTiLCt3hQACCCCAAAIIIIAAAggggAACCBSFAIFMUVQDN4EAAggggAACCCCAAAIIIIAAAkESIJAJUm1TVgQQQAABBBBAAAEEEEAAAQQQKAoBApmiqAZuAgEEEEAAAQQQQAABBBBAAAEEgiRAIBOk2qasCCCAAAIIIIAAAggggAACCCBQFAIEMkVRDdwEAggggAACCCCAAAIIIIAAAggESYBAJki1TVkRQAABBBBAAAEEEEAAAQQQQKAoBAhkiqIauAkEEEAAAQQQQAABBBBAAAEEEAiSAIFMkGqbsiKAAAIIIIAAAggggAACCCCAQFEIEMgURTVwEwgggAACCCCAAAIIIIAAAgggECQBApkg1TZlRQABBBBAAAEEEEAAAQQQQACBohAgkCmKauAmEEAAAQQQQAABBBBAAAEEEEAgSAIEMkGqbcqKAAIIIIAAAggggAACCCCAAAJFIUAgUxTVwE0ggAACCCCAAAIIIIAAAggggECQBAhkglTblBUBBBBAAAEEEEAAAQQQQAABBIpCgECmKKqBm0AAAQQQQAABBBBAAAEEEEAAgSAJEMgEqbYpKwIIIIAAAggggAACCCCAAAIIFIUAgUxRVAM3gQACCCCAAAIIIIAAAggggAACQRIgkAlSbVNWBBBAAAEEEEAAAQQQQAABBBAoCgECmaKoBm4CAQQQQAABBBBAAAEEEEAAAQSCJEAgE6TapqwIIIAAAggggAACCCCAAAIIIFAUAgQyRVEN3AQCCCCAAAIIIIAAAggggAACCARJgEAmSLVNWRFAAAEEEEAAAQQQQAABBBBAoCgECGSKohq4CQQQQAABBBBAAAEEEEAAAQQQCJIAgUyQapuyIoAAAggggAACCCCAAAIIIIBAUQgQyBRFNXATCCCAAAIIIIAAAggggAACCCAQJAECmSDVNmVFAAEEEEAAAQQQQAABBBBAAIGiECCQKYpq4CYQQAABBBBAAAEEEEAAAQQQQCBIAgQyQaptyooAAggggAACCCCAAAIIIIAAAkUhQCBTFNXATSCAAAIIIIAAAggggAACCCCAQJAECGSCVNuUFQEEEEAAAQQQQAABBBBAAAEEikKAQKYoqoGbQAABBBBAAAEEEEAAAQQQQACBIAkQyASptikrAggggAACCCCAAAIIIIAAAggUhQCBTFFUAzeBAAKtFQi19kTOQwABBBBAAAEEEEAAAQSKWIBApogrh1tDAIFGgVCohSimpWONl2ANAQQQQAABBBBAAAEEECgagWjR3Ak30qLA2rWb5ZFH32zxHA4iUOoClrt4wUzIvZPDlHqNUz4EEEAAAQQQQAABBEpXgECmE9Tt0Ko+ktD/JJGQeFzf9L94Qlfsf7ovEbdtfddTvD/eOZ2gaJ3iFtdvrnX32adHl05xv6V2k317VGgK4/6XDGESqfe4C2jSSqwJDSFNmgerCCCAAAIIIIAAAgggULQCoc116+0xnqUIBRIugIlrCBOSBomJNMSltrZB6mrrpaamXmpr6mR7XYPU63ttfUwa9HhDQ0xClt1oWkPF5qdS/znjA3eh86aM0byrZdUWu9Xk53YCdRXrpGSm9p4IhaWszF4RiZaVSdeKqJR3KZfKijIpqyiXCt1fVh7V88MSiYQlrB0y3WdJaAL1m6GwCCCAAAIIIIAAAgh0FgFayBR5TfkP+KFYyAUs7tE0HNKHTX3g1IfOSCQk9ZGIRLSVjBcWhDXAsUQmoi8LD1oOEIq8+EV1exF9sNe2GXpP1iwjyzXhIoOM1hnagImlXQJmqosFMvqbj+pvPWK/9ZC+dFv/Fei/A33X4/rm3r0P8BcBBBBAAAEEEEAAAQQQKH4BApnir6PUQ749ntr/sz9kYYw9gerLHk7LonEJxSPumLUK8Lo16ck7aM3RCYpeVLcYjmrIpTGA30rGf0+FZlY5FtnYmy5Rf8Xb5O/OCKihcZqxhY/6y5dQNKwtZPRl2/bSH73Lx+zc5GtnvorPIIAAAggggAACCCCAAAK7UoBAZldqt+O79DnTtc6wIMZigbi2jolqFw0dPEbHkNH3cj3eYAGNTZzljTXTjq/jo6aY1gpmn2H9pUuXqAtjLIhJuBYxjUwhPbcxDPASGaszW0JZ53p7+dtaAc/VfC2M0ZYyGsiUhSMSti5K+h5ywYwXUtqYMi42c/hZrZha+4WchwACCCCAAAIIIIAAAgjsAgECmV2A3N6v8B/04/qQad2U7BXSUKAsFpFEeUI0JpBwvT2oxiWmzWNcWOBCAx5I22vvNzKyh34bt8TCmLCyJmxQ5dTitczwBpi1FhveAWvb4YcyqVNZabOA/f4N0lw1hnGBjAtjtPtSVFst2Xgx1oXJGo2JVoLVla64AKfNX8YHEEAAAQQQQAABBBBAAIFdJEAgs4ug2/c19nCpD5o6jow9m0b1AdRmVgpptw3d0pYCIYlFE9IQi0m55gSuK42fJLTviwP56XQ6v1tSRFtiVHYp0+d9b6we6xam0J5PMiywOgpraxjrUuaN+ON1tfERre5YdlLAGSugtRCzcCwcdYP7WjATUe+whjPmbos5uxBnJ7+KjyGAAAIIIIAAAggggAACu0KAQGZXKO/kd6Q/VNpDpnVXimkLAeuS4QUF2jYmHNdWAro/Zt2UNKjRQCDu0gLvSxPJ1ho7eQuB/5gfyFg3mfKuGshoCBOy0Mu1RPJ4XACgYYBZh11woIGMdXfS9fQ6DDxmGwHM2V/M0V6WudiYMRbKuLFkdN1rJaO/ez0WsUBMz9Mach/F3xfkHQEEEEAAAQQQQAABBIpNgECm2GqkmfvxxygJuy4ZXsriHlBjOquSPpSGy2x6bP2wBQbJlht+A45mLsnuVgl4D/bWCqOrtZBR45hNKe5mtfIu4OrGQgIbclarxgsOkqGMG5K2VV/ESTkEXLai+xPJFTegtWso43VTiliXJTVPWLclDWO8WZdsvBkLZVgQQAABBBBAAAEEEEAAgeIVIJAp3rpJ3Zn/cOlmVtKHftcCRh9AbRafcMSCGB3kVNMXm+7aa9FhHWaS3WlSV2GlrQIu0EqmWjZuT1QDGR2kR40j2iLJpV/JS1o3GgtgdNOCARvPxIIYP0QgG2grfZPztd2L4zRS+/fgzTTmtZbxW8b4YYye4T7v/7tpcjF2IIAAAggggAACCCCAAAJFIEAgUwSV0NIt2EOlhSzew6UOKOtGLtXHfQtgNHSxWWfKNHtxQYzuI4ZpSbNtx8zUn03JgoBybY1hAyvH9DJu4FgNwNyidWIBgQVkIV23QMa2XXCQnH2pbd/M2bkEXMxiFaGL/TvQIZXcIL7ZLWMIYhwRfxBAAAEEEEAAAQQQQKDIBQhkiryC7PaahjJeUODv9xoEeGGM97jaCQpVxLeYiHhBi8YqEtVQxpawTrlsY5VYIBPSIMZmVPLPs4F8rQWNaxmjg8vqqgtk7BytPP2TvJ5LEOxqLO0R8DIZDb6UNexmVLKAxq6odZMMbPz39nwPn0UAAQQQQAABBBBAAAEEOlKAQKYjdfN4bT988R807bnT655kA/naA789+HtLMkPwN3nfSQGvhYz3YWv5EtWH/1hIh1RuiGkLJW+mKztqrWVSYYyuJ/RcS2wirpIsk3Fpgc3ZzNIOgWTWkrqC/Vtwgycn9zT+22j8t5A6mRUEEEAAAQQQQAABBBBAoMgECGSKrEJauh3/gdM/x7YtNMh+UPWP877zAplhlxd3uXFLrKOYNYHRMWRs7BJbbGalxjFNrE68FjNWL16dedOWe2fzN38Cflc+74rZ/z7y9z1cCQEEEEAAAQQQQAABBBDIvwCBTP5NO/yK/oOnF8bQGqDjwDNbHlkXJNM2fwtb3MC9um3jmXgDynrjmkRc1xk7zw/LGrvSdNy9BvfK/r+H4ApQcgQQQAABBBBAAAEEEOiMAgQynbHWkvfMg+iuqLzk+C8uidHvc2GM1zLDa0Xj34MX3oR0nBjrwuSHNn4d+e/+2bwjgAACCCCAAAIIIIAAAggEWyDZ6SLYCJQegWyB1gQoXpck/aQLaZpvBdOaa2V/P9sIIIAAAggggAACCCCAAAKlLUAgU9r1S+nyKGCtX7zFazXT8qXjLR/mKAIIIIAAAggggAACCCCAQKAFCGQCXf0UHgEEEEAAAQQQQAABBBBAAAEECiFAIFMIdb4TAQQQQAABBBBAAAEEEEAAAQQCLUAgE+jqp/AIIIAAAggggAACCCCAAAIIIFAIAQKZQqjznQgggAACCCCAAAIIIIAAAgggEGgBAplAVz+FRwABBBBAAAEEEEAAAQQQQACBQggQyBRCne9EAAEEEEAAAQQQQAABBBBAAIFACxDIBLr6KTwCCCCAAAIIIIAAAggggAACCBRCgECmEOp8JwIIIIAAAggggAACCCCAAAIIBFqAQCbQ1U/hEUAAAQQQQAABBBBAAAEEEECgEAIEMoVQ5zsRQAABBBBAAAEEEEAAAQQQQCDQAgQyga5+Co8AAggggAACCCCAAAIIIIAAAoUQIJAphDrfiQACCCCAAAIIIIAAAggggAACgRYgkAl09VN4BBBAAAEEEEAAAQQQQAABBBAohACBTCHU+U4EEEAAAQQQQAABBBBAAAEEEAi0AIFMoKufwiOAAAIIIIAAAggggAACCCCAQCEECGQKoc53IoAAAggggAACCCCAAAIIIIBAoAUIZAJd/RQeAQQQQAABBBBAAAEEEEAAAQQKIUAgUwh1vhMBBBBAAAEEEEAAAQQQQAABBAItQCAT6Oqn8AgggAACCCCAAAIIIIAAAgggUAgBAplCqPOdCCCAAAIIIIAAAggggAACCCAQaAECmUBXP4VHAAEEEEAAAQQQQAABBBBAAIFCCBDIFEKd70QAAQQQQAABBBBAAAEEEEAAgUALEMgEuvopPAIIIIAAAggggAACCCCAAAIIFEKAQKYQ6nwnAggggAACCCCAAAIIIIAAAggEWoBAJtDVT+ERQAABBBBAAAEEEEAAAQQQQKAQAgQyhVDnOxFAAAEEEEAAAQQQQAABBBBAINACBDKBrn4KjwACCCCAAAIIIIAAAggggAAChRAgkCmEOt+JAAIIIIAAAggggAACCCCAAAKBFiCQCXT1U3gEEEAAAQQQQAABBBBAAAEEECiEAIFMIdT5TgQQQAABBBBAAAEEEEAAAQQQCLQAgUygq5/CI4AAAggggAACCCCAAAIIIIBAIQQIZAqhzncigAACCCCAAAIIIIAAAggggECgBQhkAl39FB4BBBBAAAEEEEAAAQQQQAABBAohQCBTCHW+EwEEEEAAAQQQQAABBBBAAAEEAi1AIBPo6qfwCCCAAAIIIIAAAggggAACCCBQCAECmUKo850IIIAAAggggAACCCCAAAIIIBBoAQKZQFc/hUcAAQQQQAABBBBAAAEEEEAAgUIIEMgUQp3vRAABBBBAAAEEEEAAAQQQQACBQAsQyAS6+ik8AggggAACCCCAAAIIIIAAAggUQoBAphDqfCcCCCCAAAIIIIAAAggggAACCARagEAm0NVP4RFAAAEEEEAAAQQQQAABBBBAoBACBDKFUOc7EUAAAQQQQAABBBBAAAEEEEAg0AIEMoGufgqPAAIIIIAAAggggAACCCCAAAKFECCQKYQ634kAAggggAACCCCAAAIIIIAAAoEWIJAJdPVTeAQQQAABBBBAAAEEEEAAAQQQKIQAgUwh1PlOBBBAAAEEEEAAAQQQQAABBBAItACBTKCrn8IjgAACCCCAAAIIIIAAAggggEAhBAhkCqHOd3ZygVAnv39uHwEEEEAAAQQQQAABBBBAoNACBDKFrgG+v1MITH9riSQiiTbcK/+02oDFqQgggAACCCCAAAIIIIBA4AR4agxclVPg1ggkErnCF69ljH/I3t26/rHz/c+kr9t3+ftb872cgwACCCCAAAIIIIAAAgggEAwBAplg1DOlbIOAH6B4wUpa96RUAuOFLH7wkn5eItL4Rf5x22PrLAgggAACCCCAAAIIIIAAAgj4AlF/hXcEgigwZ+EKmbtwZdOiJ/OT9CDlzifnarIiEk/ENWCxj/hhTULCoZCcc+x+EtED8bge0W3vuHch27Zrefubfh17EEAAAQQQQAABBBBAAAEEgiVAIBOs+qa0WQL7j66Svz7whmzdVpt1pOnm9Lc+bLozuefIA0ckgxjtuhQJ6XpcwmFrgGbBDKFMs3AcQAABBBBAAAEEEEAAAQQCKkAgE9CKp9iNAgfsNVhm6KC9115+gvSo7OJav3jdjTRKiWuLFwtUtHVLLBaXuL5ius/2J0IJeWH2Enns5Q9kwqgq3afHtSWMxTDxsLaI0XPD+m4vP5ihpUyjO2sIIIAAAggggAACCCCAQJAFGEMmyLVP2Z2ABTK2zF6wQv964Yl1SYqHtYuR/gsJayBj235bF/eux/So6+7Ur1elDBvYUwMbDW/spcFMyAIbPSdugY6t6wUSCa/bkn1Xelco22ZBAAEEEEAAAQQQQAABBBAIlgCBTLDqm9JmCVgwYt2WumnLmDfeW+aCFwtU4vovI5QMV7ShiwYtMWnQFWsZE9M2M3qKVK/fIp9Ub5J9Rgx0rWjsc34oY+8hPT+krWgyQxkvnMm6DTYRQAABBBBAAAEEEEAAAQQCJkAgE7AKp7hNBSyUmbhXlbz3YbVs2rLdaxlj4Yvut2Al1hBLdVOy7kvW0sWSm3c/XOUutp8FMtaiRo9ZKGPBjQU4+ua2w8mWMvoR77NNb4E9CCCAAAIIIIAAAggggAACARMgkAlYhVPc3AIHjB3iDry1YLmENUjxwxgbMyauSYp7t8DFhSr6R5d5i1ZK355dZdignu58P5RxrWh0w0IZa0njuizpdNh2TX+x9fRtfz/vCCCAAAIIIIAAAggggAACwRAgkAlGPVPKHQiMHznIdVua9cFyL1yxUEbTFAtjvAF8dTvtGqs3bZNPV3ndldJ2p1rK2GcsjLFrWPBi02F7IUxmMJP+WdYRQAABBBBAAAEEEEAAAQSCI0AgE5y6pqQ7EJg4dpC8r92QNm7e7s7UDEVDlMwARSdRcrMmzV/idVeaoOPPhCPh5ExKOu6MjfiriwtfXPem9CDGO8ZfBBBAAAEEEEAAAQQQQAABBAhk+A0gkBSYmOy29PaiaheoZMNY1qLDwUjEza5ULTa70siq3m7b9tvs1sk8JuujufdmncQmAggggAACCCCAAAIIIIBAgAQIZAJU2RS1ZYH9RgySyq7l8tYHK7WlS2OIYus6WZJOf63v4bCs2rhNZ1faKONHDZKIax2jLWTs3Y7ree6V/Lz7bPJSaZds+UY4igACCCCAAAIIIIAAAgggUPICBDIlX8UUsDUCXnASkoljq+T9JdWyeWuN637kQhQLZGxFX2F9vZvsrjRx7GAXxEQi3v6QNpGxwCb9XP+742mhjP9d/jHeEUAAAQQQQAABBBBAAAEEgidAIBO8OqfEOQV0BF5d/G5LcxdXu2DFAhiXxWjY4q/P+WCF9O9dKaN27+PGjrEQJpx23AUzXn6TEdC4oCbtu7O30w6xigACCCCAAAIIIIAAAgggUOICBDIlXsEUb8cCfosVC15stiXrtjRrwYpkmOKNC6OxjAtmrLvSxys3aHelwS6wcWGNtX7xgxtb1f+88MY+k/DOi9kptp1sKrPj2+IMBBBAAAEEEEAAAQQQQACBEhYgkCnhyqVoOxbIFZBYt6UFS1dpt6XtqRDFz1HmLVrpLjpxTFXOi3uhi8tnUq1jrLuSfd67htcSJ+eH2YkAAggggAACCCCAAAIIIBAYAQKZwFQ1Bd2RgN+apbHb0qpUKxn/s7OT3ZVGanclW9z01jqQr5sf2+3x/jQGM14S4wc/3n5ayaRRsYoAAggggAACCCCAAAIIBFKAQCaQ1U6hswX8oMRasfjdlmy2JVv8MGX1xq3J7kpVLn+Ja2OXRCLkQhk7L2HBjC6uJYz+sXd33Rzdlfxrep/gLwIIIIAAAggggAACCCCAQNAECGSCVuOUt4lAejjir/uzLW3ZVuMSFgtX5iz0ApoJOt11QtMY1zrGS2VSoYxd3IUwFsjoOt2VmnCzAwEEEEAAAQQQQAABBBBAQAUIZPgZIJAhEHeBit9t6e1F3mxLdsrbGsj069VV9qzqLfF4IhXKuPVk6xj/UhbgeE1kvIDG9vtBjX8O7wgggAACCCCAAAIIIIAAAsEVIJAJbt1T8iwBPzCxMMXvtjQn2W1pzcbtqdmV4to3ybonWeMY99INb19jnyW7hrtezJtZydb9JX3d38c7AggggAACCCCAAAIIIIBAsAQIZIJV35S2GYH0kMRft25L85dUu9mW5ixc4T45ftRAL4xJhjB+OONd1hs3xv8Kuiv5ErwjgAACCCCAAAIIIIAAAghkCxDIZIuwjYBkdluau3iV2OxKfnclS2TcGDI2jkzqpfv0P1ss0HGhjv+evs+dwR8EEEAAAQQQQAABBBBAAIGgCxDIBP0XQPmbCHiBSmO3pVkLVmTMrmSD+cZD9vIG7dWJljIWv3dSSGdXYkEAAQQQQAABBBBAAAEEEEAglwCBTC4V9gVOwEKWXMvEsYNlwdJV7tD+o6vc3NYWwNh01zaYr3vZeDLJ1jHeNRJeCxndSLWWSbt4c9+VdgqrCCCAAAIIIIAAAggggAACJS4QLfHyUbwOECjVQMEvl/fuNXvZf68qeWXOUunfu9LNrhSLxXUAXw1ktKtSKBniJMKaa2qzGD/Tcd2V0tztetZqxr++HffX007r9KvZ5e70BaIACCCAAAIIIIAAAggggEAHChDIdCBuqV06PURIXy+VcnplCrtgxcIV29535CCp7Fou40cNdtu2z51n0167VjE6XoyGM/FQROeQt1Y2mWGLnWtBhZ6i73a8NJf0kIlgpjTrmFIhgAACCCCAAAIIIIBAfgVCm+vWl+5TYn6tAne1q25+NmeZLawIwuIP0rtuwzaprIhKl/IyL6yxKCbNwFq/2KLRjGsJ4wKJ5D5/vzuhBP4Mr+ot5x9/QEZJrLzpYZMfyPjvGSezgQACCCCAAAIIIIAAAggg4ARoIcMPoVmBj5avl779ejR7PCgHulR2ERufd1uDNnNpcUlLaVo8r3MeXLd2swwb1Fsakg4WRHmhS0LCYS+Bst5bfqsg/71zlpa7RgABBBBAAAEEEEAAAQQ6VoBApmN9O/3V+2kgM3nS2E5fDgrQfoFp015wgxhLQuMpTWOslZAFMjHNYhL6xwtnGlvL2DahTPvduQICCCCAAAIIIIAAAgiUpgCBTGnWa7tLZQ/SLAhkC8T1d1FXF7M8xgUwIW0SY61i7E/MxsiJ27a1lvF+P15Ik30VthFAAAEEEEAAAQQQQAABBAhk+A0ggECrBWI6OnFNXb24IEZzl3AoLBENYCL6f0kiGszEorpTe3ZZKGOhjS20kvEc+IsAAggggAACCCCAAAIIpAsQyKRrsI4AAi0KJHTa77qaBtcqJqytYiIR7bIUDUtUW84kohGJhuIS033WUiakYY21lKGVTIukHEQAAQQQQAABBBBAAIGAChDIBLTiWyq2tWigy1JLQsE9ZgP61tbWWdMYF8ZEw1Ep0xYxiTKvOYyFL1EbO8bNRGVhjGdFK5ng/mYoOQIIIIAAAggggAACCOQWIJDJ7cJeBBDIIdAQj8l2DWQioq1itGVMrCyhA/3GpYuea4P7RmIxSVjDmFDEDfpLEJMDkV0IIIAAAggggAACCCCAgAoQyPAzQACBVgu4LkvbGySkY8VENXkpj+vgvZrGRBq0i5J1X7JuTLorpH+8VlZhxpBptS4nIoAAAggggAACCCCAQJAECGSCVNuUFYF2CsQ0gKmP6RgysbC2jNHgpUtMwvUhqbdxZGIRHTom7qbG1oYzetAf0LedX8rHEUAAAQQQQAABBBBAAIESFCCQKcFKpUgIdJRAwgKZ+piOHyNS1hCSBhtLRqe7jsS8rksJ7apkfZW81jHJVKajbobrIoAAAggggAACCCCAAAKdWIBAphNXXkfeuvdA3ZHfwLU7o0Bcw5b6em0ao4v2TpKQzqakUYxrFWO/GevBxG+nM9Ys94wAAggggAACCCCAAAK7WsCG32RBAAEEWiVgYUsooVNbJ1vEhDSBsZDGm1XJC2N0kwUBBBBAAAEEEEAAAQQQQGAHArSQ2QEQhxFAIE3AWsDYpoUwCZ3eOvkedi1j0s+ziIYFAQQQQAABBBBAAAEEEECgOQFayDQnw34EEGhWwFrBeF2TLJixV7OncgABBBBAAAEEEEAAAQQQQCCHAIFMDhR2IYBA8wJeENPMcZKZZmDYjQACCCCAAAIIIIAAAghkChDIZHqwhUBeBBrqG3SclVherlWsF6FRTLHWDPeFAAIIIIAAAggggAACnUGAQKYz1BL32KkEamtq5fsX/kxuvObWTnXf3CwCCCCAAAIIIIAAAggggMCuEyCQ2XXWfFNABOi1E5CKppgIIIAAAggggAACCCCAQDsECGTagcdHEUAAAQQQQAABBBBAAAEEEEAAgZ0RYNrrnVHjM51WYNWK1bJs6XKp1zFeho7YXQYOGSChUChVnq2bt8qqFWuk34C+0rWyQj5ZskxWfLxS+vTvLUNH7iHde3ZLneuvbNqwWT758FOJxxMybNQeUt6l3D/EOwIIIIAAAggggAACCCCAAAI5BQhkcrKws9QE6urq5aHbH5NXnn89o2hD9xwiX7vifOnZu4fb/8G7i2Xan++SqccdLgvmfiArlq9OnV9R0UUu/fk3pWr3gal9M56aKff989HUtq0cMuWAjG02EEAAAQQQQAABBBBAAAEEEMgWIJDJFmG7JAUe/MfDMvPFWTJ0+BA55pQjJRwJy5vT35LZb7wjf/jZDfLTa38gkUgkVfYXn3xFuvfoJudcfJpUdq+UFx5/WRYvWCpP3/esXHDpue68Oa/NS4UxJ375GBm0xyCZP/t9mfnCG6nrsIIAAggggAACCCCAAAIIIIBALgECmVwq7CspgeXa5cjCGFu+9ZOvStduXd36uAljZNuv/yYL5n8o789dKPtM3Mvt9//84JpLpFefnm5zyPDB8otLfysfL1nuthM6cu9TGs7YctFlX5H9Dtrbre97wDgNdsIy49nX3DZ/EEAAAQQQQAABBBBAAAEEEMglwKC+uVTYV1ICi+cvduWZeOi+EimLinVfsldDQ0z2njjOHVvwzsKMMh92xIGpMMYO9OnXW6zL0to16yUei8uGdRtdd6befXvKfgd6YYx/gclHH+av8o4AAggggAACCCCAAAIIIIBATgFayORkYWcpCaxaucYVZ/Zr74i9ci1bN23L2N2zV/eMbduIapgjNbVirWPWrV7vjlcN0fFkGscEdvv69u/j3vmDAAIIIIAAAggggAACCCCAQHMCBDLNybC/ZARi2qLFltF77Slj9h2Zs1wDLVhJW8IWvrSw+NfctHFTk7PisViTfexAAAEEEEAAAQQQQAABBBBAIF2g5afO9DNZR6CTCuw2qL+7cxuk95hTPpdRijXVa93U1rtVeedkHGxhw6bFtmXZx9Wybcs2N/Cvf3r1slX+Ku8IIIAAAggggAACCCCAAAII5BRgDJmcLOwsJYERY4e54tiMSjXba1NFs7Fg7vy/e9001+tWrUvtb81Kn769xMaPseWdt95LfcS6Mz332IzUNisIIIAAAggggAACCCCAAAII5BKghUwuFfaVlMCwUUPlwEkTZNarb8t1V90onzlmkpv2+rWXZsnSxZ/IyNFDZdyEsW0qs02bfepXTpTbrr9D7rj5PqletloGaiubt2fNl3d16msWBBBAAAEEEEAAAQQQQAABBFoSIJBpSYdjJSNw5sWnSWW3Cjcd9b3THk6Va8rRh8qxpx3tAhrbGQpljdCbOrPpyoRD9pWzLjpV7rr1AW0VMz11gk2Dfesfb5dwG66V+jArCCCAAAIIIIAAAggggAACgRAIba5bnwhESSlkqwWs2008HpeLrr5fRo8ZLJMnta31SKu/qAAnbtm0RZZ/vNLNlDRw8ADp3a9Xu++iZluNfLp0uZSVR2Xw0Cp9L2v3NYvxAtOmvSCjq3rLpFEDJBSOaDkj0lXLXFZRLpX6qtBXeUVUKrT85XpMQhGJRsMS1o6RFnS1JewqxvJzTwgggAACCCCAAAIIIIBAPgVoIZNPTa5V9ALde3bXmZZG5fU+KyorZNTeI/J6TS6GAAIIIIAAAggggAACCCBQ2gIM6lva9UvpEEAAAQQQQAABBBBAAAEEEECgCAUIZIqwUrglBBBAAAEEEEAAAQQQQAABBBAobQECmdKuX0qHAAIIIIAAAggggAACCCCAAAJFKEAgU4SVwi0hgAACCCCAAAIIIIAAAggggEBpCxDIlHb9UjoEEEAAAQQQQAABBBBAAAEEEChCAQKZIqwUbgkBBBBAAAEEEEAAAQQQQAABBEpbgECmtOuX0iGAAAIIIIAAAggggAACCCCAQBEKEMgUYaVwSwgggAACCCCAAAIIIIAAAgggUNoCBDKlXb+UDgEEEEAAAQQQQAABBBBAAAEEilCAQKYIK4VbQgABBBBAAAEEEEAAAQQQQACB0hYgkCnt+qV0CCCAAAIIIIAAAggggAACCCBQhAIEMkVYKdwSAggggAACCCCAAAIIIIAAAgiUtgCBTGnXL6VDAAEEEEAAAQQQQAABBBBAAIEiFCCQKcJK4ZYQ6AwCoc5wk9wjAggggAACCCCAAAIIIFCkAgQyRVox3BYCxSoQCrUQxbR0rFgLxH0hgAACCCCAAAIIIIAAAgUQiBbgO/nKTiSwdu1meeTRNzvRHXOru0LAchcvmAm5d3KYXaHOdyCAAAIIIIAAAggggEApCRDIlFJt5rksQ6v6SEL/k0RC4nF90//iCV2x/+m+RNy29V1P8f545+T5NrhckQj07VGhKYz7XzKESaTe4y6gSbtRTWgIadI8WEUAAQQQQAABBBBAAAEEsgRCm+vW2+M0CwIpgYQLYOIawoSkQWIiDXGprW2Qutp6qampl9qaOtle1yD1+l5bH5MGPd7QEJOQZTea1vCDSlGWzIp1UrIWMfaeCIWlrMxeEYmWlUnXiqiUdymXyooyKasolwrdX1Ye1fPDEomEJawdI91nSWhK5vdAQRBAAAEEEEAAAQQQQKD9ArSQab9hSV7BHyckFAu5gMU9iodD+nCtD9j6kB2JhKQ+EpGItpKxAEckrAGOJTIRfdk2sUzp/DAshtHFAhn9DUS17iNW9yF96bb+KvR3oe96XN/cu/cB/iKAAAIIIIAAAggggAACCDQnQCDTnAz77fnbLfZm6yELY+yJW1/2MF4WjUsoHnHHrBWE161JT3aBjPdZ/paIgIUxWhQLXSyM01+ChKJhbSGjL9u2l/4IrJWU/SBoEVMi9U4xEEAAAQQQQAABBBBAoMMECGQ6jLY0LmxBjI4U4oIYbfsicW0dE9UuKTp4jI4ho+/lerzBAhqbsMsba6Y0Sk4psgW8kMXGjbEwRlvKaCBTFo5I2Loo6XvIBTNeaGdjytjvxT5jvwsWBBBAAAEEEEAAAQQQQACBTAECmUwPttIE/FYOcX2otm5K9gpp65eyWEQS5QmJ6oN2uN4ezOMS0+YxiYSlN34XprQLsVoSAi5csd+CZm8aw7hAxoUx2n0pGtXuS9aVTVtPWSMq0UTGAhpdcQFOSQBQCAQQQAABBBBAAAEEEEAgjwIEMnnELL1L2cO0PljrODLW0CGqD9w2s1JIu6nolraMCEksmpCGWEzKbRYm66pEd6XS+xmkl8gFMvpjsG5rGrhEw1E3uK8FMxHr0qbhjHVts8V+M14LmfQLsI4AAggggAACCCCAAAIIIGACBDL8DpoIpD9E20O1jRsT0xYR1gXFG8BX28aE49oqQvfHrJuSBjXaOiZug8gkl4T3TO5v8t6JBUKN1eoFdC6Usd+FN7izG0tG171WMvo7sBY0+nvwfkded6X031QnpuDWEUAAAQQQQAABBBBAAIG8CRDI5I2yNC8U0lFa7WE67Lqg+C0fdDumsypZi4gymx5by64tY6w7ky00knEMJfXHgjlbEskVN8CzayjjdVOKWJcl/XkkrNuShjHerEveb8f7JH8RQAABBBBAAAEEEEAAAQTSBQhk0jVYzxDwWzW4mZW0hYxrAaMP3FELaCIWxOigrpq+2HTXXssZmyKbAVwzEEtsQ9u9aEDX2B3Jm3nLay3jt4zxwxg9y5Xe/x2VGAXFQQABBBBAAAEEEEAAAQTaJUAg0y6+0v2wPURbyOI9TOvgvW6kVm9QXx2+182yU+aGjHF/iGFK96fQpGQuZkm2lLHfhQ4x5AbxzW4ZQxDThI4dCCCAAAIIIIAAAggggEBKgEAmRcFKtkDTUMZawnhjg7gWMe7J3GsT47WFyL4C26Us4GUyOrivZnJhN6OStZSxEvvjxzCobynXP2VDAAEEEEAAAQQQQACB9gkQyLTPr+Q/nRnKeF1VvO5JNpCvdU9qjGIYO6bkfw6ugMnGManC2m/ExhryF79ljP/u7+cdAQQQQAABBBBAAAEEEECgUYBAptGCtWYEsh+sbdvrztTMB9gdMAG/a5tX7OzfS8AwKC4CCCCAAAIIIIAAAggg0CoBAplWMXGSCfgP2l4Y09gyBh0E0n8faCCAAAIIIIAAAggggAACCOxYgEBmx0ackSXgBzNZu9lEAAEEEEAAAQQQQAABBBBAAIFWCrghOFt5LqchgAACCCCAAAIIIIAAAggggAACCORBgEAmD4hcAgEEEEAAAQQQQAABBBBAAAEEEGiLAIFMW7Q4FwEEEEAAAQQQQAABBBBAAAEEEMiDAIFMHhC5BAIIIIAAAggggAACCCCAAAIIINAWAQKZtmhxLgIIIIAAAggggAACCCCAAAIIIJAHAQKZPCByCQQQQAABBBBAAAEEEEAAAQQQQKAtAgQybdHiXAQQQAABBBBAAAEEEEAAAQQQQCAPAgQyeUDkEggggAACCCCAAAIIIIAAAggggEBbBAhk2qLFuQgggAACCCCAAAIIIIAAAggggEAeBAhk8oDIJRBAAAEEEEAAAQQQQAABBBBAAIG2CBDItEWLcxFAAAEEEEAAAQQQQAABBBBAAIE8CBDI5AGRSyCAAAIIIIAAAggggAACCCCAAAJtESCQaYsW5yKAAAIIIIAAAggggAACCCCAAAJ5ECCQyQMil0AAAQQQQAABBBBAAAEEEEAAAQTaIkAg0xYtzkUAAQQQQAABBBBAAAEEEEAAAQTyIEAgkwdELoEAAggggAACCCCAAAIIIIAAAgi0RYBApi1anIsAAggggAACCCCAAAIIIIAAAgjkQYBAJg+IXAIBBBBAAAEEEEAAAQQQQAABBBBoiwCBTFu0OBcBBBBAAAEEEEAAAQQQQAABBBDIgwCBTB4QuQQCCCCAAAIIIIAAAggggAACCCDQFgECmbZocS4CCCCAAAIIIIAAAggggAACCCCQBwECmTwgcgkEEEAAAQQQQAABBBBAAAEEEECgLQIEMm3R4lwEEEAAAQQQQAABBBBAAAEEEEAgDwIEMnlA5BIIIIAAAggggAACCCCAAAIIIIBAWwQIZNqixbkIIIAAAggggAACCCCAAAIIIIBAHgQIZPKAyCUQQAABBBBAAAEEEEAAAQQQQACBtggQyLRFi3MRQAABBBBAAAEEEEAAAQQQQACBPAj8fzqywFnMoLKHAAAAAElFTkSuQmCC;" vertex="1" parent="WIyWlLk6GJQsqaUBKTNV-1">
          <mxGeometry x="-100" y="20" width="1124" height="1068" as="geometry" />
        </mxCell>
        <mxCell id="K0f9ftnu1qqYcTJu6DYC-2" value="N" style="text;html=1;strokeColor=none;fillColor=none;align=center;verticalAlign=middle;whiteSpace=wrap;rounded=0;" vertex="1" parent="WIyWlLk6GJQsqaUBKTNV-1">
          <mxGeometry x="170" y="640" width="60" height="30" as="geometry" />
        </mxCell>
        <mxCell id="K0f9ftnu1qqYcTJu6DYC-3" value="转移操作" style="text;html=1;strokeColor=none;fillColor=none;align=center;verticalAlign=middle;whiteSpace=wrap;rounded=0;" vertex="1" parent="WIyWlLk6GJQsqaUBKTNV-1">
          <mxGeometry x="180" y="680" width="60" height="30" as="geometry" />
        </mxCell>
      </root>
    </mxGraphModel>
  </diagram>
</mxfile>
